SplineFontDB: 3.0
FontName: Garuda-BoldOblique
FullName: Garuda Bold Oblique
FamilyName: Garuda
Weight: Bold
Copyright: Generated by NECTEC for Public Domain\n\nModified under GNU General Public License by TLWG
Version: 2.65: 2012-01-06
ItalicAngle: -12
UnderlinePosition: -27
UnderlineWidth: 20
Ascent: 872
Descent: 128
LayerCount: 2
Layer: 0 0 "Back"  1
Layer: 1 0 "Fore"  0
NeedsXUIDChange: 1
FSType: 0
OS2Version: 0
OS2_WeightWidthSlopeOnly: 0
OS2_UseTypoMetrics: 0
CreationTime: 1153661423
ModificationTime: 1325847836
PfmFamily: 33
TTFWeight: 700
TTFWidth: 5
LineGap: 0
VLineGap: 0
Panose: 2 11 7 4 2 2 2 2 2 4
OS2TypoAscent: 0
OS2TypoAOffset: 1
OS2TypoDescent: 0
OS2TypoDOffset: 1
OS2TypoLinegap: 0
OS2WinAscent: 1284
OS2WinAOffset: 0
OS2WinDescent: 591
OS2WinDOffset: 0
HheadAscent: 1284
HheadAOffset: 0
HheadDescent: -591
HheadDOffset: 0
OS2Vendor: 'PfEd'
Lookup: 6 0 0 "'ccmp' Thai Conditional Descender Removal"  {"'ccmp' Thai Conditional Descender Removal"  } ['ccmp' ('DFLT' <'dflt' > 'thai' <'KUY ' 'PAL ' 'THA ' 'dflt' > ) ]
Lookup: 6 0 0 "'ccmp' Thai General Composition"  {"'ccmp' Thai Below Vowel Tone Reordering"  "'ccmp' Thai General Composition"  } ['ccmp' ('DFLT' <'dflt' > 'thai' <'KUY ' 'PAL ' 'THA ' 'dflt' > ) ]
Lookup: 5 0 0 "Required Thai Descender Removal"  {"Required Thai Descender Removal"  } [' RQD' ('thai' <'PAL ' > ) ]
Lookup: 1 0 0 "Thai Phinthu Nikhahit Reordering"  {"Thai Phinthu Nikhahit Reordering"  } []
Lookup: 1 0 0 "Thai Phinthu Thanthakhat Reordering"  {"Thai Phinthu Thanthakhat Reordering"  } []
Lookup: 1 0 0 "Thai Phinthu Mai Chattawa Reordering"  {"Thai Phinthu Mai Chattawa Reordering"  } []
Lookup: 1 0 0 "Thai Phinthu Mai Tri Reordering"  {"Thai Phinthu Mai Tri Reordering"  } []
Lookup: 1 0 0 "Thai Phinthu Mai Tho Reordering"  {"Thai Phinthu Mai Tho Reordering"  } []
Lookup: 1 0 0 "Thai Phinthu Mai Ek Reordering"  {"Thai Phinthu Mai Ek Reordering"  } []

StartChar: .notdef
Encoding: 0 -1 0
Width: 766
VWidth: 2048
Flags: W
HStem: 0 95<212 595> 1242 95<455 838>
DStem2: 95 0 191.807 0 0.207912 0.978148<117.25 1289.71> 574.807 0 671 0 0.207912 0.978148<97.1224 1269.58>
LayerCount: 2
Fore
SplineSet
95 0 m 1
 379 1337 l 1
 955 1337 l 1
 671 0 l 1
 95 0 l 1
212 95 m 1
 595 95 l 1
 838 1242 l 1
 455 1242 l 1
 212 95 l 1
EndSplineSet
EndChar

StartChar: exclam
Encoding: 33 33 2
Width: 308
Flags: W
HStem: 2 145<138.19 213.668> 680 20G<246.738 369>
VStem: 108 137<34.1785 115.616>
DStem2: 102.363 2 220.363 2 0.207912 0.978148<239.225 713.65>
LayerCount: 2
Fore
SplineSet
265 212 m 1
 147 212 l 1
 251 700 l 1
 369 700 l 1
 265 212 l 1
245 93 m 0
 245 53 213 2 161 2 c 0
 123 2 108 28 108 57 c 0
 108 99 141 147 192 147 c 0
 230 147 245 121 245 93 c 0
EndSplineSet
EndChar

StartChar: quotedbl
Encoding: 34 34 3
Width: 458
Flags: W
HStem: 455 242<209 221 444 457>
LayerCount: 2
Fore
SplineSet
457 455 m 1
 431 455 l 1
 419 578 l 1
 444 697 l 1
 545 697 l 1
 520 578 l 1
 457 455 l 1
221 455 m 1
 195 455 l 1
 184 578 l 1
 209 697 l 1
 310 697 l 1
 285 578 l 1
 221 455 l 1
EndSplineSet
EndChar

StartChar: numbersign
Encoding: 35 35 4
Width: 597
Flags: W
HStem: 0 21G<86 192.313 290 394.554> 166 99<87 155 294 360 497 575> 412 103<181 254 391 462 593 655> 680 20G<357 465 566.568 670>
DStem2: 86 0 184 0 0.372533 0.928019<36.5083 179.756 323.412 444.929 591.552 753.55> 290 0 386 0 0.377087 0.926178<36.2003 180.142 323.494 446.444 591.239 755.794>
LayerCount: 2
Fore
SplineSet
497 265 m 1
 596 265 l 1
 575 166 l 1
 457 166 l 1
 386 0 l 1
 290 0 l 1
 360 166 l 1
 253 166 l 1
 184 0 l 1
 86 0 l 1
 155 166 l 1
 66 166 l 1
 87 265 l 1
 195 265 l 1
 254 412 l 1
 160 412 l 1
 181 515 l 1
 291 515 l 1
 365 700 l 1
 465 700 l 1
 391 515 l 1
 497 515 l 1
 575 700 l 1
 670 700 l 1
 593 515 l 1
 676 515 l 1
 655 412 l 1
 557 412 l 1
 497 265 l 1
294 265 m 1
 399 265 l 1
 462 412 l 1
 352 412 l 1
 294 265 l 1
EndSplineSet
EndChar

StartChar: dollar
Encoding: 36 36 5
Width: 574
Flags: W
HStem: 532 104<330.302 379 494 497.363> 680 20G<408.625 508>
VStem: 128 112<118.941 208.542> 185 114<403 500.901> 456 116<142.303 250.184> 506 116<437.452 526.379>
DStem2: 248 -75 343 -75 0.207912 0.978148<19.7516 78.644 202.741 366.313 485.827 623.906 746.609 792.37>
LayerCount: 2
Fore
SplineSet
185 415 m 0xd0
 185 536 293 636 399 636 c 1
 413 700 l 1
 508 700 l 1
 494 636 l 1
 566 626 622 575 622 504 c 0
 622 484 616 434 589 434 c 2
 518 434 l 2
 494 434 506 465 506 481 c 0xd4
 506 505 497 524 472 532 c 1
 439 377 l 1
 496 356 572 321 572 228 c 0
 572 101 456 2 359 2 c 1
 343 -75 l 1
 248 -75 l 1
 264 2 l 1
 157 2 128 84 128 146 c 0
 128 167 131 210 158 210 c 2
 227 210 l 2
 242 210 243 197 243 189 c 0
 243 183 240 174 240 159 c 0xe8
 240 134 252 117 287 106 c 1
 325 285 l 1
 292 291 232 310 199 357 c 0
 190 371 185 391 185 415 c 0xd0
379 535 m 1
 321 525 299 474 299 453 c 0
 299 425 333 403 350 400 c 1
 379 535 l 1
381 104 m 1
 436 116 456 175 456 205 c 0xc8
 456 237 436 254 415 264 c 1
 381 104 l 1
EndSplineSet
EndChar

StartChar: percent
Encoding: 37 37 6
Width: 697
Flags: W
HStem: -8 61<527.011 594.794> 0 21G<95 230.943> 308 61<572.089 639.207> 322 61<230.914 297.837> 638 61<277.466 346.8>
VStem: 143 83<386.096 557.163> 352 83<468.782 634.706> 438 83<56.4729 229.105> 645 85<133.116 304.484>
DStem2: 95 0 215 0 0.625375 0.780325<75.0449 897.062>
LayerCount: 2
Fore
SplineSet
143 450 m 0x1f80
 143 541 200 699 329 699 c 0
 405 699 435 644 435 574 c 0
 435 470 372 322 248 322 c 0
 172 322 143 380 143 450 c 0x1f80
261 383 m 0
 334 383 352 566 352 587 c 0
 352 616 344 638 316 638 c 0
 244 638 226 462 226 439 c 0
 226 409 233 383 261 383 c 0
438 118 m 0
 438 224 501 369 622 369 c 0
 698 369 730 314 730 244 c 0
 730 138 663 -8 542 -8 c 0xaf80
 466 -8 438 48 438 118 c 0
555 53 m 0
 627 53 645 223 645 251 c 0
 645 282 637 308 609 308 c 0
 538 308 521 131 521 108 c 0
 521 79 528 53 555 53 c 0
656 700 m 1
 773 700 l 1
 215 0 l 1
 95 0 l 1x4f80
 656 700 l 1
EndSplineSet
EndChar

StartChar: ampersand
Encoding: 38 38 7
Width: 717
Flags: W
HStem: -5 100<241.614 395.373 626.194 685.852> 616 100<400.943 506.869>
VStem: 70 124<139.947 260.764> 248 119<476.069 582.625> 525 122<498.668 597.945>
DStem2: 450 372 339 326 0.566045 -0.824374<0 169.544>
LayerCount: 2
Fore
SplineSet
70 156 m 0
 70 308 171 367 287 409 c 1
 272 438 248 476 248 523 c 0
 248 619 343 716 480 716 c 0
 572 716 647 665 647 577 c 0
 647 459 537 406 450 372 c 1
 550 235 l 1
 605 288 636 342 656 389 c 1
 758 374 l 1
 724 299 671 228 599 155 c 1
 624 117 634 95 681 95 c 0
 688 95 704 96 704 96 c 1
 685 3 l 1
 667 -2 650 -5 634 -5 c 0
 575 -5 539 18 506 81 c 1
 415 14 352 -5 270 -5 c 0
 151 -5 70 44 70 156 c 0
412 444 m 1
 521 486 525 528 525 549 c 0
 525 590 493 616 462 616 c 0
 418 616 367 583 367 533 c 0
 367 494 399 465 412 444 c 1
339 326 m 1
 273 315 194 279 194 202 c 0
 194 141 245 95 311 95 c 0
 356 95 403 107 463 149 c 1
 339 326 l 1
EndSplineSet
EndChar

StartChar: quotesingle
Encoding: 39 39 8
Width: 298
Flags: W
HStem: 489 242<255 266>
VStem: 230 124
LayerCount: 2
Fore
SplineSet
266 489 m 1
 240 489 l 1
 230 612 l 1
 255 731 l 1
 354 731 l 1
 329 612 l 1
 266 489 l 1
EndSplineSet
EndChar

StartChar: parenleft
Encoding: 40 40 9
Width: 378
Flags: W
VStem: 99 101<-62.9937 268.362>
LayerCount: 2
Fore
SplineSet
424 731 m 1
 266 514 200 265 200 64 c 0
 200 -17 211 -96 231 -167 c 1
 155 -167 l 1
 119 -83 99 13 99 114 c 0
 99 361 219 589 348 731 c 1
 424 731 l 1
EndSplineSet
EndChar

StartChar: parenright
Encoding: 41 41 10
Width: 378
Flags: W
VStem: 256 101<293.317 626.093>
LayerCount: 2
Fore
SplineSet
357 453 m 0
 357 205 242 -12 111 -167 c 1
 36 -167 l 1
 192 53 256 301 256 502 c 0
 256 582 245 659 223 731 c 1
 298 731 l 1
 337 650 357 554 357 453 c 0
EndSplineSet
EndChar

StartChar: asterisk
Encoding: 42 42 11
Width: 597
Flags: W
DStem2: 330.098 327 406.098 327 0.207912 0.978148<284.677 433.365>
LayerCount: 2
Fore
SplineSet
468 512 m 1
 532 382 l 1
 452 327 l 1
 397 463 l 1
 286 327 l 1
 228 382 l 1
 350 512 l 1
 213 558 l 1
 258 644 l 1
 386 590 l 1
 415 752 l 1
 502 752 l 1
 462 590 l 1
 615 647 l 1
 623 558 l 1
 468 512 l 1
EndSplineSet
EndChar

StartChar: plus
Encoding: 43 43 12
Width: 565
Flags: W
HStem: 259 100<142 290 418 565>
DStem2: 249 64 356 64 0.207912 0.978148<22.2465 199.263 323.691 499.937>
LayerCount: 2
Fore
SplineSet
397 259 m 1
 356 64 l 1
 249 64 l 1
 290 259 l 1
 121 259 l 1
 142 359 l 1
 311 359 l 1
 353 553 l 1
 460 553 l 1
 418 359 l 1
 586 359 l 1
 565 259 l 1
 397 259 l 1
EndSplineSet
EndChar

StartChar: comma
Encoding: 44 44 13
Width: 252
Flags: W
HStem: -161 51<29 81.3102>
VStem: 62 158<16.4136 120.448>
LayerCount: 2
Fore
SplineSet
62 60 m 0
 62 104 99 159 154 159 c 0
 204 159 220 122 220 83 c 0
 220 19 168 -139 18 -161 c 1
 29 -110 l 1
 126 -98 127 -25 132 0 c 1
 81 0 62 28 62 60 c 0
EndSplineSet
EndChar

StartChar: hyphen
Encoding: 45 45 14
AltUni2: 002010.ffffffff.0
Width: 455
Flags: W
HStem: 232 100<111 461>
LayerCount: 2
Fore
SplineSet
89 232 m 1
 111 332 l 1
 483 332 l 1
 461 232 l 1
 89 232 l 1
EndSplineSet
EndChar

StartChar: period
Encoding: 46 46 15
Width: 217
Flags: W
HStem: 0 147<95.1902 170.842>
VStem: 65 138<33.3692 115.993>
LayerCount: 2
Fore
SplineSet
203 92 m 0
 203 52 170 0 118 0 c 0
 80 0 65 28 65 57 c 0
 65 99 98 147 149 147 c 0
 187 147 203 120 203 92 c 0
EndSplineSet
EndChar

StartChar: slash
Encoding: 47 47 16
Width: 597
Flags: W
HStem: 0 21G<32 176.943> 680 20G<577.943 719>
DStem2: 32 0 161 0 0.626053 0.779781<80.7608 897.688>
LayerCount: 2
Fore
SplineSet
594 700 m 1
 719 700 l 1
 161 0 l 1
 32 0 l 1
 594 700 l 1
EndSplineSet
EndChar

StartChar: zero
Encoding: 48 48 17
Width: 697
Flags: W
HStem: 0 86<315.281 465.797> 614 86<419.796 572.055>
VStem: 143 118<142.69 382.077> 626 117<316.157 555.71>
LayerCount: 2
Fore
SplineSet
743 456 m 0
 743 297 648 0 369 0 c 0
 202 0 143 105 143 236 c 0
 143 432 265 700 518 700 c 0
 686 700 743 584 743 456 c 0
500 614 m 0
 309 614 261 329 261 244 c 0
 261 159 291 86 387 86 c 0
 578 86 626 366 626 455 c 0
 626 540 597 614 500 614 c 0
EndSplineSet
EndChar

StartChar: one
Encoding: 49 49 18
Width: 697
Flags: W
HStem: 0 21G<376 498.257> 680 20G<471 643>
DStem2: 376 0 494 0 0.207912 0.978148<24.5336 635.852>
LayerCount: 2
Fore
SplineSet
508 622 m 1
 462 580 400 528 321 479 c 1
 276 538 l 1
 331 571 447 654 495 700 c 1
 643 700 l 1
 494 0 l 1
 376 0 l 1
 508 622 l 1
EndSplineSet
EndChar

StartChar: two
Encoding: 50 50 19
Width: 697
Flags: W
HStem: 0 86<285 668> 628 86<422.593 605.937>
VStem: 207 122<440.624 547.496> 665 119<479.091 580.372>
LayerCount: 2
Fore
SplineSet
207 460 m 0
 207 589 345 714 546 714 c 0
 712 714 784 625 784 541 c 0
 784 435 685 364 511 276 c 0
 447 244 380 205 315 144 c 0
 299 130 292 118 285 86 c 1
 686 86 l 1
 668 0 l 1
 116 0 l 1
 134 83 158 154 228 216 c 0
 312 290 393 328 488 372 c 0
 622 433 665 488 665 531 c 0
 665 587 592 628 515 628 c 0
 427 628 329 572 329 483 c 0
 329 469 331 455 335 441 c 1
 220 400 l 1
 210 421 207 440 207 460 c 0
EndSplineSet
EndChar

StartChar: three
Encoding: 51 51 20
Width: 697
Flags: W
HStem: -8 86<306.211 511.149> 326 82<410 558.593> 620 86<436.209 617.977>
VStem: 140 120<119.269 212> 608 116<161.823 285.117> 649 120<472.689 590.504>
LayerCount: 2
Fore
SplineSet
464 408 m 0xf8
 505 408 649 425 649 535 c 0
 649 574 627 620 528 620 c 0
 424 620 361 552 350 501 c 1
 232 501 l 1
 262 644 413 706 557 706 c 0
 715 706 769 623 769 548 c 0xf4
 769 445 678 396 604 377 c 1
 602 368 l 1
 661 359 724 313 724 232 c 0
 724 88 575 -8 390 -8 c 0
 256 -8 140 39 140 162 c 0
 140 177 142 194 146 212 c 1
 264 212 l 1
 262 201 260 190 260 180 c 0
 260 101 336 78 406 78 c 0
 515 78 608 139 608 231 c 0
 608 316 503 326 423 326 c 2
 391 326 l 1
 410 412 l 1
 431 412 448 408 464 408 c 0xf8
EndSplineSet
EndChar

StartChar: four
Encoding: 52 52 21
Width: 697
Flags: W
HStem: 0 21G<463 585.229> 175 86<244 500 635 737> 680 20G<551.254 729>
DStem2: 463 0 581 0 0.207912 0.978148<24.5336 178.869 291.057 620.348>
LayerCount: 2
Fore
SplineSet
618 175 m 1
 581 0 l 1
 463 0 l 1
 500 175 l 1
 106 175 l 1
 127 271 l 1
 572 700 l 1
 729 700 l 1
 635 261 l 1
 755 261 l 1
 737 175 l 1
 618 175 l 1
591 607 m 1
 244 261 l 1
 517 261 l 1
 591 607 l 1
EndSplineSet
EndChar

StartChar: five
Encoding: 53 53 22
Width: 697
Flags: W
HStem: -12 86<317.333 507.2> 404 86<415.131 565.572> 614 86<406 782>
VStem: 157 123<109.474 187> 620 119<190.049 351.748>
DStem2: 188 317 340 432 0.336804 0.941575<159.475 353.071>
LayerCount: 2
Fore
SplineSet
410 74 m 0
 586 74 620 226 620 281 c 0
 620 359 562 404 489 404 c 0
 429 404 358 370 306 317 c 1
 188 317 l 1
 325 700 l 1
 787 700 l 1
 782 614 l 1
 406 614 l 1
 340 432 l 1
 386 454 433 490 545 490 c 0
 680 490 739 417 739 308 c 0
 739 176 671 -12 400 -12 c 0
 174 -12 157 97 157 165 c 0
 157 173 158 180 158 187 c 1
 281 187 l 1
 281 183 280 179 280 175 c 0
 280 103 327 74 410 74 c 0
EndSplineSet
EndChar

StartChar: six
Encoding: 54 54 23
Width: 697
Flags: W
HStem: -12 86<331.644 506.396> 379 86<410.953 561.741> 627 86<446.282 630.495>
VStem: 166 123<116.57 276.747> 608 121<179.393 335.428>
LayerCount: 2
Fore
SplineSet
729 287 m 0
 729 160 638 -12 410 -12 c 0
 223 -12 166 86 166 210 c 0
 166 249 172 290 181 332 c 0
 248 647 439 713 562 713 c 0
 679 713 771 672 782 553 c 1
 668 553 l 1
 652 610 603 627 536 627 c 0
 468 627 354 592 310 385 c 1
 366 427 434 465 523 465 c 0
 659 465 729 394 729 287 c 0
415 74 m 0
 548 74 608 178 608 266 c 0
 608 345 550 379 483 379 c 0
 363 379 289 288 289 186 c 0
 289 120 327 74 415 74 c 0
EndSplineSet
EndChar

StartChar: seven
Encoding: 55 55 24
Width: 697
Flags: W
HStem: 0 21G<231 386> 614 86<281 680>
VStem: 231 145<0 67.9238>
LayerCount: 2
Fore
SplineSet
477 253 m 0
 422 158 396 92 376 0 c 1
 231 0 l 1
 252 98 321 224 409 339 c 0
 483 435 576 529 680 614 c 1
 263 614 l 1
 281 700 l 1
 810 700 l 1
 790 607 l 1
 668 513 551 376 477 253 c 0
EndSplineSet
EndChar

StartChar: eight
Encoding: 56 56 25
Width: 697
Flags: W
HStem: -6 86<322.05 498.384> 349 86<403.349 555.097> 619 86<433.791 599.717>
VStem: 151 120<125.569 263.058> 254 116<464.204 564.818> 600 119<170.45 308.331> 632 123<496.864 589.985>
LayerCount: 2
Fore
SplineSet
254 513 m 0xe8
 254 628 385 705 539 705 c 0
 634 705 755 671 755 572 c 0xea
 755 536 738 440 584 392 c 1
 612 383 719 354 719 252 c 0
 719 169 643 -6 388 -6 c 0
 200 -6 151 87 151 170 c 0xf4
 151 347 341 386 360 392 c 1
 299 414 254 452 254 513 c 0xe8
406 80 m 0
 521 80 600 161 600 245 c 0
 600 294 571 349 463 349 c 0
 322 349 271 253 271 189 c 0xf4
 271 130 314 80 406 80 c 0
481 435 m 0
 562 435 632 482 632 542 c 0
 632 586 590 619 521 619 c 0
 440 619 370 572 370 512 c 0xea
 370 468 412 435 481 435 c 0
EndSplineSet
EndChar

StartChar: nine
Encoding: 57 57 26
Width: 697
Flags: W
HStem: -8 86<304.524 474.257> 246 86<375.771 531.925> 624 86<426.873 602.011>
VStem: 208 121<376.384 524.896> 643 125<431.023 586.653>
LayerCount: 2
Fore
SplineSet
768 497 m 0
 768 348 671 -8 369 -8 c 0
 177 -8 163 115 159 156 c 1
 266 156 l 1
 281 99 326 78 392 78 c 0
 503 78 595 185 627 337 c 1
 605 315 547 246 418 246 c 0
 282 246 208 312 208 419 c 0
 208 545 303 710 521 710 c 0
 709 710 768 619 768 497 c 0
455 332 m 0
 550 332 643 399 643 516 c 0
 643 571 617 624 521 624 c 0
 367 624 329 502 329 442 c 0
 329 367 388 332 455 332 c 0
EndSplineSet
EndChar

StartChar: colon
Encoding: 58 58 27
Width: 294
Flags: W
HStem: 2 145<119.829 195.307> 383 146<202.401 276.737>
VStem: 89 137<34.7019 116.424> 170 137<413.604 496.809>
LayerCount: 2
Fore
SplineSet
307 474 m 0xd0
 307 434 277 383 224 383 c 0
 185 383 170 411 170 439 c 0
 170 478 204 529 255 529 c 0
 292 529 307 502 307 474 c 0xd0
226 94 m 0xe0
 226 54 195 2 143 2 c 0
 105 2 89 29 89 58 c 0
 89 100 123 147 174 147 c 0
 212 147 226 122 226 94 c 0xe0
EndSplineSet
EndChar

StartChar: semicolon
Encoding: 59 59 28
Width: 320
Flags: W
HStem: -161 51<56 108.31> 379 145<205.332 280.599>
VStem: 89 158<16.4136 120.448> 174 139<411.191 491.959>
LayerCount: 2
Fore
SplineSet
89 60 m 0xe0
 89 104 126 159 181 159 c 0
 231 159 247 122 247 83 c 0
 247 19 195 -139 45 -161 c 1
 56 -110 l 1
 153 -98 154 -25 159 0 c 1
 108 0 89 28 89 60 c 0xe0
313 468 m 0xd0
 313 429 279 379 228 379 c 0
 190 379 174 406 174 434 c 0
 174 473 206 524 258 524 c 0
 296 524 313 496 313 468 c 0xd0
EndSplineSet
EndChar

StartChar: less
Encoding: 60 60 29
Width: 597
Flags: W
DStem2: 237 299 127 247 0.912337 -0.409439<0 349.363> 149 351 237 299 0.936959 0.34944<64.2815 466.913>
LayerCount: 2
Fore
SplineSet
127 247 m 1
 149 351 l 1
 637 533 l 1
 616 435 l 1
 237 299 l 1
 558 161 l 1
 537 63 l 1
 127 247 l 1
EndSplineSet
EndChar

StartChar: equal
Encoding: 61 61 30
Width: 544
Flags: W
HStem: 138 92<115 526> 402 90<171 582>
LayerCount: 2
Fore
SplineSet
151 402 m 1
 171 492 l 1
 602 492 l 1
 582 402 l 1
 151 402 l 1
95 138 m 1
 115 230 l 1
 546 230 l 1
 526 138 l 1
 95 138 l 1
EndSplineSet
EndChar

StartChar: greater
Encoding: 62 62 31
Width: 597
Flags: W
DStem2: 108 161 87 63 0.936172 0.351542<0 403.322> 187 533 166 435 0.914725 -0.404077<20.3904 368.972>
LayerCount: 2
Fore
SplineSet
87 63 m 1
 108 161 l 1
 487 299 l 1
 166 435 l 1
 187 533 l 1
 599 351 l 1
 577 247 l 1
 87 63 l 1
EndSplineSet
EndChar

StartChar: question
Encoding: 63 63 32
Width: 538
Flags: W
HStem: -2 115<241.92 318.835> 369 147<254.029 317.809> 626 81<316.992 447.693>
VStem: 166 86<434 559.731> 221 118<18.517 92.7302> 252 81<141 207.047> 477 120<462.812 596.009>
LayerCount: 2
Fore
SplineSet
166 470 m 0xf2
 166 580 268 707 421 707 c 0
 486 707 597 676 597 559 c 0
 597 479 550 392 472 325 c 0
 393 257 356 247 333 141 c 1
 252 141 l 1xf6
 270 226 278 234 326 305 c 0
 374 376 477 438 477 539 c 0
 477 595 435 626 385 626 c 0
 302 626 252 549 252 508 c 0
 252 505 252 503 253 500 c 1
 275 511 294 516 309 516 c 0
 342 516 357 492 357 464 c 0
 357 407 303 369 256 369 c 0
 216 369 166 398 166 470 c 0xf2
221 42 m 0xea
 221 76 249 113 292 113 c 0
 324 113 339 92 339 68 c 0
 339 36 312 -2 268 -2 c 0
 236 -2 221 18 221 42 c 0xea
EndSplineSet
EndChar

StartChar: at
Encoding: 64 64 33
Width: 784
Flags: W
HStem: -26 80<326.913 526.556> 135 98<341.711 432.108> 135 64<518 638.446> 440 96<428.871 531.599> 644 79<440.939 645.767>
VStem: 119 87<171.458 384.297> 257 108<245.74 365.088> 735 89<363.904 556.784>
LayerCount: 2
Fore
SplineSet
119 252 m 0xbf
 119 493 321 723 562 723 c 0
 718 723 824 621 824 482 c 0
 824 397 766 135 532 135 c 0
 504 135 482 148 482 179 c 0
 482 184 482 189 483 195 c 1
 434 152 403 138 376 138 c 0
 306 138 257 195 257 271 c 0
 257 371 351 536 493 536 c 0
 534 536 563 523 592 472 c 1
 614 530 l 1
 694 530 l 1
 622 323 590 245 584 216 c 0
 580 199 585 199 596 199 c 0
 647 199 735 326 735 463 c 0
 735 582 660 644 543 644 c 0
 349 644 206 455 206 274 c 0
 206 136 299 54 433 54 c 0
 498 54 563 80 621 121 c 1
 705 121 l 1
 614 32 529 -26 408 -26 c 0
 225 -26 119 86 119 252 c 0xbf
485 440 m 0
 424 440 365 367 365 298 c 0
 365 261 384 233 421 233 c 0xdf
 495 233 543 319 543 377 c 0
 543 415 523 440 485 440 c 0
EndSplineSet
EndChar

StartChar: A
Encoding: 65 65 34
Width: 628
Flags: W
HStem: 0 21G<25 151 458.933 584> 150 100<263 445> 680 20G<357.229 541.257>
DStem2: 25 0 141 0 0.43898 0.898497<50.9217 218.62 329.101 709.258>
LayerCount: 2
Fore
SplineSet
460 0 m 1
 452 150 l 1
 216 150 l 1
 141 0 l 1
 25 0 l 1
 367 700 l 1
 540 700 l 1
 584 0 l 1
 460 0 l 1
429 592 m 1
 263 250 l 1
 445 250 l 1
 429 592 l 1
EndSplineSet
EndChar

StartChar: B
Encoding: 66 66 35
Width: 646
Flags: W
HStem: 0 100<222 452.007> 311 100<288 496.016> 600 100<329 549.146>
VStem: 520 113<161.768 286.971> 569 124<479.025 579.043>
DStem2: 83 0 200.744 0 0.207912 0.978148<126.714 342.46 444.641 638.035>
LayerCount: 2
Fore
SplineSet
633 225 m 0xf0
 633 135 576 0 365 0 c 2
 83 0 l 1
 232 700 l 1
 514 700 l 2
 647 700 693 645 693 572 c 0xe8
 693 505 655 399 535 366 c 1
 531 357 l 1
 600 341 633 290 633 225 c 0xf0
415 411 m 2
 550 411 569 498 569 535 c 0
 569 578 536 600 444 600 c 2
 329 600 l 1
 288 411 l 1
 415 411 l 2
351 100 m 2
 499 100 520 191 520 237 c 0xf0
 520 296 469 311 403 311 c 2
 267 311 l 1
 222 100 l 1
 351 100 l 2
EndSplineSet
EndChar

StartChar: C
Encoding: 67 67 36
Width: 646
Flags: W
HStem: -5 100<293.199 429.302> 616 100<398.156 529.12>
VStem: 114 121<160.779 394.802> 570 126<471 573.016>
LayerCount: 2
Fore
SplineSet
460 616 m 0
 344 616 235 422 235 270 c 0
 235 180 268 95 356 95 c 0
 438 95 502 167 528 235 c 1
 643 227 l 1
 590 80 467 -5 328 -5 c 0
 180 -5 114 100 114 241 c 0
 114 452 245 716 485 716 c 0
 626 716 696 639 696 503 c 0
 696 493 696 482 695 471 c 1
 567 461 l 1
 569 472 570 483 570 494 c 0
 570 559 539 616 460 616 c 0
EndSplineSet
EndChar

StartChar: D
Encoding: 68 68 37
Width: 646
Flags: W
HStem: 0 100<194 387.499> 600 100<301 490.761>
VStem: 561 120<318.791 533.823>
DStem2: 55 0 172.744 0 0.207912 0.978148<126.714 638.035>
LayerCount: 2
Fore
SplineSet
259 0 m 2
 55 0 l 1
 204 700 l 1
 382 700 l 2
 562 700 681 639 681 464 c 0
 681 431 677 394 668 353 c 0
 615 105 453 0 259 0 c 2
376 600 m 2
 301 600 l 1
 194 100 l 1
 268 100 l 2
 376 100 504 136 551 358 c 0
 558 391 561 420 561 445 c 0
 561 578 470 600 376 600 c 2
EndSplineSet
EndChar

StartChar: E
Encoding: 69 69 38
Width: 568
Flags: W
HStem: 0 100<219 523> 293 100<282 516> 600 100<326 651>
DStem2: 80 0 197.744 0 0.207912 0.978148<126.714 324.021 426.41 638.035>
LayerCount: 2
Fore
SplineSet
80 0 m 1
 229 700 l 1
 672 700 l 1
 651 600 l 1
 326 600 l 1
 282 393 l 1
 538 393 l 1
 516 293 l 1
 260 293 l 1
 219 100 l 1
 544 100 l 1
 523 0 l 1
 80 0 l 1
EndSplineSet
EndChar

StartChar: F
Encoding: 70 70 39
Width: 530
Flags: W
HStem: 0 21G<80 202.232> 293 100<282 516> 600 100<326 648>
DStem2: 80 0 198 0 0.207912 0.978148<24.5336 324.021 426.41 638.035>
LayerCount: 2
Fore
SplineSet
326 600 m 1
 282 393 l 1
 538 393 l 1
 516 293 l 1
 260 293 l 1
 198 0 l 1
 80 0 l 1
 229 700 l 1
 669 700 l 1
 648 600 l 1
 326 600 l 1
EndSplineSet
EndChar

StartChar: G
Encoding: 71 71 40
Width: 646
Flags: W
HStem: -5 100<299.454 445.702> 261 100<433 536> 616 100<401.591 541.66>
VStem: 100 123<185.667 385.48> 589 116<497 565.297>
LayerCount: 2
Fore
SplineSet
476 616 m 0
 336 616 223 412 223 290 c 0
 223 201 264 95 373 95 c 0
 454 95 512 149 536 261 c 1
 411 261 l 1
 433 361 l 1
 676 361 l 1
 599 0 l 1
 481 0 l 1
 493 55 l 1
 449 5 405 -5 333 -5 c 0
 182 -5 100 105 100 252 c 0
 100 419 218 716 501 716 c 0
 628 716 705 637 705 509 c 0
 705 505 705 501 705 497 c 1
 589 480 l 1
 589 483 589 486 589 489 c 0
 589 557 551 616 476 616 c 0
EndSplineSet
EndChar

StartChar: H
Encoding: 72 72 41
Width: 657
Flags: W
HStem: 0 21G<60 182.262 487 609.257> 305 100<264 552> 680 20G<204.743 327 631.729 754>
DStem2: 60 0 178 0 0.207912 0.978148<24.5336 336.383 438.564 715.682> 487 0 605 0 0.207912 0.978148<24.5336 311.849 414.03 715.682>
LayerCount: 2
Fore
SplineSet
487 0 m 1
 552 305 l 1
 243 305 l 1
 178 0 l 1
 60 0 l 1
 209 700 l 1
 327 700 l 1
 264 405 l 1
 573 405 l 1
 636 700 l 1
 754 700 l 1
 605 0 l 1
 487 0 l 1
EndSplineSet
EndChar

StartChar: I
Encoding: 73 73 42
Width: 294
Flags: W
HStem: 0 21G<84 206.257> 680 20G<228.743 351>
VStem: 84 267
DStem2: 84 0 202 0 0.207912 0.978148<24.5336 715.682>
LayerCount: 2
Fore
SplineSet
84 0 m 1
 233 700 l 1
 351 700 l 1
 202 0 l 1
 84 0 l 1
EndSplineSet
EndChar

StartChar: J
Encoding: 74 74 43
Width: 482
Flags: W
HStem: -5 100<201.576 313.151> 680 20G<471.732 594>
VStem: 65 119<113.934 214.682>
DStem2: 325.75 -5 444.3 -5 0.207912 0.978148<140.788 720.833>
LayerCount: 2
Fore
SplineSet
490 210 m 2
 472 124 386 -5 236 -5 c 0
 106 -5 65 76 65 148 c 0
 65 162 66 175 69 187 c 2
 87 274 l 1
 205 274 l 1
 187 187 l 2
 185 180 184 173 184 166 c 0
 184 123 214 95 251 95 c 0
 308 95 357 141 374 222 c 2
 476 700 l 1
 594 700 l 1
 490 210 l 2
EndSplineSet
EndChar

StartChar: K
Encoding: 75 75 44
Width: 628
Flags: W
HStem: 0 21G<80 202.308 453.767 593> 680 20G<224.743 347 566.394 710>
DStem2: 80 0 198 0 0.207912 0.978148<24.5336 157.514 348.536 715.682> 265 317 389 326 0.64726 0.762269<0 87.1207 243.693 497.778> 499 438 389 326 0.209834 -0.977737<86.4248 419.646>
LayerCount: 2
Fore
SplineSet
458 0 m 1
 389 326 l 1
 226 130 l 1
 198 0 l 1
 80 0 l 1
 229 700 l 1
 347 700 l 1
 265 317 l 1
 583 700 l 1
 710 700 l 1
 499 438 l 1
 593 0 l 1
 458 0 l 1
EndSplineSet
EndChar

StartChar: L
Encoding: 76 76 45
Width: 490
Flags: W
HStem: 0 100<214 466> 680 20G<219.743 342>
DStem2: 75 0 192.744 0 0.207912 0.978148<126.714 715.682>
LayerCount: 2
Fore
SplineSet
75 0 m 1
 224 700 l 1
 342 700 l 1
 214 100 l 1
 487 100 l 1
 466 0 l 1
 75 0 l 1
EndSplineSet
EndChar

StartChar: M
Encoding: 77 77 46
Width: 862
Flags: W
HStem: 0 21G<80 202.267 384.8 474.833 659 781.257> 600 100<326 350 760 787>
DStem2: 80 0 198 0 0.207912 0.978148<24.5336 638.035> 443 700 350 600 0.0598923 -0.998205<94.2505 495.728> 470 205 465 0 0.441221 0.897399<0 482.426> 659 0 777 0 0.207912 0.978148<24.5336 613.501>
LayerCount: 2
Fore
SplineSet
659 0 m 1
 787 600 l 1
 760 600 l 1
 465 0 l 1
 386 0 l 1
 350 600 l 1
 326 600 l 1
 198 0 l 1
 80 0 l 1
 229 700 l 1
 443 700 l 1
 470 205 l 1
 712 700 l 1
 926 700 l 1
 777 0 l 1
 659 0 l 1
EndSplineSet
EndChar

StartChar: N
Encoding: 78 78 47
Width: 646
Flags: W
HStem: 0 21G<80 202.267 449.476 565.257> 680 20G<224.743 373.353 587.76 710>
DStem2: 80 0 198 0 0.207912 0.978148<24.5336 561.347> 368 700 310 525 0.266223 -0.963911<153.244 483.425> 443.474 0 561 0 0.207912 0.978148<238.205 715.584>
LayerCount: 2
Fore
SplineSet
455 0 m 1
 310 525 l 1
 198 0 l 1
 80 0 l 1
 229 700 l 1
 368 700 l 1
 493 233 l 1
 592 700 l 1
 710 700 l 1
 561 0 l 1
 455 0 l 1
EndSplineSet
EndChar

StartChar: O
Encoding: 79 79 48
Width: 646
Flags: W
HStem: -5 100<274.888 408.291> 616 100<376.049 514.437>
VStem: 102 121<156.404 397.7> 568 119<322.387 555.264>
LayerCount: 2
Fore
SplineSet
687 471 m 0
 687 294 572 -5 317 -5 c 0
 163 -5 102 105 102 243 c 0
 102 457 234 716 470 716 c 0
 627 716 687 603 687 471 c 0
338 95 m 0
 476 95 568 311 568 455 c 0
 568 542 535 616 449 616 c 0
 307 616 223 415 223 266 c 0
 223 175 253 95 338 95 c 0
EndSplineSet
EndChar

StartChar: P
Encoding: 80 80 49
Width: 625
Flags: W
HStem: 0 21G<63 185.265> 272 100<260 477.51> 600 100<309 517.824>
VStem: 554 123<443.153 570.092>
DStem2: 63 0 181 0 0.207912 0.978148<24.5336 302.649 404.83 638.035>
LayerCount: 2
Fore
SplineSet
671 493 m 0
 638 338 556 272 383 272 c 2
 239 272 l 1
 181 0 l 1
 63 0 l 1
 212 700 l 1
 469 700 l 2
 630 700 677 628 677 547 c 0
 677 529 675 511 671 493 c 0
392 372 m 2
 491 372 554 437 554 514 c 0
 554 570 512 600 439 600 c 2
 309 600 l 1
 260 372 l 1
 392 372 l 2
EndSplineSet
EndChar

StartChar: Q
Encoding: 81 81 50
Width: 646
Flags: W
HStem: -153 100<467.789 541> -5 100<274.888 383.269> 616 100<376.049 514.437>
VStem: 102 121<156.404 397.7> 383 75<-93.0397 4.82254> 568 119<323.906 555.264>
LayerCount: 2
Fore
SplineSet
338 95 m 0
 476 95 568 311 568 455 c 0
 568 542 535 616 449 616 c 0
 307 616 223 415 223 266 c 0
 223 175 253 95 338 95 c 0
102 243 m 0
 102 457 234 716 470 716 c 0
 627 716 687 603 687 471 c 0
 687 317 606 112 462 33 c 1
 460 22 458 10 458 0 c 0
 458 -31 472 -53 515 -53 c 1
 562 -50 l 1
 541 -150 l 1
 529 -152 514 -153 503 -153 c 0
 438 -153 383 -141 383 -42 c 0
 383 -28 384 -13 386 5 c 1
 364 0 341 -5 317 -5 c 0
 163 -5 102 105 102 243 c 0
EndSplineSet
EndChar

StartChar: R
Encoding: 82 82 51
Width: 659
Flags: W
HStem: 0 21G<54 176.261 501.5 634.324> 291 100<255 505.648> 600 100<300 576.059>
VStem: 496 121<19.5748 198.183> 520 121<114.01 276.379> 596 121<445.906 579.238>
DStem2: 54 0 172 0 0.207912 0.978148<24.5336 322.065 424.246 638.035> 475.517 0 594.368 0 0.207912 0.978148<118.046 229.62 423.695 541.098>
LayerCount: 2
Fore
SplineSet
523 700 m 2xe8
 630 700 717 674 717 557 c 0xe4
 717 537 714 514 709 488 c 0
 693 415 660 393 591 345 c 1
 629 314 641 278 641 243 c 0xe8
 641 227 638 211 635 195 c 2
 622 130 l 2
 619 116 617 103 617 90 c 0
 617 70 622 53 638 37 c 1
 630 0 l 1
 504 0 l 1
 499 30 496 50 496 69 c 0xf0
 496 88 498 107 504 134 c 2
 514 177 l 2
 518 194 520 211 520 226 c 0
 520 264 503 291 440 291 c 2
 234 291 l 1
 172 0 l 1
 54 0 l 1
 203 700 l 1
 523 700 l 2xe8
481 391 m 2
 530 391 573 406 593 498 c 0
 595 509 596 519 596 528 c 0
 596 587 548 600 504 600 c 2
 300 600 l 1
 255 391 l 1
 481 391 l 2
EndSplineSet
EndChar

StartChar: S
Encoding: 83 83 52
Width: 588
Flags: W
HStem: -5 100<230.54 379.471> 616 100<331.912 474.933>
VStem: 155 125<400.488 551.72> 449 126<163.353 266.994>
LayerCount: 2
Fore
SplineSet
431 716 m 0
 538 716 615 677 632 573 c 1
 504 533 l 1
 495 577 481 616 406 616 c 0
 331 616 280 564 280 496 c 0
 280 460 302 439 366 424 c 0
 404 415 575 396 575 260 c 0
 575 191 525 -5 273 -5 c 0
 158 -5 70 45 61 163 c 1
 61 163 181 199 189 199 c 1
 198 124 239 95 308 95 c 0
 341 95 449 125 449 215 c 0
 449 276 391 295 344 306 c 0
 243 330 155 351 155 453 c 0
 155 558 236 716 431 716 c 0
EndSplineSet
EndChar

StartChar: T
Encoding: 84 84 53
Width: 530
Flags: W
HStem: 0 21G<203 325.267> 600 100<180 331 449 618>
DStem2: 203 0 321 0 0.207912 0.978148<24.5336 613.501>
LayerCount: 2
Fore
SplineSet
449 600 m 1
 321 0 l 1
 203 0 l 1
 331 600 l 1
 159 600 l 1
 180 700 l 1
 639 700 l 1
 618 600 l 1
 449 600 l 1
EndSplineSet
EndChar

StartChar: U
Encoding: 85 85 54
Width: 646
Flags: W
HStem: -5 100<260.633 443.482> 680 20G<213.727 336 612.739 735>
VStem: 110 122<122.626 294>
DStem2: 67.6241 -5 185.924 -5 0.207912 0.978148<222.67 720.859> 466.924 -5 584.624 -5 0.207912 0.978148<154.452 720.797>
LayerCount: 2
Fore
SplineSet
326 -5 m 0
 191 -5 110 41 110 159 c 0
 110 181 112 205 118 232 c 2
 218 700 l 1
 336 700 l 1
 238 240 l 2
 234 220 232 202 232 187 c 0
 232 114 278 95 347 95 c 0
 430 95 494 122 519 240 c 2
 617 700 l 1
 735 700 l 1
 635 232 l 2
 603 82 486 -5 326 -5 c 0
EndSplineSet
EndChar

StartChar: V
Encoding: 86 86 55
Width: 588
Flags: W
HStem: 0 21G<221 383.514> 680 20G<187 305.697 579.801 707>
VStem: 187 118<560 700>
DStem2: 325 126 374 0 0.429583 0.903027<0 631.748>
LayerCount: 2
Fore
SplineSet
374 0 m 1
 222 0 l 1
 187 700 l 1
 305 700 l 1
 325 126 l 1
 589 700 l 1
 707 700 l 1
 374 0 l 1
EndSplineSet
EndChar

StartChar: W
Encoding: 87 87 56
Width: 882
Flags: W
HStem: 0 21G<189.571 333.703 560.76 704.943> 680 20G<175 293.161 523.044 652.442 882.325 1009>
VStem: 175 118<373.333 700> 190 107<202 326.667> 555 97<383.091 501> 561 102<202 501>
DStem2: 309 202 325 0 0.398994 0.916954<0 367.534> 675 202 696 0 0.408194 0.912895<0 542.792>
LayerCount: 2
Fore
SplineSet
696 0 m 1xc4
 561 0 l 1xc4
 555 501 l 1
 543 501 l 1
 325 0 l 1
 190 0 l 1xd8
 175 700 l 1
 293 700 l 1xe0
 297 202 l 1
 309 202 l 1
 532 700 l 1
 652 700 l 1xd8
 663 202 l 1
 675 202 l 1
 891 700 l 1
 1009 700 l 1
 696 0 l 1xc4
EndSplineSet
EndChar

StartChar: X
Encoding: 88 88 57
Width: 628
Flags: W
HStem: 0 21G<46 185.403 433.629 579> 680 20G<215 360.445 568.645 708>
DStem2: 46 0 170 0 0.609382 0.792877<75.5634 388.589 616.844 882.861> 354 700 215 700 0.306009 -0.952029<0 221.687 432.459 692.737>
LayerCount: 2
Fore
SplineSet
215 700 m 1
 354 700 l 1
 422 489 l 1
 584 700 l 1
 708 700 l 1
 459 375 l 1
 579 0 l 1
 440 0 l 1
 361 248 l 1
 170 0 l 1
 46 0 l 1
 324 361 l 1
 215 700 l 1
EndSplineSet
EndChar

StartChar: Y
Encoding: 89 89 58
Width: 588
Flags: W
HStem: 0 21G<236 358.255> 680 20G<184 329.894 572.383 705>
DStem2: 325 700 184 700 0.273152 -0.961971<0 290.123> 236 0 354 0 0.207912 0.978148<24.5336 301.652> 394 418 414 282 0.571352 0.820705<0 341.138>
LayerCount: 2
Fore
SplineSet
414 282 m 1
 354 0 l 1
 236 0 l 1
 299 295 l 1
 184 700 l 1
 325 700 l 1
 394 418 l 1
 586 700 l 1
 705 700 l 1
 414 282 l 1
EndSplineSet
EndChar

StartChar: Z
Encoding: 90 90 59
Width: 646
Flags: W
HStem: 0 100<241 593> 600 100<259 574>
DStem2: 107 100 241 100 0.684135 0.729355<91.6741 684.169>
LayerCount: 2
Fore
SplineSet
86 0 m 1
 107 100 l 1
 574 600 l 1
 238 600 l 1
 259 700 l 1
 731 700 l 1
 710 600 l 1
 241 100 l 1
 614 100 l 1
 593 0 l 1
 86 0 l 1
EndSplineSet
EndChar

StartChar: bracketleft
Encoding: 91 91 60
Width: 387
Flags: W
HStem: -190 86<183 249> 614 86<336 420>
DStem2: 58 -190 164.72 -190 0.207912 0.978148<110.11 844.23>
LayerCount: 2
Fore
SplineSet
58 -190 m 1
 247 700 l 1
 438 700 l 1
 420 614 l 1
 336 614 l 1
 183 -104 l 1
 267 -104 l 1
 249 -190 l 1
 58 -190 l 1
EndSplineSet
EndChar

StartChar: backslash
Encoding: 92 92 61
Width: 415
Flags: W
HStem: 0 21G<246.314 360> 680 20G<189 302.686>
VStem: 189 171
DStem2: 301 700 189 700 0.0839879 -0.996467<0 693.075>
LayerCount: 2
Fore
SplineSet
248 0 m 1
 189 700 l 1
 301 700 l 1
 360 0 l 1
 248 0 l 1
EndSplineSet
EndChar

StartChar: bracketright
Encoding: 93 93 62
Width: 387
Flags: W
HStem: -201 86<74 158> 614 86<247 313>
DStem2: 139.72 -201 246 -201 0.207912 0.978148<87.9213 833.217>
LayerCount: 2
Fore
SplineSet
55 -201 m 1
 74 -115 l 1
 158 -115 l 1
 313 614 l 1
 229 614 l 1
 247 700 l 1
 438 700 l 1
 246 -201 l 1
 55 -201 l 1
EndSplineSet
EndChar

StartChar: asciicircum
Encoding: 94 94 63
Width: 588
Flags: W
HStem: 696 20G<366.863 513.831>
DStem2: 138 285 245 285 0.486503 0.873679<52.0558 404.927> 511 716 419 592 0.140135 -0.990132<109.884 420.301>
LayerCount: 2
Fore
SplineSet
419 592 m 1
 245 285 l 1
 138 285 l 1
 378 716 l 1
 511 716 l 1
 572 285 l 1
 465 285 l 1
 419 592 l 1
EndSplineSet
EndChar

StartChar: underscore
Encoding: 95 95 64
Width: 556
VWidth: 2048
Flags: W
HStem: -199 64<-44 527>
LayerCount: 2
Fore
SplineSet
-57 -199 m 1
 -44 -135 l 1
 540 -135 l 1
 527 -199 l 1
 -57 -199 l 1
EndSplineSet
EndChar

StartChar: grave
Encoding: 96 96 65
Width: 372
Flags: W
HStem: 592 206
VStem: 208 247
LayerCount: 2
Fore
SplineSet
414 592 m 1
 208 679 l 1
 260 798 l 1
 455 681 l 1
 414 592 l 1
EndSplineSet
EndChar

StartChar: a
Encoding: 97 97 66
Width: 536
Flags: W
HStem: -5 86<195.974 333.473 500.253 522> 440 86<284.457 420.654>
VStem: 71 114<59.5 177.107> 434 114<323.812 427.139>
DStem2: 355.663 -5 463.329 -5 0.207912 0.978148<157.9 248.571 329.223 390.458>
LayerCount: 2
Fore
SplineSet
76 130 m 0
 115 315 346 311 426 324 c 1
 430 345 l 2
 433 357 434 368 434 378 c 0
 434 419 412 440 361 440 c 0
 315 440 264 422 242 368 c 1
 144 368 l 1
 184 487 284 526 394 526 c 0
 509 526 548 484 548 418 c 0
 548 403 546 386 542 369 c 2
 495 144 l 2
 494 138 493 132 493 127 c 0
 493 83 537 81 540 81 c 1
 522 -5 l 1
 504 -5 l 2
 423 -5 410 23 400 69 c 1
 351 1 285 -5 226 -5 c 2
 186 -5 l 2
 116 -5 71 27 71 92 c 0
 71 104 73 116 76 130 c 0
408 238 m 1
 346 231 185 227 185 133 c 0
 185 99 215 81 261 81 c 0
 321 81 382 120 402 213 c 1
 408 238 l 1
EndSplineSet
EndChar

StartChar: b
Encoding: 98 98 67
Width: 541
Flags: W
HStem: -5 86<226.08 349.802> 440 86<311.699 421.255> 680 20G<207.743 319>
VStem: 459 112<214.838 399.227>
DStem2: 61.9372 -5 168.937 -5 0.207912 0.978148<27.3583 67.1693 191.729 436.169 503.758 720.794>
LayerCount: 2
Fore
SplineSet
571 349 m 0
 571 201 485 -5 309 -5 c 0
 244 -5 191 6 178 39 c 1
 170 0 l 1
 63 0 l 1
 212 700 l 1
 319 700 l 1
 269 466 l 1
 301 515 364 526 415 526 c 0
 529 526 571 447 571 349 c 0
285 81 m 0
 377 81 459 201 459 310 c 0
 459 373 436 440 365 440 c 0
 284 440 247 363 232 294 c 2
 216 216 l 2
 211 195 209 175 209 159 c 0
 209 108 232 81 285 81 c 0
EndSplineSet
EndChar

StartChar: c
Encoding: 99 99 68
Width: 530
Flags: W
HStem: -5 86<236.523 357.569> 440 86<304.442 431.458>
VStem: 91 112<114.767 300.655> 457 102<349 414.599>
LayerCount: 2
Fore
SplineSet
375 440 m 0
 262 440 203 307 203 203 c 0
 203 141 224 81 294 81 c 0
 350 81 402 131 421 180 c 1
 525 178 l 1
 484 68 397 -5 268 -5 c 0
 152 -5 91 67 91 177 c 0
 91 327 194 526 389 526 c 0
 504 526 559 460 559 364 c 0
 559 359 558 354 558 349 c 1
 456 349 l 1
 456 352 457 355 457 358 c 0
 457 402 429 440 375 440 c 0
EndSplineSet
EndChar

StartChar: d
Encoding: 100 100 69
Width: 530
Flags: W
HStem: -5 86<188.906 352.196> 440 86<310.078 420.577> 680 20G<521.732 633>
VStem: 92 113<120.913 294.723>
DStem2: 375.937 -5 482.937 -5 0.207912 0.978148<27.3583 52.1856 137.872 338.774 476.413 720.794>
LayerCount: 2
Fore
SplineSet
92 170 m 0
 92 316 194 526 345 526 c 0
 418 526 446 516 475 461 c 1
 526 700 l 1
 633 700 l 1
 484 0 l 1
 377 0 l 1
 387 46 l 1
 348 0 308 -5 229 -5 c 0
 137 -5 92 71 92 170 c 0
378 440 m 0
 280 440 205 312 205 212 c 0
 205 149 229 81 294 81 c 0
 377 81 418 192 424 221 c 2
 441 301 l 2
 441 303 442 313 442 328 c 0
 442 369 434 440 378 440 c 0
EndSplineSet
EndChar

StartChar: e
Encoding: 101 101 70
Width: 530
Flags: W
HStem: -5 86<232.871 364.698> 249 86<237 444.677> 440 86<290.06 429.353>
VStem: 92 111<111.557 247.884> 445 104<335.854 424.227>
LayerCount: 2
Fore
SplineSet
92 192 m 0
 92 312 163 526 368 526 c 0
 514 526 549 457 549 376 c 0
 549 334 540 290 531 249 c 1
 212 249 l 1
 206 212 l 2
 204 201 203 190 203 180 c 0
 203 122 232 81 296 81 c 0
 342 81 385 104 407 157 c 1
 510 157 l 1
 484 111 424 -5 270 -5 c 0
 155 -5 92 77 92 192 c 0
370 440 m 0
 316 440 263 424 237 335 c 1
 442 335 l 1
 444 346 445 357 445 366 c 0
 445 422 415 440 370 440 c 0
EndSplineSet
EndChar

StartChar: f
Encoding: 102 102 71
Width: 294
Flags: W
HStem: 0 21G<86 197.23> 435 86<139 178 304 374> 628 86<334.437 427>
DStem2: 86 0 193 0 0.207912 0.978148<22.2465 444.622 554.94 655.368>
LayerCount: 2
Fore
SplineSet
388 628 m 0
 330 628 317 586 310 552 c 2
 304 521 l 1
 393 521 l 1
 374 435 l 1
 285 435 l 1
 193 0 l 1
 86 0 l 1
 178 435 l 1
 120 435 l 1
 139 521 l 1
 197 521 l 1
 206 566 l 2
 225 660 281 714 383 714 c 0
 394 714 445 710 445 710 c 1
 427 627 l 1
 427 627 398 628 388 628 c 0
EndSplineSet
EndChar

StartChar: g
Encoding: 103 103 72
Width: 525
Flags: W
HStem: -231 86<141.538 293.943> -5 86<206.673 320.759> 440 86<275.676 394.023>
VStem: 11 108<-121.284 -50> 65 109<114.052 294.141>
DStem2: 312.489 -231 420.006 -231 0.207912 0.978148<157.531 286.254 706.569 768.939>
LayerCount: 2
Fore
SplineSet
65 177 m 0xe8
 65 324 177 526 344 526 c 0
 397 526 429 507 460 460 c 1
 473 521 l 1
 580 521 l 1
 491 103 l 2
 453 -76 400 -231 193 -231 c 0
 99 -231 11 -184 11 -85 c 0
 11 -74 12 -62 14 -50 c 1
 121 -50 l 1
 120 -58 119 -65 119 -72 c 0xf0
 119 -123 159 -145 219 -145 c 0
 294 -145 341 -96 355 -31 c 2
 372 49 l 1
 329 19 295 -5 233 -5 c 0
 116 -5 65 76 65 177 c 0xe8
268 81 m 0
 393 81 424 261 424 324 c 0
 424 390 399 440 340 440 c 0
 227 440 174 281 174 194 c 0xe8
 174 126 204 81 268 81 c 0
EndSplineSet
EndChar

StartChar: h
Encoding: 104 104 73
Width: 530
Flags: W
HStem: 0 21G<64 175.226 365 476.266> 440 86<351.088 493.5> 680 20G<208.743 320>
VStem: 446 110<293.219 436.609>
DStem2: 64 0 171 0 0.207912 0.978148<22.2465 407.823 474.132 715.682> 365 0 472 0 0.207912 0.978148<22.2465 405.406>
LayerCount: 2
Fore
SplineSet
365 0 m 1
 436 335 l 2
 441 361 446 382 446 398 c 0
 446 425 435 440 402 440 c 0
 322 440 252 384 227 265 c 2
 171 0 l 1
 64 0 l 1
 213 700 l 1
 320 700 l 1
 265 442 l 1
 267 438 l 1
 307 505 405 526 458 526 c 0
 529 526 556 481 556 420 c 0
 556 401 553 382 549 361 c 2
 472 0 l 1
 365 0 l 1
EndSplineSet
EndChar

StartChar: i
Encoding: 105 105 74
Width: 254
Flags: W
HStem: 0 21G<72 183.261> 501 20G<178.739 290> 595 105<221 305>
VStem: 72 256
DStem2: 72 0 179 0 0.207912 0.978148<22.2465 532.693 630.441 715.682>
LayerCount: 2
Fore
SplineSet
198 595 m 1
 221 700 l 1
 328 700 l 1
 305 595 l 1
 198 595 l 1
72 0 m 1
 183 521 l 1
 290 521 l 1
 179 0 l 1
 72 0 l 1
EndSplineSet
EndChar

StartChar: j
Encoding: 106 106 75
Width: 254
Flags: W
HStem: -231 86<-55.1424 25.4029> 501 20G<178.754 290> 595 105<221 305>
DStem2: 23.3003 -231 130.3 -231 0.207912 0.978148<100.725 768.77 866.519 951.76>
LayerCount: 2
Fore
SplineSet
198 595 m 1
 221 700 l 1
 328 700 l 1
 305 595 l 1
 198 595 l 1
-55 -231 m 0
 -61 -231 -72 -229 -72 -229 c 1
 -53 -143 l 1
 -53 -143 -36 -145 -27 -145 c 0
 21 -145 46 -124 69 -16 c 2
 183 521 l 1
 290 521 l 1
 176 -16 l 2
 139 -189 107 -231 -55 -231 c 0
EndSplineSet
EndChar

StartChar: k
Encoding: 107 107 76
Width: 548
Flags: W
HStem: 0 21G<74 185.298 392.521 517> 501 20G<478.611 614> 680 20G<218.743 330>
DStem2: 74 0 181 0 0.207912 0.978148<22.2465 146.008 292.121 715.682> 237 264 339 259 0.713886 0.700262<0 69.315 208.656 367.005> 441 354 339 259 0.209906 -0.977722<71.4731 336.878>
LayerCount: 2
Fore
SplineSet
397 0 m 1
 339 259 l 1
 207 121 l 1
 181 0 l 1
 74 0 l 1
 223 700 l 1
 330 700 l 1
 237 264 l 1
 499 521 l 1
 614 521 l 1
 441 354 l 1
 517 0 l 1
 397 0 l 1
EndSplineSet
EndChar

StartChar: l
Encoding: 108 108 77
Width: 254
Flags: W
HStem: 0 21G<72 183.257> 680 20G<216.743 328>
VStem: 72 256
DStem2: 72 0 179 0 0.207912 0.978148<22.2465 715.682>
LayerCount: 2
Fore
SplineSet
72 0 m 1
 221 700 l 1
 328 700 l 1
 179 0 l 1
 72 0 l 1
EndSplineSet
EndChar

StartChar: m
Encoding: 109 109 78
Width: 804
Flags: W
HStem: 0 21G<66 177.235 348 459.272 630 741.247> 440 86<324.605 445.125 591.101 700.059>
VStem: 710 111<296.867 430.117>
DStem2: 66 0 173 0 0.207912 0.978148<22.2465 416.695 477.005 532.693> 348 0 455 0 0.207912 0.978148<22.2465 391.674> 630 0 737 0 0.207912 0.978148<22.2465 394.808>
LayerCount: 2
Fore
SplineSet
630 0 m 1
 706 359 l 2
 708 369 710 379 710 387 c 0
 710 423 689 440 643 440 c 0
 598 440 536 379 521 309 c 2
 455 0 l 1
 348 0 l 1
 414 309 l 2
 420 339 425 365 425 385 c 0
 425 421 411 440 367 440 c 0
 306 440 251 370 227 255 c 2
 173 0 l 1
 66 0 l 1
 177 521 l 1
 278 521 l 1
 262 446 l 1
 315 518 366 526 425 526 c 0
 472 526 512 475 514 435 c 1
 576 518 637 526 689 526 c 0
 792 526 821 474 821 416 c 0
 821 401 819 387 816 372 c 2
 737 0 l 1
 630 0 l 1
EndSplineSet
EndChar

StartChar: n
Encoding: 110 110 79
Width: 530
Flags: W
HStem: 0 21G<67 178.26 356 467.248> 440 81<328.312 422.167>
VStem: 431 115<290.039 431.684>
DStem2: 67 0 174 0 0.207912 0.978148<22.2465 415.69 474.694 532.693> 356 0 463 0 0.207912 0.978148<22.2465 386.368>
LayerCount: 2
Fore
SplineSet
356 0 m 1
 421 308 l 2
 427 335 431 360 431 380 c 0
 431 417 418 440 376 440 c 0
 328 440 258 395 233 277 c 2
 174 0 l 1
 67 0 l 1
 178 521 l 1
 283 521 l 1
 266 443 l 1
 319 504 364 526 413 526 c 0
 505 526 546 502 546 424 c 0
 546 401 542 373 535 339 c 2
 463 0 l 1
 356 0 l 1
EndSplineSet
EndChar

StartChar: o
Encoding: 111 111 80
Width: 536
Flags: W
HStem: -5 86<229.404 347.962> 440 86<300.069 421.563>
VStem: 87 109<114.05 307.763> 451 109<215.083 408.779>
LayerCount: 2
Fore
SplineSet
560 335 m 0
 560 179 448 -5 267 -5 c 0
 150 -5 87 74 87 187 c 0
 87 343 199 526 380 526 c 0
 497 526 560 448 560 335 c 0
285 81 m 0
 385 81 451 214 451 325 c 0
 451 381 434 440 362 440 c 0
 267 440 196 310 196 201 c 0
 196 141 216 81 285 81 c 0
EndSplineSet
EndChar

StartChar: p
Encoding: 112 112 81
Width: 536
Flags: W
HStem: -199 21G<12 123.219> -5 86<230.061 339.959> 440 86<324.183 468.598>
VStem: 449 111<215.246 399.49>
DStem2: 12 -199 119 -199 0.207912 0.978148<22.2465 264.463 410.302 627.395 683.592 736.077>
LayerCount: 2
Fore
SplineSet
560 347 m 0
 560 235 501 -5 267 -5 c 0
 233 -5 188 -1 169 38 c 1
 119 -199 l 1
 12 -199 l 1
 165 521 l 1
 272 521 l 1
 256 448 l 1
 304 508 362 526 425 526 c 0
 523 526 560 442 560 347 c 0
282 81 m 0
 363 81 449 204 449 310 c 0
 449 371 426 440 362 440 c 0
 310 440 245 395 225 299 c 2
 209 225 l 2
 205 208 204 193 204 179 c 0
 204 115 238 81 282 81 c 0
EndSplineSet
EndChar

StartChar: q
Encoding: 113 113 82
Width: 530
Flags: W
HStem: -199 21G<332 443.25> -5 86<214.178 339.226> 440 86<298.171 419.479>
VStem: 81 106<108.777 300.806>
DStem2: 332 -199 439 -199 0.207912 0.978148<22.2465 250.458 345.996 555.871 677.827 736.077>
LayerCount: 2
Fore
SplineSet
81 181 m 0
 81 337 187 526 351 526 c 0
 414 526 455 515 473 464 c 1
 485 521 l 1
 592 521 l 1
 439 -199 l 1
 332 -199 l 1
 384 46 l 1
 340 -3 297 -5 255 -5 c 0
 119 -5 81 90 81 181 c 0
366 440 m 0
 259 440 187 301 187 185 c 0
 187 123 211 81 277 81 c 0
 348 81 409 164 422 225 c 2
 440 312 l 2
 442 323 444 335 444 346 c 0
 444 393 423 440 366 440 c 0
EndSplineSet
EndChar

StartChar: r
Encoding: 114 114 83
Width: 346
Flags: W
HStem: 0 21G<49 160.215> 426 95<304.298 410>
DStem2: 49 0 156 0 0.207912 0.978148<22.2465 399.858 487.471 532.693>
LayerCount: 2
Fore
SplineSet
253 455 m 1
 292 498 342 526 376 526 c 2
 431 526 l 1
 410 426 l 1
 349 426 246 427 211 261 c 2
 156 0 l 1
 49 0 l 1
 160 521 l 1
 267 521 l 1
 253 455 l 1
EndSplineSet
EndChar

StartChar: s
Encoding: 115 115 84
Width: 482
Flags: W
HStem: -5 86<192.491 352.57> 440 86<260.17 391.279>
VStem: 65 109<100.391 185> 124 110<346.38 415.427> 381 112<113.002 192.431> 404 109<349 426.865>
DStem2: 280 334 216 252 0.932835 -0.360303<-55.2983 153.949>
LayerCount: 2
Fore
SplineSet
216 252 m 0xe8
 166 274 124 304 124 356 c 0
 124 424 185 526 350 526 c 0
 465 526 513 485 513 400 c 0
 513 384 511 367 508 349 c 1
 401 349 l 1
 403 360 404 370 404 379 c 0
 404 422 380 440 324 440 c 0
 269 440 234 403 234 378 c 0xd4
 234 358 253 345 280 334 c 0
 311 322 352 312 391 297 c 0
 445 276 493 246 493 187 c 0
 493 123 428 -5 264 -5 c 0
 147 -5 65 15 65 125 c 0
 65 143 67 162 71 185 c 1
 178 185 l 1
 175 172 174 161 174 151 c 0
 174 91 221 81 285 81 c 0
 363 81 381 134 381 157 c 0
 381 178 363 193 336 206 c 0
 302 222 257 234 216 252 c 0xe8
EndSplineSet
EndChar

StartChar: t
Encoding: 116 116 85
Width: 372
Flags: W
HStem: -5 86<202.506 326.971> 435 86<134 197 323 414> 680 20G<249.754 361>
VStem: 128 115<53.5 209.945>
DStem2: 104.141 -5 210.551 -5 0.207912 0.978148<161.703 449.691 560.009 720.752>
LayerCount: 2
Fore
SplineSet
326 2 m 1
 300 0 280 -5 253 -5 c 0
 156 -5 128 26 128 81 c 0
 128 103 133 129 139 159 c 2
 197 435 l 1
 115 435 l 1
 134 521 l 1
 216 521 l 1
 254 700 l 1
 361 700 l 1
 323 521 l 1
 433 521 l 1
 414 435 l 1
 304 435 l 1
 252 190 l 2
 247 168 243 147 243 130 c 0
 243 100 256 81 303 81 c 0
 315 81 320 82 344 84 c 1
 326 2 l 1
EndSplineSet
EndChar

StartChar: u
Encoding: 117 117 86
Width: 530
Flags: W
HStem: -5 86<170.695 306.368> 501 20G<178.71 290 457.71 569>
VStem: 99 114<86.83 231.375>
DStem2: 70.5515 -5 177.551 -5 0.207912 0.978148<169.249 537.885> 349.937 -5 456.937 -5 0.207912 0.978148<27.3583 75.7226 138.353 537.805>
LayerCount: 2
Fore
SplineSet
351 0 m 1
 366 69 l 1
 312 6 269 -5 209 -5 c 0
 122 -5 99 38 99 93 c 0
 99 123 105 158 112 190 c 2
 183 521 l 1
 290 521 l 1
 219 190 l 2
 215 171 213 153 213 137 c 0
 213 105 223 81 257 81 c 0
 334 81 385 164 394 204 c 2
 462 521 l 1
 569 521 l 1
 458 0 l 1
 351 0 l 1
EndSplineSet
EndChar

StartChar: v
Encoding: 118 118 87
Width: 469
Flags: W
HStem: 0 21G<183.234 306.326> 501 20G<139 255.709 444.313 565>
DStem2: 254 521 139 521 0.0879496 -0.996125<0 352.278> 284 170 296 0 0.458773 0.888553<0 389.874>
LayerCount: 2
Fore
SplineSet
296 0 m 1
 185 0 l 1
 139 521 l 1
 254 521 l 1
 284 170 l 1
 454 521 l 1
 565 521 l 1
 296 0 l 1
EndSplineSet
EndChar

StartChar: w
Encoding: 119 119 88
Width: 726
Flags: W
HStem: 0 21G<165.848 284.877 457.572 568.635> 501 20G<137 252.39 415.148 534.616 702.919 810>
VStem: 137 115<399.433 521> 450 84<293.818 374> 458 87<164 327.25>
DStem2: 266 164 276 0 0.405685 0.914013<0 263.343> 549 162 559 0 0.434024 0.900901<0 394.169>
LayerCount: 2
Fore
SplineSet
559 0 m 1xe8
 458 0 l 1xe8
 450 374 l 1
 442 374 l 1
 276 0 l 1
 167 0 l 1
 137 521 l 1
 252 521 l 1
 259 162 l 1
 266 164 l 1
 424 521 l 1
 534 521 l 1xf0
 545 164 l 1
 549 162 l 1
 712 521 l 1
 810 521 l 1
 559 0 l 1xe8
EndSplineSet
EndChar

StartChar: x
Encoding: 120 120 89
Width: 530
Flags: W
HStem: 0 21G<49 177.647 346.176 477> 501 20G<176 306.809 443.255 572>
DStem2: 49 0 162 0 0.618421 0.785847<69.8816 285.726 483.53 662.979> 300 521 176 521 0.321675 -0.94685<0 148.946 330.736 510.358>
LayerCount: 2
Fore
SplineSet
162 0 m 1
 49 0 l 1
 261 270 l 1
 176 521 l 1
 300 521 l 1
 348 380 l 1
 459 521 l 1
 572 521 l 1
 382 280 l 1
 477 0 l 1
 353 0 l 1
 295 170 l 1
 162 0 l 1
EndSplineSet
EndChar

StartChar: y
Encoding: 121 121 90
Width: 470
Flags: W
HStem: 501 20G<149 265.829 454.97 560>
DStem2: 264 521 149 521 0.0955304 -0.995427<0 340.411> 295 182 265 -66 0.449039 0.893512<0 379.237>
LayerCount: 2
Fore
SplineSet
265 -66 m 1
 222 -149 154 -221 61 -227 c 2
 -6 -231 l 1
 17 -129 l 1
 30 -130 40 -131 51 -131 c 0
 112 -131 160 -89 199 0 c 1
 149 521 l 1
 264 521 l 1
 295 182 l 1
 465 521 l 1
 560 521 l 1
 265 -66 l 1
EndSplineSet
EndChar

StartChar: z
Encoding: 122 122 91
Width: 412
Flags: W
HStem: 0 86<148 379> 435 86<152 353>
DStem2: 40 78 148 86 0.660438 0.75088<77.3344 474.781>
LayerCount: 2
Fore
SplineSet
23 0 m 1
 40 78 l 1
 353 435 l 1
 133 435 l 1
 152 521 l 1
 479 521 l 1
 462 443 l 1
 148 86 l 1
 397 86 l 1
 379 0 l 1
 23 0 l 1
EndSplineSet
EndChar

StartChar: braceleft
Encoding: 123 123 92
Width: 402
Flags: W
HStem: -182 86<249.479 296> 222 86<132 168.249> 616 86<391.447 466>
VStem: 130 115<-94 -36.2292> 180 108<58.6406 210.374>
DStem2: 108.556 -182 215.416 -182 0.207912 0.978148<155.008 354.928 524.951 831.158>
LayerCount: 2
Fore
SplineSet
202 -182 m 2xf0
 177 -182 130 -154 130 -94 c 0xf0
 130 -86 131 -77 133 -67 c 2
 178 144 l 2
 180 152 180 159 180 166 c 0
 180 211 143 222 114 222 c 1
 132 308 l 1
 165 308 216 322 227 376 c 2
 272 587 l 2
 289 665 362 702 390 702 c 2
 484 702 l 1
 466 616 l 1
 449 616 l 2
 386 616 376 572 370 544 c 2
 335 379 l 2
 322 319 265 277 218 273 c 1
 214 254 l 1
 252 251 288 228 288 174 c 0xe8
 288 164 287 154 284 142 c 2
 249 -24 l 2
 247 -33 245 -43 245 -53 c 0
 245 -75 255 -96 298 -96 c 2
 315 -96 l 1
 296 -182 l 1
 202 -182 l 2xf0
EndSplineSet
EndChar

StartChar: bar
Encoding: 124 124 93
Width: 294
Flags: W
HStem: -196 21G<62 152.264> 694 20G<251.736 342>
VStem: 62 280
DStem2: 62 -196 148 -196 0.207912 0.978148<17.8804 930.449>
LayerCount: 2
Fore
SplineSet
62 -196 m 1
 256 714 l 1
 342 714 l 1
 148 -196 l 1
 62 -196 l 1
EndSplineSet
EndChar

StartChar: braceright
Encoding: 125 125 94
Width: 402
Flags: W
HStem: -185 86<46 119.713> 219 86<342.489 382> 613 86<216 262.602>
VStem: 222 110<316.751 451.062> 267 115<495.242 641>
DStem2: 108.416 -185 215.769 -185 0.207912 0.978148<94.0492 418.413 576.871 771.013>
LayerCount: 2
Fore
SplineSet
285 141 m 2xe8
 240 -71 l 2
 223 -149 150 -185 123 -185 c 2
 28 -185 l 1
 46 -99 l 1
 65 -99 l 2
 126 -99 136 -53 142 -27 c 2
 181 156 l 2
 197 233 247 247 295 250 c 1
 300 271 l 1
 260 275 222 293 222 338 c 0xf0
 222 344 222 352 224 359 c 2
 263 541 l 2
 265 549 267 560 267 570 c 0
 267 592 257 613 216 613 c 2
 197 613 l 1
 216 699 l 1
 311 699 l 2
 335 699 382 671 382 611 c 0xe8
 382 603 381 593 379 584 c 2
 334 373 l 2
 333 367 332 362 332 357 c 0xf0
 332 316 371 305 400 305 c 1
 382 219 l 1
 350 219 298 204 285 141 c 2xe8
EndSplineSet
EndChar

StartChar: asciitilde
Encoding: 126 126 95
Width: 588
Flags: W
HStem: 220 86<432.035 516.037> 339 86<210.521 299.836>
VStem: 82 107<253 310.671> 538 107<331.375 391>
LayerCount: 2
Fore
SplineSet
645 391 m 1
 623 313 584 220 480 220 c 0
 383 220 312 339 245 339 c 0
 210 339 198 294 189 253 c 1
 82 253 l 1
 121 392 185 425 239 425 c 0
 344 425 425 306 483 306 c 0
 514 306 526 342 538 391 c 1
 645 391 l 1
EndSplineSet
EndChar

StartChar: uni0E10.descless
Encoding: 128 63232 96
Width: 613
Flags: MW
HStem: -5 78<334.516 419.241> 306 68<211.762 280.84> 494 78<492.43 678.293> 526 78<314.398 513.933>
VStem: 131 72<232.598 297.203> 215 117<75.4346 163.898> 468 122<211.93 362.121>
DStem2: 404.155 -5 522.392 -5 0.207912 0.978148<81.3605 319.113>
LayerCount: 2
Fore
SplineSet
131 244 m 0xde
 131 306 186 374 269 374 c 0
 332 374 367 333 367 287 c 0
 367 280 366 274 365 267 c 2
 339 144 l 2
 335 126 332 112 332 101 c 0
 332 81 343 73 379 73 c 0
 411 73 424 89 432 126 c 2
 466 286 l 2
 468 294 468 301 468 308 c 0
 468 352 436 396 307 419 c 0
 224 434 161 441 160 441 c 1
 167 472 238 604 406 604 c 0xde
 496 604 544 572 606 572 c 0
 665 572 682 598 682 598 c 1
 703 532 l 1
 700 530 663 494 594 494 c 0xee
 508 494 474 526 399 526 c 0
 326 526 306 498 299 491 c 1
 401 491 505 454 542 425 c 0
 568 404 590 366 590 325 c 0
 590 317 589 310 587 302 c 2
 553 139 l 2
 527 15 457 -5 356 -5 c 0
 248 -5 215 42 215 99 c 0
 215 112 217 127 220 141 c 2
 225 163 l 1
 152 163 131 206 131 244 c 0xde
234 231 m 0
 257 231 282 249 282 277 c 0
 282 293 271 306 250 306 c 0
 222 306 203 281 203 260 c 0
 203 245 212 231 234 231 c 0
EndSplineSet
EndChar

StartChar: ellipsis
Encoding: 133 8230 101
Width: 637
VWidth: 2048
Flags: W
HStem: 0 133<86.4056 172.608 297.953 385.017 509.179 592.732>
VStem: 60 140<28.1885 105.949> 272 138<25.0684 107.375> 483 138<29.0105 107.459>
LayerCount: 2
Fore
SplineSet
200 86 m 0
 200 41 167 0 116 0 c 0
 80 0 60 14 60 45 c 0
 60 77 77 133 144 133 c 0
 182 133 200 117 200 86 c 0
272 43 m 0
 272 77 289 133 354 133 c 0
 392 133 410 117 410 86 c 0
 410 55 395 0 326 0 c 0
 290 0 272 14 272 43 c 0
621 86 m 0
 621 33 578 0 538 0 c 0
 502 0 483 14 483 44 c 0
 483 77 500 133 566 133 c 0
 603 133 621 117 621 86 c 0
EndSplineSet
EndChar

StartChar: uni0E48.low
Encoding: 139 63242 107
Width: 0
Flags: W
HStem: 684 254<-3 61>
VStem: -57 172
DStem2: -57 684 61 684 0.207912 0.978148<24.5336 259.677>
AnchorPoint: "AboveBase" 43 613 mark 0
LayerCount: 2
Fore
SplineSet
-57 684 m 1
 -3 938 l 1
 115 938 l 1
 61 684 l 1
 -57 684 l 1
EndSplineSet
EndChar

StartChar: uni0E49.low
Encoding: 140 63243 108
Width: 0
Flags: W
HStem: 946 58<-190.641 -110.426>
VStem: -270 65<853.394 931.932> -107 74<864.717 942.052>
AnchorPoint: "AboveBase" 43 613 mark 0
LayerCount: 2
Fore
SplineSet
-270 871 m 0
 -270 933 -216 1004 -135 1004 c 0
 -76 1004 -33 974 -33 916 c 0
 -33 848 -88 776 -111 760 c 1
 94 788 213 972 218 976 c 1
 184 814 l 1
 135 772 -3 678 -240 678 c 0
 -262 678 -280 679 -295 681 c 1
 -295 681 -258 699 -227 731 c 0
 -197 762 -188 791 -188 791 c 1
 -222 791 -270 815 -270 871 c 0
-166 850 m 0
 -135 850 -107 876 -107 909 c 0
 -107 931 -122 946 -146 946 c 0
 -177 946 -205 920 -205 887 c 0
 -205 865 -190 850 -166 850 c 0
EndSplineSet
EndChar

StartChar: uni0E4A.low
Encoding: 141 63244 109
Width: 0
Flags: W
HStem: 677 40<-251.231 -183.202> 797 41<-228.962 -174.858> 797 32<-228.983 -189.028> 898 77<-209.143 -108.962 -52.8635 43>
VStem: -315 62<718.704 788.527> -173 46<725.897 795.767> 9 88<807.933 894.214> 9 43<778.504 804.031>
AnchorPoint: "AboveBase" 43 613 mark 0
LayerCount: 2
Fore
SplineSet
-100 682 m 1xdd
 -52 705 9 785 9 854 c 0
 9 880 -2 898 -30 898 c 0
 -54 898 -95 872 -101 868 c 1
 -105 872 -127 901 -164 901 c 0
 -205 901 -224 859 -227 845 c 0
 -229 837 -228 832 -229 829 c 1xbe
 -228 829 -210 838 -188 838 c 0
 -152 838 -127 815 -127 778 c 0
 -127 729 -169 677 -230 677 c 0
 -266 677 -315 699 -315 771 c 0
 -315 840 -265 975 -157 975 c 0
 -103 975 -86 938 -84 933 c 1
 -79 937 -30 975 18 975 c 0
 68 975 97 939 97 889 c 0xde
 97 824 52 772 52 771 c 1
 136 809 184 910 196 966 c 1
 280 920 l 1
 280 920 227 794 108 734 c 0
 31 695 -65 682 -100 682 c 1xdd
-205 797 m 0xdc
 -234 797 -253 773 -253 748 c 0
 -253 732 -244 717 -222 717 c 0
 -193 717 -173 741 -173 766 c 0
 -173 782 -183 797 -205 797 c 0xdc
EndSplineSet
EndChar

StartChar: uni0E4B.low
Encoding: 142 63245 110
Width: 0
Flags: W
HStem: 808 98<-150 -32 107 226>
DStem2: -59 682 59 682 0.207912 0.978148<24.5336 128.86 253.618 358.923>
AnchorPoint: "AboveBase" 147 613 mark 0
LayerCount: 2
Fore
SplineSet
16 1033 m 1
 134 1033 l 1
 107 906 l 1
 247 906 l 1
 226 808 l 1
 86 808 l 1
 59 682 l 1
 -59 682 l 1
 -32 808 l 1
 -171 808 l 1
 -150 906 l 1
 -11 906 l 1
 16 1033 l 1
EndSplineSet
EndChar

StartChar: uni0E4C.low
Encoding: 143 63246 111
Width: 0
Flags: W
HStem: 668 48<-71.9523 9.73367> 814 47<-13 20.4886>
VStem: -141 66<719.064 799.298> 25 50<731.363 810.559> 180 95<1004.39 1056>
AnchorPoint: "AboveBase" 43 613 mark 0
LayerCount: 2
Fore
SplineSet
75 785 m 0
 75 709 8 668 -51 668 c 0
 -109 668 -141 707 -141 760 c 0
 -141 815 -108 877 -52 910 c 0
 49 970 153 930 180 1056 c 1
 275 1056 l 1
 274 1052 254 986 218 953 c 0
 182 921 140 901 60 895 c 0
 -1 891 -12 861 -13 861 c 1
 -9 861 75 861 75 785 c 0
-14 814 m 0
 -53 814 -75 781 -75 753 c 0
 -75 733 -63 716 -35 716 c 0
 2 716 25 749 25 777 c 0
 25 797 13 814 -14 814 c 0
EndSplineSet
EndChar

StartChar: uni0E0D.descless
Encoding: 144 63247 112
Width: 882
Flags: W
HStem: -5 68<219.964 280.877> 0 78<424 463 581 698.088> 524 78<341.936 511.29> 575 20G<800.776 923>
VStem: 131 88<63.4436 134.364> 290 72<71.3143 140.551> 536 121<383.053 499.882>
DStem2: 445.358 -5 563.358 -5 0.207912 0.978148<109.388 456.459> 678.131 -5 796.305 -5 0.207912 0.978148<84.868 613.266>
LayerCount: 2
Fore
SplineSet
362 133 m 0x6e
 362 47 284 -5 226 -5 c 0
 166 -5 131 28 131 87 c 0
 131 99 133 112 136 127 c 2
 168 279 l 2
 188 371 252 392 268 400 c 1
 235 444 157 483 152 484 c 1
 178 512 290 602 458 602 c 0xae
 607 602 657 535 657 458 c 0
 657 444 655 429 652 414 c 2
 581 78 l 1
 656 78 l 2
 688 78 700 98 703 112 c 2
 805 595 l 1
 923 595 l 1x5e
 825 130 l 2
 810 58 756 0 699 0 c 2
 407 0 l 1
 424 78 l 1
 463 78 l 1
 531 402 l 2
 534 417 536 430 536 443 c 0
 536 494 508 524 438 524 c 0
 363 524 312 486 312 486 c 1
 358 458 383 425 399 405 c 1
 377 395 304 364 286 279 c 2
 272 210 l 1
 289 210 362 205 362 133 c 0x6e
245 63 m 0
 273 63 290 90 290 113 c 0
 290 129 282 142 262 142 c 0
 236 142 219 113 219 91 c 0
 219 75 227 63 245 63 c 0
EndSplineSet
EndChar

StartChar: quoteleft
Encoding: 145 8216 113
Width: 295
Flags: W
HStem: 575 20G<266 284> 684 39<305.116 341>
VStem: 170 156<484.053 582.41>
LayerCount: 2
Fore
SplineSet
326 541 m 0
 326 493 287 450 230 450 c 0
 205 450 170 462 170 513 c 0
 170 586 237 706 350 723 c 1
 341 684 l 1
 306 677 258 630 250 593 c 1
 256 595 263 595 269 595 c 0
 299 595 326 577 326 541 c 0
EndSplineSet
EndChar

StartChar: quoteright
Encoding: 146 8217 114
Width: 280
Flags: W
HStem: 460 40<190 227.23>
VStem: 207 159<598.903 700.384>
LayerCount: 2
Fore
SplineSet
207 641 m 0
 207 669 226 733 303 733 c 0
 330 733 366 723 366 673 c 0
 366 615 312 485 182 460 c 1
 190 500 l 1
 225 507 275 553 283 590 c 1
 276 588 270 588 264 588 c 0
 235 588 207 605 207 641 c 0
EndSplineSet
EndChar

StartChar: quotedblleft
Encoding: 147 8220 115
Width: 487
Flags: W
HStem: 687 53<294.815 354 513.286 568>
VStem: 172 156<482.415 578.253>
LayerCount: 2
Fore
SplineSet
328 537 m 0
 328 492 287 448 234 448 c 0
 187 448 172 478 172 513 c 0
 172 575 237 734 365 740 c 1
 354 687 l 1
 344 687 304 685 286 655 c 0
 260 612 266 599 265 595 c 1
 301 595 328 572 328 537 c 0
541 538 m 0
 541 494 506 448 449 448 c 0
 401 448 386 478 386 513 c 0
 386 576 450 734 579 740 c 1
 568 687 l 1
 482 687 480 595 480 595 c 1
 515 595 541 574 541 538 c 0
EndSplineSet
EndChar

StartChar: quotedblright
Encoding: 148 8221 116
Width: 493
Flags: W
HStem: 449 54<187 244.891 401 459.399>
LayerCount: 2
Fore
SplineSet
427 653 m 0
 427 696 465 742 521 742 c 0
 568 742 584 712 584 677 c 0
 584 614 517 456 389 449 c 1
 401 503 l 1
 490 503 489 595 489 595 c 1
 453 595 427 618 427 653 c 0
215 653 m 0
 215 704 257 742 307 742 c 0
 354 742 369 712 369 678 c 0
 369 630 315 457 175 449 c 1
 187 503 l 1
 275 503 275 595 275 595 c 1
 237 595 215 618 215 653 c 0
EndSplineSet
EndChar

StartChar: bullet
Encoding: 149 8226 117
Width: 531
Flags: W
HStem: 100 337<284.817 391.194>
VStem: 166 345<219.857 314.501>
LayerCount: 2
Fore
SplineSet
166 229 m 0
 166 323 244 437 374 437 c 0
 469 437 511 378 511 308 c 0
 511 208 428 100 302 100 c 0
 207 100 166 160 166 229 c 0
EndSplineSet
EndChar

StartChar: endash
Encoding: 150 8211 118
Width: 665
Flags: W
HStem: 245 100<121 661>
LayerCount: 2
Fore
SplineSet
661 245 m 1
 100 245 l 1
 121 345 l 1
 682 345 l 1
 661 245 l 1
EndSplineSet
EndChar

StartChar: emdash
Encoding: 151 8212 119
Width: 1056
Flags: W
HStem: 245 100<122 1059>
LayerCount: 2
Fore
SplineSet
1059 245 m 1
 101 245 l 1
 122 345 l 1
 1080 345 l 1
 1059 245 l 1
EndSplineSet
EndChar

StartChar: uni0E01
Encoding: 161 3585 129
Width: 674
Flags: W
HStem: 0 21G<116 238.275 474 596.234> 524 78<352.569 533.173>
VStem: 565 118<379.385 495.824>
DStem2: 116 0 234 0 0.207912 0.978148<24.5336 364.333> 474 0 592 0 0.207912 0.978148<24.5336 448.846>
LayerCount: 2
Fore
SplineSet
274 397 m 1
 242 441 166 476 159 478 c 1
 183 506 304 602 464 602 c 0
 622 602 683 529 683 448 c 0
 683 436 682 423 679 411 c 2
 592 0 l 1
 474 0 l 1
 561 409 l 2
 563 420 565 430 565 440 c 0
 565 496 524 524 450 524 c 0
 370 524 320 483 320 483 c 1
 366 455 390 422 406 402 c 1
 384 392 311 361 293 276 c 2
 234 0 l 1
 116 0 l 1
 175 276 l 2
 194 364 258 389 274 397 c 1
EndSplineSet
EndChar

StartChar: uni0E02
Encoding: 162 3586 130
Width: 659
Flags: W
HStem: 0 78<137 207 325 472.255> 335 68<196.474 259.293> 524 78<312.81 370.182> 575 20G<583.783 706>
VStem: 121 74<404.212 472.314> 268 70<409.888 480.278> 387 98<395.52 510.206>
DStem2: 190.421 0 308.421 0 0.207912 0.978148<104.276 296.148> 462.305 0 579.73 0 0.207912 0.978148<84.466 608.131>
LayerCount: 2
Fore
SplineSet
121 419 m 0xee
 121 475 172 602 335 602 c 0xee
 451 602 485 534 485 477 c 0
 485 367 373 305 357 230 c 2
 325 78 l 1
 427 78 l 2
 458 78 482 94 491 135 c 2
 588 595 l 1
 706 595 l 1xde
 608 133 l 2
 595 73 553 0 449 0 c 2
 120 0 l 1
 137 78 l 1
 207 78 l 1
 238 224 l 2
 256 310 387 354 387 457 c 0
 387 487 374 524 324 524 c 0
 317 524 311 523 307 523 c 1
 328 512 338 486 338 459 c 0
 338 402 288 335 212 335 c 0
 158 335 121 366 121 419 c 0xee
240 481 m 0
 213 481 195 454 195 432 c 0
 195 416 204 403 225 403 c 0
 251 403 268 428 268 452 c 0
 268 467 260 481 240 481 c 0
EndSplineSet
EndChar

StartChar: uni0E03
Encoding: 163 3587 131
Width: 669
Flags: W
HStem: 0 78<149 221 339 477.714> 275 68<157.613 214.902> 421 68<184 221.85> 524 78<210.658 295.477 382.476 459.5> 575 20G<584.756 707>
VStem: 87 69<343.99 415.233> 223 72<350.102 420.447> 409 100<420.589 523.081>
DStem2: 204.421 0 322.421 0 0.207912 0.978148<104.276 309.749> 462.706 0 581.493 0 0.207912 0.978148<83.3584 608.256>
LayerCount: 2
Fore
SplineSet
87 362 m 0xf7
 87 445 157 602 264 602 c 0
 314 602 341 549 342 549 c 0
 347 547 392 602 435 602 c 0xf7
 484 602 509 550 509 498 c 0
 509 487 508 476 506 465 c 0
 480 342 390 321 369 221 c 2
 339 78 l 1
 426 78 l 2
 460 78 482 92 488 119 c 2
 589 595 l 1
 707 595 l 1xef
 607 120 l 2
 588 29 516 0 432 0 c 2
 132 0 l 1
 149 78 l 1
 221 78 l 1
 252 227 l 2
 270 311 409 398 409 482 c 0
 409 505 400 524 390 524 c 0
 364 524 321 464 320 464 c 0
 319 468 296 524 248 524 c 0
 214 524 203 491 202 487 c 1
 202 487 207 489 217 489 c 0
 264 489 295 459 295 409 c 0
 295 334 235 275 165 275 c 0
 117 275 87 306 87 362 c 0xf7
182 343 m 1
 205 343 223 369 223 392 c 0
 223 408 214 421 196 421 c 0
 172 421 156 395 156 373 c 0
 156 357 164 344 182 343 c 1
EndSplineSet
EndChar

StartChar: uni0E04
Encoding: 164 3588 132
Width: 702
Flags: W
HStem: 0 21G<147 277 502 624.271> 205 68<380.051 447.028> 348 68<386.547 454.949> 524 78<361.668 556.229>
VStem: 134 114<169.438 396.563> 147 120<0 75.0312> 456 71<281.444 346.313> 589 118<312.516 493.6>
DStem2: 502 0 620 0 0.207912 0.978148<24.5336 440.8>
LayerCount: 2
Fore
SplineSet
134 291 m 0xfb
 134 476 272 602 481 602 c 0
 628 602 707 539 707 435 c 0
 707 419 706 402 702 384 c 2
 620 0 l 1
 502 0 l 1
 582 378 l 2
 586 396 589 415 589 433 c 0
 589 483 564 524 462 524 c 0
 313 524 273 425 261 368 c 0
 250 317 248 245 248 203 c 0xfb
 248 183 248 170 249 169 c 1
 250 173 288 302 322 348 c 0
 350 386 381 414 442 416 c 1
 498 416 527 376 527 331 c 0
 527 262 469 205 400 205 c 0
 367 205 347 221 347 221 c 1
 347 221 287 96 267 0 c 1
 147 0 l 1xf7
 151 21 l 2
 156 42 158 62 158 82 c 0
 158 154 134 217 134 291 c 0xfb
410 273 m 0
 437 273 456 298 456 319 c 0
 456 335 446 348 426 348 c 0
 398 348 379 325 379 302 c 0
 379 287 388 273 410 273 c 0
EndSplineSet
EndChar

StartChar: uni0E05
Encoding: 165 3589 133
Width: 698
Flags: W
HStem: 0 21G<136 269 494 616.244> 182 68<366.777 433.61> 325 68<373.862 440.894> 502 100<310.186 350 565 578.63>
VStem: 136 118<0 363> 149 88<169.056 246.957> 442 72<257.072 324.09> 585 120<379.14 494.842>
DStem2: 494 0 612 0 0.207912 0.978148<24.5336 456.578>
LayerCount: 2
Fore
SplineSet
331 195 m 1xf7
 331 195 284 102 254 0 c 1
 136 0 l 1xfb
 141 25 l 2
 146 50 149 73 149 94 c 0
 149 166 124 220 124 292 c 0
 124 500 304 602 373 602 c 1
 455 545 l 1
 565 602 l 1
 610 602 705 573 705 461 c 0
 705 446 703 429 699 410 c 2
 612 0 l 1
 494 0 l 1
 580 405 l 2
 584 422 585 436 585 448 c 0
 585 488 566 503 537 503 c 1
 436 456 l 1
 350 502 l 1
 320 502 269 451 250 363 c 0
 239 312 237 244 237 203 c 0
 237 184 237 170 238 169 c 1
 239 173 276 284 303 320 c 0
 329 354 362 393 431 393 c 0
 464 393 514 376 514 316 c 0
 514 226 435 182 381 182 c 0
 352 182 331 195 331 195 c 1xf7
396 250 m 0
 424 250 442 275 442 296 c 0
 442 311 432 325 412 325 c 0
 385 325 366 300 366 279 c 0
 366 263 376 250 396 250 c 0
EndSplineSet
EndChar

StartChar: uni0E06
Encoding: 166 3590 134
Width: 767
Flags: W
HStem: -5 78<248.746 294.851> 203 78<271.74 319> 274 68<166.862 223.504> 421 68<194.5 231.087> 524 78<221.47 305.496 396.515 471.5> 575 20G<682.789 805>
VStem: 97 69<343.153 414.401> 162 84<76.0153 177.146> 232 72<348.905 420.406> 416 104<430.714 523.963>
DStem2: 274.744 -5 393.107 -5 0.207912 0.978148<79.5339 188.159 287.279 437.063> 560.392 -5 678.02 -5 0.207912 0.978148<137.604 613.212>
LayerCount: 2
Fore
SplineSet
97 359 m 0xbac0
 97 446 168 602 275 602 c 0
 321 602 347 558 353 549 c 1
 363 557 409 602 445 602 c 0xbac0
 498 602 520 542 520 498 c 0
 520 447 481 409 468 348 c 2
 449 258 l 1
 452 256 480 244 511 213 c 0
 564 159 581 130 587 130 c 0
 589 130 590 133 591 139 c 2
 687 595 l 1
 805 595 l 1
 698 89 l 2
 682 16 622 -5 588 -5 c 0
 540 -5 521 34 486 83 c 0
 447 138 429 150 427 155 c 1
 415 98 l 2
 397 11 324 -5 270 -5 c 0
 214 -5 162 29 162 98 c 0
 162 207 257 281 336 281 c 1xd540
 351 351 l 2
 361 397 416 440 416 493 c 0
 416 509 411 524 401 524 c 0
 375 524 335 470 329 464 c 1
 326 470 307 524 259 524 c 0
 228 524 215 497 213 487 c 1
 213 487 218 489 227 489 c 0
 266 489 304 465 304 410 c 0
 304 338 248 274 175 274 c 0
 141 274 97 291 97 359 c 0xbac0
305 203 m 0xd140
 269 203 246 143 246 111 c 0
 246 91 254 73 284 73 c 0
 291 73 292 78 296 95 c 2
 319 201 l 2
 318 201 313 203 305 203 c 0xd140
191 342 m 1xb2c0
 216 342 232 369 232 393 c 0
 232 409 224 421 207 421 c 0
 182 421 166 396 166 372 c 0
 166 356 174 343 191 342 c 1xb2c0
EndSplineSet
EndChar

StartChar: uni0E07
Encoding: 167 3591 135
Width: 510
Flags: MW
HStem: -5 78<242.913 313.694> 388 68<352.226 390.163> 534 68<358.806 428.48>
VStem: 278 72<457.535 524.41>
DStem2: 298.667 -5 417.054 -5 0.207912 0.978148<85.723 402.924>
LayerCount: 2
Fore
SplineSet
278 469 m 0
 278 542 341 602 415 602 c 0
 503 602 522 552 522 508 c 0
 522 493 519 478 517 467 c 2
 450 150 l 2
 424 26 329 -5 262 -5 c 0
 211 -5 158 14 142 72 c 0
 129 121 138 165 120 210 c 0
 108 241 90 234 69 240 c 1
 91 343 l 2
 92 343 100 344 112 344 c 0
 136 344 176 339 197 305 c 0
 238 235 211 73 272 73 c 0
 311 73 321 100 328 133 c 2
 383 389 l 1
 383 389 378 388 371 388 c 0
 315 388 278 419 278 469 c 0
383 456 m 0
 409 456 431 477 431 504 c 0
 431 522 420 534 400 534 c 0
 374 534 350 513 350 486 c 0
 350 468 363 456 383 456 c 0
EndSplineSet
EndChar

StartChar: uni0E08
Encoding: 168 3592 136
Width: 606
Flags: MW
HStem: -5 78<340.461 419.609> 335 68<218.262 285.933> 524 78<268.633 462.795>
VStem: 138 71<261.598 326.203> 221 115<76.972 192.898> 494 121<329.836 495.226>
DStem2: 404.155 -5 522.228 -5 0.207912 0.978148<92.2572 450.423>
LayerCount: 2
Fore
SplineSet
138 273 m 0
 138 335 193 403 276 403 c 0
 339 403 373 362 373 316 c 0
 373 309 372 303 371 296 c 2
 345 173 l 2
 340 152 336 132 336 115 c 0
 336 90 346 73 379 73 c 0
 411 73 424 89 432 126 c 2
 489 393 l 2
 492 409 494 424 494 437 c 0
 494 501 451 524 372 524 c 0
 275 524 214 472 178 448 c 1
 119 490 l 1
 133 522 224 602 395 602 c 0
 533 602 615 550 615 452 c 0
 615 438 613 424 610 408 c 2
 559 168 l 2
 533 44 457 -5 356 -5 c 0
 250 -5 221 58 221 121 c 0
 221 138 223 154 226 170 c 2
 231 192 l 1
 158 192 138 235 138 273 c 0
240 260 m 0
 263 260 288 278 288 306 c 0
 288 322 277 335 256 335 c 0
 228 335 209 310 209 289 c 0
 209 274 218 260 240 260 c 0
EndSplineSet
EndChar

StartChar: uni0E09
Encoding: 169 3593 137
Width: 711
Flags: MW
HStem: -5 116<221.5 337.83> -5 78<550.5 631.079> 317 68<190.11 276.855> 524 78<283.42 502.577>
VStem: 111 72<245.44 311.196> 462 120<41.5 158.969> 535 121<334.828 493.466> 651 78<93.8887 209.572>
DStem2: 444.382 -5 561.469 -5 0.207912 0.978148<115.852 168.592 331.205 452.679>
AnchorPoint: "AboveBase" 690 613 basechar 0
LayerCount: 2
Fore
SplineSet
729 192 m 0xb9
 729 137 697 -5 568 -5 c 0
 533 -5 462 11 462 72 c 0x7d
 462 78 463 85 465 92 c 2
 479 160 l 1
 476 157 441 127 385 59 c 1
 343 10 309 -5 257 -5 c 0
 186 -5 172 30 172 56 c 0
 172 62 172 67 173 72 c 2
 196 177 l 1
 142 177 111 211 111 256 c 0
 111 318 165 385 247 385 c 0
 305 385 337 348 337 299 c 0
 337 291 336 282 334 274 c 2
 302 122 l 2
 300 114 300 111 309 111 c 0
 340 111 399 217 503 272 c 1
 532 407 l 2
 534 419 535 429 535 439 c 0
 535 507 476 524 401 524 c 0
 247 524 199 439 196 434 c 1
 126 473 l 1
 129 486 222 602 423 602 c 0
 564 602 656 553 656 454 c 0xba
 656 442 654 429 651 415 c 2
 626 295 l 1
 679 287 729 267 729 192 c 0xb9
600 73 m 0
 637 73 651 143 651 165 c 0
 651 205 623 217 609 217 c 1
 584 101 l 2
 582 94 582 88 582 84 c 0
 582 75 587 73 600 73 c 0
209 245 m 0
 234 245 249 270 249 291 c 0
 249 305 241 317 223 317 c 0
 198 317 183 292 183 272 c 0
 183 257 191 245 209 245 c 0
EndSplineSet
EndChar

StartChar: uni0E0A
Encoding: 170 3594 138
Width: 656
Flags: W
HStem: 0 78<121 192 310 457.688> 341 68<182.425 246.315> 524 78<298.02 353.681>
VStem: 110 71<410.7 478.202> 255 72<416.684 485.863> 521 115<294.773 408.382>
DStem2: 175.421 0 293.421 0 0.207912 0.978148<104.276 296.213> 448.305 0 565.73 0 0.207912 0.978148<82.8604 362.92>
LayerCount: 2
Fore
SplineSet
110 426 m 0
 110 492 172 602 318 602 c 0
 456 602 472 510 470 487 c 1
 478 491 657 577 724 670 c 1
 728 561 l 1
 726 552 614 479 557 468 c 1
 603 448 636 414 636 351 c 0
 636 336 634 319 630 300 c 2
 594 133 l 2
 582 76 540 0 434 0 c 2
 104 0 l 1
 121 78 l 1
 192 78 l 1
 223 225 l 2
 241 308 371 357 371 460 c 0
 371 491 357 524 305 524 c 2
 292 524 l 1
 298 521 327 510 327 470 c 0
 327 407 267 341 194 341 c 0
 147 341 110 373 110 426 c 0
412 78 m 2
 440 78 467 89 477 135 c 2
 517 325 l 2
 519 336 521 347 521 356 c 0
 521 397 499 421 461 423 c 1
 459 425 l 1
 429 336 357 300 343 233 c 2
 310 78 l 1
 412 78 l 2
227 487 m 0
 200 487 181 460 181 438 c 0
 181 422 190 409 211 409 c 0
 238 409 255 435 255 457 c 0
 255 473 247 487 227 487 c 0
EndSplineSet
EndChar

StartChar: uni0E0B
Encoding: 171 3595 139
Width: 694
Flags: W
HStem: 0 78<164 236 354 505.153> 295 64<175.82 235.375> 432 57<207 242.474> 524 78<226.842 312.677 401.401 474>
VStem: 106 69<360.278 424.355> 243 59<365.707 431.267> 417 95<456.055 523.545> 563 115<292.395 406.75>
DStem2: 219.421 0 337.421 0 0.207912 0.978148<104.276 355.294> 491.305 0 608.73 0 0.207912 0.978148<83.7009 359.779>
LayerCount: 2
Fore
SplineSet
106 382 m 0
 106 474 183 602 281 602 c 0
 329 602 353 556 359 549 c 1
 365 555 413 602 450 602 c 0
 498 602 512 554 512 508 c 0
 512 500 512 492 511 484 c 1
 676 559 739 634 769 668 c 1
 770 558 l 1
 768 549 657 475 600 464 c 1
 646 444 678 411 678 348 c 0
 678 333 676 316 672 297 c 2
 637 133 l 2
 625 78 583 0 477 0 c 2
 147 0 l 1
 164 78 l 1
 236 78 l 1
 278 276 l 2
 299 377 417 385 417 493 c 0
 417 509 414 524 406 524 c 0
 379 524 341 472 335 464 c 1
 333 472 313 524 265 524 c 0
 232 524 222 499 219 487 c 1
 219 487 224 489 233 489 c 0
 266 489 302 466 302 418 c 0
 302 360 256 295 188 295 c 0
 153 295 106 314 106 382 c 0
456 78 m 2
 504 78 515 110 520 135 c 2
 560 323 l 2
 562 334 563 344 563 353 c 0
 563 403 530 423 491 423 c 1
 492 428 l 1
 454 369 412 350 399 291 c 2
 354 78 l 1
 456 78 l 2
200 359 m 0
 226 359 243 382 243 405 c 0
 243 420 235 432 216 432 c 0
 198 432 175 415 175 387 c 0
 175 372 183 359 200 359 c 0
EndSplineSet
EndChar

StartChar: uni0E0C
Encoding: 172 3596 140
Width: 882
Flags: MW
HStem: -5 68<214.161 275.617 451.979 511.397> 524 78<339.443 514.081> 575 20G<797.753 920>
VStem: 284 73<70.6055 141.05> 378 72<63.5602 153.29> 528 73<77.5811 165.499> 535 119<334.656 503.566>
DStem2: 441.774 -5 560.073 -5 0.207912 0.978148<279.159 464.868> 674.566 -5 793.058 -5 0.207912 0.978148<165.619 613.384>
LayerCount: 2
Fore
SplineSet
256 142 m 0x98
 230 142 213 114 213 92 c 0
 213 76 221 63 239 63 c 0
 267 63 284 90 284 113 c 0
 284 129 276 142 256 142 c 0x98
601 153 m 0xbc
 601 82 555 -5 463 -5 c 0
 416 -5 378 30 378 86 c 0
 378 95 380 106 382 116 c 0
 406 227 493 236 493 236 c 1
 531 412 l 2
 534 427 535 439 535 451 c 0
 535 501 505 524 433 524 c 0
 359 524 310 486 310 486 c 1
 356 458 382 425 398 405 c 1
 376 395 301 364 283 279 c 2
 269 210 l 1
 287 210 357 206 357 134 c 0
 357 50 285 -5 223 -5 c 0
 163 -5 128 28 128 87 c 0
 128 99 130 113 133 127 c 2
 165 279 l 2
 185 371 248 392 264 400 c 1
 232 445 155 480 148 481 c 1
 179 515 287 602 456 602 c 0
 604 602 654 535 654 458 c 0xda
 654 444 652 429 649 414 c 2
 613 244 l 1
 630 244 695 214 709 157 c 1
 802 595 l 1
 920 595 l 1
 809 70 l 2
 795 6 743 -5 719 -5 c 0
 657 -5 683 52 646 126 c 0
 626 165 601 173 598 175 c 1
 599 174 601 166 601 153 c 0xbc
501 166 m 0
 471 166 450 132 450 100 c 0
 450 81 457 63 477 63 c 0
 507 63 528 102 528 131 c 0x9c
 528 150 520 166 501 166 c 0
EndSplineSet
EndChar

StartChar: uni0E0D
Encoding: 173 3597 141
Width: 882
Flags: MW
HStem: -288 64<473.893 584.548> -124 57<405.936 471.635> -5 68<219.964 280.877> 0 78<424 463 581 698.088> 524 78<341.936 511.29> 575 20G<800.776 923>
VStem: 290 72<71.3143 140.551> 335 64<-193.03 -130.289> 472 55<-188.302 -124.913> 536 121<383.053 499.882>
DStem2: 385.204 -288 503.204 -288 0.207912 0.978148<398.71 745.782> 620.3 -288 727.3 -288 0.207912 0.978148<134.084 219.803 373.707 902.106>
LayerCount: 2
Fore
SplineSet
362 133 m 0xdac0
 362 47 284 -5 226 -5 c 0
 166 -5 131 28 131 87 c 0
 131 99 133 112 136 127 c 2
 168 279 l 2
 188 371 252 392 268 400 c 1
 235 444 157 483 152 484 c 1
 178 512 290 602 458 602 c 0xeac0
 607 602 657 535 657 458 c 0
 657 444 655 429 652 414 c 2
 581 78 l 1
 656 78 l 2
 688 78 700 98 703 112 c 2
 805 595 l 1
 923 595 l 1xd6c0
 825 130 l 2
 810 58 756 0 699 0 c 2
 407 0 l 1
 424 78 l 1
 463 78 l 1
 531 402 l 2
 534 417 536 430 536 443 c 0
 536 494 508 524 438 524 c 0
 363 524 312 486 312 486 c 1
 358 458 383 425 399 405 c 1xd9c0
 377 395 304 364 286 279 c 2
 272 210 l 1
 289 210 362 205 362 133 c 0xdac0
245 63 m 0
 273 63 290 90 290 113 c 0
 290 129 282 142 262 142 c 0
 236 142 219 113 219 91 c 0
 219 75 227 63 245 63 c 0
527 -136 m 0
 527 -191 485 -224 470 -224 c 1
 471 -224 482 -226 500 -226 c 0
 618 -226 652 -141 666 -73 c 1
 773 -73 l 1
 754 -163 683 -288 487 -288 c 0
 392 -288 335 -248 335 -186 c 0xc1c0
 335 -151 359 -67 457 -67 c 0
 504 -67 527 -98 527 -136 c 0
445 -124 m 0
 410 -124 399 -154 399 -168 c 0
 399 -183 409 -195 428 -195 c 0
 455 -195 472 -170 472 -150 c 0
 472 -136 464 -124 445 -124 c 0
EndSplineSet
Substitution2: "Thai Descender Removal Single Substitution" uni0E0D.descless
EndChar

StartChar: uni0E0E
Encoding: 174 3598 142
Width: 680
Flags: W
HStem: -306 68<85.3835 172.656> -147 68<105.736 206.699> -5 68<132.353 190.158> 137 68<138.297 179> 524 78<372.691 547.753>
VStem: 12 71<-233.578 -168.718> 59 72<63.7326 129.926> 567 118<333.641 503.195>
DStem2: 68.258 -316 186.167 -316 0.207912 0.978148<525.402 690.174> 408.102 -316 526.102 -316 0.207912 0.978148<160.041 781.746>
AnchorPoint: "BelowBase" 527 -309 basechar 0
LayerCount: 2
Fore
SplineSet
12 -220 m 0xfd
 12 -172 49 -79 164 -79 c 0
 206 -79 240 -90 240 -90 c 1
 263 -35 l 1
 349 -35 l 1
 331 -97 311 -124 311 -124 c 1
 349 -148 382 -190 382 -190 c 1
 429 -167 445 -136 447 -133 c 1
 562 409 l 2
 565 424 567 438 567 450 c 0
 567 500 538 524 467 524 c 0
 387 524 338 483 338 483 c 1
 384 455 408 422 424 402 c 1
 402 392 330 361 312 276 c 2
 276 110 l 2
 262 46 218 -5 148 -5 c 0
 94 -5 59 28 59 75 c 0xfb
 59 130 107 205 179 205 c 1
 194 276 l 2
 214 368 278 389 294 397 c 1
 256 445 184 477 177 478 c 1
 203 506 315 602 484 602 c 0
 635 602 685 534 685 456 c 0
 685 441 683 426 680 411 c 2
 565 -133 l 1
 512 -235 355 -316 355 -316 c 1
 323 -261 273 -210 269 -210 c 1
 267 -220 211 -306 109 -306 c 0
 41 -306 12 -267 12 -220 c 0xfd
161 -147 m 0
 117 -147 83 -182 83 -205 c 0xfd
 83 -224 101 -238 125 -238 c 0
 181 -238 207 -162 207 -159 c 1
 205 -157 186 -147 161 -147 c 0
157 63 m 0
 181 63 197 89 197 110 c 0
 197 124 190 137 173 137 c 0
 148 137 131 111 131 90 c 0xfb
 131 75 139 63 157 63 c 0
EndSplineSet
EndChar

StartChar: uni0E0F
Encoding: 175 3599 143
Width: 689
Flags: W
HStem: -301 68<59.6298 113.786> -142 68<72.0242 132.633> -5 68<139.955 199.851> 137 68<146.404 187> 524 78<378.434 555.661>
VStem: -12 71<-231.933 -153.421> 68 71<64.1565 130.938> 575 119<380.471 502.7>
DStem2: 77.3208 -311 195.229 -311 0.207912 0.978148<520.52 685.062> 417.165 -311 535.165 -311 0.207912 0.978148<147.385 777.612>
AnchorPoint: "BelowBase" 536 -309 basechar 0
LayerCount: 2
Fore
SplineSet
68 78 m 0
 68 137 115 205 187 205 c 1
 202 276 l 2
 222 368 286 389 302 397 c 1
 266 443 192 476 185 478 c 1
 211 506 332 602 491 602 c 0
 643 602 694 535 694 457 c 0
 694 442 692 427 689 412 c 2
 573 -133 l 1
 522 -245 391 -311 386 -311 c 1
 327 -193 l 1
 232 -307 l 1
 184 -219 l 1
 183 -222 143 -301 69 -301 c 0
 20 -301 -12 -265 -12 -215 c 0
 -12 -156 33 -74 109 -74 c 0
 139 -74 162 -86 163 -86 c 2
 174 -35 l 1
 255 -35 l 1
 247 -71 258 -36 232 -124 c 1
 254 -175 l 1
 349 -66 l 1
 411 -178 l 1
 424 -173 447 -152 455 -133 c 1
 570 409 l 2
 573 425 575 439 575 451 c 0
 575 503 544 524 471 524 c 0
 394 524 345 483 345 483 c 1
 391 455 415 422 431 402 c 1
 409 392 338 361 320 276 c 2
 284 110 l 2
 270 46 224 -5 155 -5 c 0
 101 -5 68 30 68 78 c 0
107 -142 m 0
 85 -142 59 -167 59 -206 c 0
 59 -221 64 -233 79 -233 c 0
 112 -233 126 -195 133 -162 c 1
 132 -159 124 -142 107 -142 c 0
166 63 m 0
 191 63 207 88 207 110 c 0
 207 125 200 137 182 137 c 0
 157 137 139 114 139 91 c 0
 139 76 148 63 166 63 c 0
EndSplineSet
EndChar

StartChar: uni0E10
Encoding: 176 3600 144
Width: 613
Flags: MW
HStem: -343 68<12.6934 71.8927 292.167 379.947> -216 20G<230.714 276.266> -188 68<23.8704 86.9772> -111 57<383.169 445.743> -5 78<334.516 419.241> 306 68<211.762 280.84> 494 78<492.43 678.293> 526 78<314.398 513.933>
VStem: -51 63<-274.698 -196.302> 131 72<232.598 297.203> 166 79<-123.135 -60> 215 117<75.4346 163.898> 314 62<-178.072 -117.273> 447 63<-173.621 -111.817> 468 122<211.93 362.121>
DStem2: 332.311 -343 450.548 -343 0.207912 0.978148<426.912 664.664>
LayerCount: 2
Fore
SplineSet
131 244 m 0xfdd2
 131 306 186 374 269 374 c 0
 332 374 367 333 367 287 c 0
 367 280 366 274 365 267 c 2
 339 144 l 2
 335 126 332 112 332 101 c 0
 332 81 343 73 379 73 c 0
 411 73 424 89 432 126 c 2
 466 286 l 2
 468 294 468 301 468 308 c 0
 468 352 436 396 307 419 c 0
 224 434 161 441 160 441 c 1
 167 472 238 604 406 604 c 0xfdd2
 496 604 544 572 606 572 c 0
 665 572 682 598 682 598 c 1
 703 532 l 1
 700 530 663 494 594 494 c 0xfed2
 508 494 474 526 399 526 c 0
 326 526 306 498 299 491 c 1
 401 491 505 454 542 425 c 0
 568 404 590 366 590 325 c 0
 590 317 589 310 587 302 c 2
 553 139 l 2
 527 15 457 -5 356 -5 c 0
 248 -5 215 42 215 99 c 0
 215 112 217 127 220 141 c 2
 225 163 l 1
 152 163 131 206 131 244 c 0xfdd2
234 231 m 0
 257 231 282 249 282 277 c 0
 282 293 271 306 250 306 c 0
 222 306 203 281 203 260 c 0
 203 245 212 231 234 231 c 0
-51 -260 m 0
 -51 -202 -7 -120 71 -120 c 0
 110 -120 134 -141 134 -141 c 1
 134 -139 145 -127 153 -104 c 0
 162 -77 166 -61 166 -60 c 1
 245 -60 l 1
 245 -61 235 -98 219 -133 c 1
 203 -172 186 -192 186 -193 c 2
 204 -238 l 1
 255 -196 l 1
 255 -196 283 -275 339 -275 c 0
 380 -275 388 -236 388 -236 c 1
 370 -236 314 -223 314 -168 c 0
 314 -114 360 -54 428 -54 c 0
 492 -54 510 -86 510 -127 c 0xfcac
 510 -143 508 -159 504 -176 c 2
 496 -213 l 2
 481 -282 433 -343 339 -343 c 0
 257 -343 233 -284 233 -284 c 1
 165 -343 l 1
 134 -271 l 1
 134 -271 85 -343 24 -343 c 0
 -26 -343 -51 -305 -51 -260 c 0
54 -188 m 0
 29 -188 12 -222 12 -246 c 0
 12 -263 21 -275 36 -275 c 0
 71 -275 91 -222 92 -216 c 1
 92 -216 75 -188 54 -188 c 0
405 -179 m 0
 431 -179 447 -156 447 -137 c 0
 447 -123 438 -111 419 -111 c 0
 393 -111 376 -134 376 -153 c 0
 376 -167 385 -179 405 -179 c 0
EndSplineSet
Substitution2: "Thai Descender Removal Single Substitution" uni0E10.descless
EndChar

StartChar: uni0E11
Encoding: 177 3601 145
Width: 832
Flags: W
HStem: 0 21G<269 391.5 628 750.237> 257 68<171.939 229.637> 401 66<211 236.057> 502 100<684.058 773.871> 526 76<228.737 297.561 386.887 453.385>
VStem: 102 69<325.813 393.29> 237 73<330.907 400.239> 417 103<446.387 525.203> 727 123<389.227 528.5>
DStem2: 269.344 0 386.996 0 0.207912 0.978148<25.2936 136.955 317.873 435.966> 628 0 746 0 0.207912 0.978148<24.5336 484.882>
LayerCount: 2
Fore
SplineSet
448 287 m 2xef80
 450 294 610 602 753 602 c 0
 821 602 850 554 850 503 c 0
 850 493 848 482 846 472 c 2
 746 0 l 1
 628 0 l 1
 724 451 l 2
 726 460 727 468 727 475 c 0
 727 493 720 502 701 502 c 0xf780
 657 502 573 357 500 241 c 1
 442 146 392 6 391 0 c 1
 269 0 l 1
 338 323 l 2
 356 410 417 455 417 500 c 0
 417 516 408 526 400 526 c 0
 374 526 324 457 322 457 c 1
 321 471 297 524 263 524 c 0
 235 524 217 494 211 467 c 1
 211 467 219 469 231 469 c 0
 279 469 310 441 310 393 c 0
 310 330 262 257 182 257 c 0
 149 257 102 271 102 346 c 0
 102 449 180 602 278 602 c 0
 324 602 343 556 347 546 c 1
 356 555 400 602 444 602 c 0
 490 602 520 564 520 518 c 0
 520 462 476 422 467 378 c 2
 448 287 l 2xef80
196 325 m 0
 219 325 237 348 237 374 c 0
 237 389 230 401 212 401 c 0
 187 401 171 374 171 353 c 0
 171 338 179 325 196 325 c 0
EndSplineSet
EndChar

StartChar: uni0E12
Encoding: 178 3602 146
Width: 924
Flags: W
HStem: -5 72<512.187 579.54> 177 78<662 689.141> 342 68<360.256 419.292> 502 100<316.672 368.571 553 573.935> 575 20G<836.75 959>
VStem: 127 115<112.373 400.032> 141 110<112 278.709> 280 72<266.184 334.485> 420 72<270.42 341.805> 439 71<69.5422 146.861> 580 119<327.469 497.007> 591 70<77.0688 161.852>
DStem2: 251 112 277 0 0.583474 0.812132<0 126.827> 488.837 -5 606.735 -5 0.207912 0.978148<290.321 459.362> 713.489 -5 831.595 -5 0.207912 0.978148<204.468 613.4>
LayerCount: 2
Fore
SplineSet
280 279 m 0xf3
 280 360 351 410 408 410 c 0
 455 410 492 381 492 333 c 0
 492 298 474 270 440 224 c 2
 440 224 278 7 277 0 c 1
 133 0 l 1
 139 27 141 54 141 82 c 0xf380
 141 154 127 227 127 295 c 0
 127 487 273 595 358 602 c 1
 451 551 l 1
 553 602 l 1
 595 602 699 568 699 453 c 0xf520
 699 438 698 422 694 405 c 2
 662 255 l 1
 681 255 735 241 756 195 c 1
 841 595 l 1
 959 595 l 1
 852 91 l 2
 841 38 829 0 778 0 c 2
 727 0 l 1
 727 1 728 9 728 20 c 0
 728 153 667 177 652 177 c 1
 653 172 661 155 661 129 c 0xe910
 661 71 613 -5 528 -5 c 0
 474 -5 439 24 439 81 c 0
 439 188 525 231 539 231 c 1
 573 389 l 2
 578 410 580 430 580 446 c 0
 580 481 568 502 535 502 c 1
 432 453 l 1
 358 502 l 1
 303 496 242 403 242 281 c 0xf560
 242 232 251 191 251 133 c 0
 251 126 251 119 251 112 c 1
 325 215 l 1
 325 215 280 223 280 279 c 0xf3
381 265 m 0
 412 265 420 302 420 316 c 0
 420 333 411 342 395 342 c 0
 369 342 352 316 352 295 c 0
 352 279 360 265 381 265 c 0
543 67 m 0
 567 67 591 88 591 124 c 0
 591 147 580 163 562 163 c 0
 534 163 510 126 510 98 c 0xe150
 510 79 522 67 543 67 c 0
EndSplineSet
EndChar

StartChar: uni0E13
Encoding: 179 3603 147
Width: 958
Flags: MW
HStem: -5 78<772.099 877.024> -5 68<211.68 272.334> 233 78<860 888.623> 524 78<343.062 510.269> 575 20G<797.779 920>
VStem: 282 72<70.8288 140.623> 534 119<380.582 499.902> 695 121<73.8819 173.914> 901 78<97.8748 221.354>
DStem2: 441.937 -5 560.378 -5 0.207912 0.978148<31.3086 70.0111 205.579 457.777> 675.406 -5 793.343 -5 0.207912 0.978148<131.141 183.883 347.474 613.209>
AnchorPoint: "AboveBase" 921 613 basechar 0
LayerCount: 2
Fore
SplineSet
354 130 m 0xb780
 354 47 283 -5 223 -5 c 0
 162 -5 128 28 128 86 c 0
 128 99 130 112 133 127 c 2
 165 276 l 2
 185 368 247 389 263 397 c 1
 231 442 155 477 148 478 c 1
 174 506 280 602 445 602 c 0x7780
 599 602 653 533 653 453 c 0
 653 439 651 425 648 411 c 2
 598 172 l 1
 643 234 728 280 737 287 c 1
 802 595 l 1
 920 595 l 1x2f80
 860 311 l 1
 908 311 979 280 979 191 c 0
 979 113 928 -5 796 -5 c 0
 728 -5 695 27 695 77 c 0
 695 86 697 96 699 106 c 2
 713 175 l 1
 652 148 584 20 569 0 c 1
 443 0 l 1
 529 403 l 2
 532 418 534 432 534 444 c 0
 534 495 505 524 433 524 c 0
 359 524 308 483 308 483 c 1
 354 455 381 417 397 397 c 1
 351 390 302 366 284 281 c 2
 269 210 l 1
 281 210 354 203 354 130 c 0xb780
840 73 m 0xa780
 883 73 901 133 901 168 c 0
 901 207 880 233 844 233 c 1
 818 111 l 2
 817 106 816 103 816 99 c 0
 816 81 827 73 840 73 c 0xa780
237 63 m 0x6780
 264 63 282 91 282 113 c 0
 282 129 273 142 254 142 c 0
 228 142 211 113 211 91 c 0
 211 75 219 63 237 63 c 0x6780
EndSplineSet
EndChar

StartChar: uni0E14
Encoding: 180 3604 148
Width: 702
Flags: W
HStem: 0 21G<144 287.522 499 621.267> 362 68<370.853 444.042> 524 78<355.035 548.995>
VStem: 130 122<151.648 407.482> 150 108<85 309.632> 291 71<283.93 352.315> 445 71<291.704 359.581> 586 119<358.057 489.799>
DStem2: 254 121 369 113 0.658976 0.752164<0 139.51> 499 0 617 0 0.207912 0.978148<24.5336 436.184>
LayerCount: 2
Fore
SplineSet
130 304 m 0xf7
 130 423 219 602 471 602 c 0
 621 602 705 540 705 436 c 0
 705 421 704 406 700 389 c 2
 617 0 l 1
 499 0 l 1
 582 389 l 2
 585 403 586 416 586 428 c 0
 586 487 549 524 456 524 c 0
 292 524 252 402 252 320 c 0xf7
 252 277 258 223 258 176 c 0
 258 156 257 137 254 121 c 1
 347 225 l 1
 345 225 291 245 291 302 c 0
 291 371 354 430 425 430 c 0
 464 430 516 413 516 350 c 0
 516 257 431 184 369 113 c 2
 270 0 l 1
 144 0 l 1
 148 38 150 71 150 99 c 0xef
 150 196 130 246 130 304 c 0xf7
412 362 m 0
 382 362 362 337 362 313 c 0
 362 297 372 282 394 282 c 0
 424 282 445 309 445 332 c 0
 445 348 435 362 412 362 c 0
EndSplineSet
EndChar

StartChar: uni0E15
Encoding: 181 3605 149
Width: 717
Flags: W
HStem: 0 21G<152 316 517 639.238> 364 68<376.475 446.261> 582 20G<358.5 421.13 534.739 615>
VStem: 132 119<158.996 402.199> 161 112<68.5 231.462> 295 71<283.184 352.817> 449 71<290.735 361.983> 608 120<388.387 492.825>
DStem2: 517 0 635 0 0.207912 0.978148<24.5336 450.802>
LayerCount: 2
Fore
SplineSet
295 300 m 0xef
 295 367 360 432 432 432 c 0
 490 432 520 395 520 346 c 0
 520 266 458 222 380 113 c 0
 348 69 330 48 302 0 c 1
 152 0 l 1
 158 29 161 56 161 81 c 0xef
 161 166 132 229 132 300 c 0
 132 317 134 334 138 352 c 0
 176 533 335 602 382 602 c 1
 472 556 l 1
 583 602 l 1
 647 602 728 549 728 456 c 0
 728 444 727 433 724 420 c 2
 635 0 l 1
 517 0 l 1
 604 408 l 2
 607 421 608 432 608 442 c 0
 608 499 566 502 561 502 c 1
 452 453 l 1
 366 502 l 1
 321 494 251 415 251 300 c 0xf7
 251 230 273 157 273 114 c 0
 273 108 273 103 272 98 c 1
 303 147 269 101 354 219 c 1
 354 219 295 238 295 300 c 0xef
416 364 m 0
 393 364 366 344 366 311 c 0
 366 287 387 281 399 281 c 0
 423 281 449 301 449 332 c 0
 449 350 436 364 416 364 c 0
EndSplineSet
EndChar

StartChar: uni0E16
Encoding: 182 3606 150
Width: 663
Flags: MW
HStem: -5 68<214.96 284.479> 141 68<269 291.317> 524 78<350.694 527.951>
VStem: 293 72<71.2147 139.059> 556 118<379.385 495.824>
DStem2: 463.937 -5 581.937 -5 0.207912 0.978148<29.6453 454.935>
LayerCount: 2
Fore
SplineSet
365 130 m 0
 365 48 302 -5 230 -5 c 0
 177 -5 131 17 131 89 c 0
 131 103 132 119 136 137 c 2
 166 276 l 2
 186 368 249 389 265 397 c 1
 228 447 150 478 150 478 c 1
 175 506 287 602 454 602 c 0
 613 602 674 529 674 448 c 0
 674 436 673 423 670 411 c 2
 583 0 l 1
 465 0 l 1
 552 409 l 2
 554 420 556 431 556 441 c 0
 556 497 516 524 441 524 c 0
 381 524 327 494 309 478 c 1
 355 450 381 422 397 402 c 1
 375 392 303 361 284 276 c 2
 269 209 l 1
 317 209 365 191 365 130 c 0
244 63 m 0
 273 63 293 87 293 111 c 0
 293 127 283 141 261 141 c 0
 232 141 214 115 214 92 c 0
 214 76 222 63 244 63 c 0
EndSplineSet
EndChar

StartChar: uni0E17
Encoding: 183 3607 151
Width: 721
Flags: MW
HStem: 0 21G<159 287 517 639.27> 388 68<212.031 241> 524 78<543.422 666.5> 534 68<218.51 287.093>
VStem: 137 73<457.321 526.429> 617 120<427.5 521.997>
DStem2: 159 0 277 0 0.207912 0.978148<24.5336 173.073 366.975 396.57> 517 0 635 0 0.207912 0.978148<24.5336 495.572>
LayerCount: 2
Fore
SplineSet
137 467 m 0xec
 137 536 196 602 274 602 c 0xdc
 362 602 381 552 381 507 c 0
 381 491 379 476 376 464 c 2
 348 335 l 1
 359 363 377 421 449 504 c 0
 517 582 563 602 622 602 c 0
 711 602 737 553 737 500 c 0
 737 486 736 473 733 459 c 2
 635 0 l 1
 517 0 l 1
 611 444 l 2
 614 457 617 473 617 486 c 0
 617 507 610 524 589 524 c 0
 481 524 297 92 277 0 c 1
 159 0 l 1
 241 388 l 1
 231 388 l 2
 179 388 137 414 137 467 c 0xec
242 456 m 0
 270 456 289 479 289 504 c 0
 289 520 281 534 259 534 c 0
 220 534 210 502 210 488 c 0
 210 471 220 456 242 456 c 0
EndSplineSet
EndChar

StartChar: uni0E18
Encoding: 184 3608 152
Width: 646
Flags: W
HStem: 0 78<137 209 327 450.141> 484 78<497.464 667.416> 524 78<327.398 505.475>
VStem: 503 119<263.789 345.362>
DStem2: 192.421 0 310.421 0 0.207912 0.978148<104.276 411.986> 437.604 0 556.368 0 0.207912 0.978148<83.5555 317.525>
LayerCount: 2
Fore
SplineSet
710 527 m 1xb0
 699 516 661 484 602 484 c 0xd0
 517 484 481 524 405 524 c 0
 327 524 306 481 306 481 c 1
 309 481 398 465 452 449 c 0
 585 408 622 370 622 321 c 0
 622 312 620 303 618 294 c 2
 584 130 l 2
 567 51 527 0 457 0 c 2
 120 0 l 1
 137 78 l 1
 209 78 l 1
 278 403 l 1
 219 410 168 430 165 430 c 1
 168 445 235 602 409 602 c 0xb0
 483 602 525 562 589 562 c 0xd0
 658 562 685 599 691 602 c 1
 710 527 l 1xb0
391 78 m 2
 434 78 457 91 468 143 c 2
 500 293 l 2
 501 299 503 305 503 311 c 0
 503 336 483 355 391 381 c 1
 327 78 l 1
 391 78 l 2
EndSplineSet
EndChar

StartChar: uni0E19
Encoding: 185 3609 153
Width: 741
Flags: MW
HStem: -5 78<573.003 649> 388 68<209.031 237> 534 68<215.51 284.026> 575 20G<584.781 707>
VStem: 134 73<457.321 526.429> 486 116<73.4123 136.706> 683 73<117.242 251.082>
DStem2: 153.937 -5 271.937 -5 0.207912 0.978148<29.6453 85.3585 223.81 401.682> 461.517 -5 579.619 -5 0.207912 0.978148<126.183 250.558 380.592 613.394>
AnchorPoint: "AboveBase" 708 613 basechar 0
LayerCount: 2
Fore
SplineSet
756 217 m 0xde
 756 128 694 -5 582 -5 c 0
 544 -5 486 15 486 90 c 0
 486 102 487 115 490 129 c 2
 514 240 l 1
 422 211 277 20 273 0 c 1
 155 0 l 1
 237 388 l 1
 228 388 l 2
 176 388 134 414 134 467 c 0
 134 536 193 602 271 602 c 0xee
 358 602 377 552 377 508 c 0
 377 492 375 476 372 464 c 2
 313 190 l 1
 313 190 346 222 418 274 c 0
 470 312 532 339 535 339 c 1
 589 595 l 1
 707 595 l 1
 654 345 l 1
 725 327 756 279 756 217 c 0xde
619 73 m 0
 646 73 683 133 683 197 c 0
 683 233 669 259 636 259 c 1
 603 105 l 2
 602 101 602 97 602 94 c 0
 602 81 609 73 619 73 c 0
239 456 m 0
 267 456 286 479 286 504 c 0
 286 520 278 534 256 534 c 0
 217 534 207 502 207 488 c 0
 207 471 217 456 239 456 c 0
EndSplineSet
EndChar

StartChar: uni0E1A
Encoding: 186 3610 154
Width: 718
Flags: MW
HStem: 0 78<117 189 307 531.02> 388 68<224.318 254> 534 68<231.062 301.818> 575 20G<635.769 758>
VStem: 149 74<457.89 526.443>
DStem2: 172.421 0 290.421 0 0.207912 0.978148<104.276 396.483> 514.005 0 631.744 0 0.207912 0.978148<80.6373 608.194>
LayerCount: 2
Fore
SplineSet
149 466 m 0xd8
 149 537 209 602 286 602 c 0xe8
 374 602 393 550 393 505 c 0
 393 490 391 475 389 464 c 2
 307 78 l 1
 478 78 l 2
 501 78 531 78 541 127 c 2
 640 595 l 1
 758 595 l 1
 653 100 l 2
 639 34 587 0 530 0 c 2
 100 0 l 1
 117 78 l 1
 189 78 l 1
 254 388 l 1
 243 388 l 2
 192 388 149 413 149 466 c 0xd8
254 456 m 0
 279 456 303 476 303 503 c 0
 303 520 293 534 271 534 c 0
 240 534 223 511 223 488 c 0
 223 471 233 456 254 456 c 0
EndSplineSet
EndChar

StartChar: uni0E1B
Encoding: 187 3611 155
Width: 718
Flags: MW
HStem: 0 78<117 189 307 531.02> 388 68<224.318 254> 534 68<231.062 301.818>
VStem: 149 74<457.89 526.443>
DStem2: 172.421 0 290.421 0 0.207912 0.978148<104.276 396.483> 514.005 0 631.744 0 0.207912 0.978148<80.6373 903.769>
AnchorPoint: "AboveBase" 595 613 basechar 0
LayerCount: 2
Fore
SplineSet
149 466 m 0
 149 537 209 602 286 602 c 0
 374 602 393 550 393 505 c 0
 393 490 391 475 389 464 c 2
 307 78 l 1
 478 78 l 2
 501 78 531 78 541 127 c 2
 702 884 l 1
 820 884 l 1
 653 100 l 2
 639 34 587 0 530 0 c 2
 100 0 l 1
 117 78 l 1
 189 78 l 1
 254 388 l 1
 243 388 l 2
 192 388 149 413 149 466 c 0
254 456 m 0
 279 456 303 476 303 503 c 0
 303 520 293 534 271 534 c 0
 240 534 223 511 223 488 c 0
 223 471 233 456 254 456 c 0
EndSplineSet
EndChar

StartChar: uni0E1C
Encoding: 188 3612 156
Width: 674
Flags: W
HStem: 0 21G<92 226.5 464.5 593.235> 388 68<292 359.27> 534 68<300.254 367.627> 575 20G<592.792 715>
VStem: 369 72<464.79 532.418>
DStem2: 92 0 210.44 0 0.207912 0.978148<24.9494 82.808 200.468 421.104> 471.44 0 589 0 0.207912 0.978148<175.843 608.103>
LayerCount: 2
Fore
SplineSet
303 388 m 2xe8
 292 388 l 1
 247 172 l 1
 247 172 289 221 324 253 c 0
 364 291 378 300 409 323 c 1
 412 322 442 290 468 253 c 0
 489 222 508 172 508 172 c 1
 597 595 l 1
 715 595 l 1xd8
 589 0 l 1
 471 0 l 1
 458 115 385 210 385 210 c 1
 333 172 241 59 212 0 c 1
 92 0 l 1
 191 464 l 2
 201 509 232 602 352 602 c 0
 385 602 441 585 441 520 c 0
 441 441 378 388 303 388 c 2xe8
339 534 m 0xe8
 310 534 290 510 290 486 c 0
 290 470 300 456 322 456 c 0
 350 456 369 480 369 504 c 0
 369 520 360 534 339 534 c 0xe8
EndSplineSet
EndChar

StartChar: uni0E1D
Encoding: 189 3613 157
Width: 674
Flags: W
HStem: 0 21G<92 226.5 464.5 593.253> 388 68<292 359.27> 534 68<300.254 367.627>
VStem: 369 72<464.79 532.418>
DStem2: 92 0 210.44 0 0.207912 0.978148<24.9494 82.808 200.468 421.104> 471.44 0 589 0 0.207912 0.978148<175.843 903.678>
AnchorPoint: "AboveBase" 551 613 basechar 0
LayerCount: 2
Fore
SplineSet
303 388 m 2
 292 388 l 1
 247 172 l 1
 247 172 289 221 324 253 c 0
 364 291 378 300 409 323 c 1
 412 322 442 290 468 253 c 0
 489 222 508 172 508 172 c 1
 659 884 l 1
 777 884 l 1
 589 0 l 1
 471 0 l 1
 458 115 385 210 385 210 c 1
 333 172 241 59 212 0 c 1
 92 0 l 1
 191 464 l 2
 201 509 232 602 352 602 c 0
 385 602 441 585 441 520 c 0
 441 441 378 388 303 388 c 2
339 534 m 0
 310 534 290 510 290 486 c 0
 290 470 300 456 322 456 c 0
 350 456 369 480 369 504 c 0
 369 520 360 534 339 534 c 0
EndSplineSet
EndChar

StartChar: uni0E1E
Encoding: 190 3614 158
Width: 752
Flags: MW
HStem: 0 21G<158 286.179 544.125 668.235> 388 68<208.921 240.306> 534 68<217.202 285.143> 575 20G<486.969 571.08 667.78 790>
VStem: 136 72<457.307 523.907>
DStem2: 333 268 504 448 0.453568 0.891222<0 237.98> 569 595 504 448 0.0933407 -0.995634<140.291 328.746> 546.035 0 664 0 0.207912 0.978148<273.987 608.188>
LayerCount: 2
Fore
SplineSet
136 469 m 0xd8
 136 527 183 602 274 602 c 0xe8
 355 602 380 558 380 508 c 0
 380 495 379 483 376 470 c 2
 333 268 l 1
 497 595 l 1
 569 595 l 1
 603 268 l 1
 672 595 l 1
 790 595 l 1
 664 0 l 1
 546 0 l 1
 504 448 l 1
 276 0 l 1
 158 0 l 1
 241 389 l 1
 241 389 235 388 226 388 c 0
 172 388 136 419 136 469 c 0xd8
239 456 m 0
 267 456 286 480 286 504 c 0
 286 520 278 534 256 534 c 0
 228 534 208 507 208 486 c 0
 208 470 218 456 239 456 c 0
EndSplineSet
EndChar

StartChar: uni0E1F
Encoding: 191 3615 159
Width: 752
Flags: MW
HStem: 0 21G<158 286.179 544.125 668.253> 388 68<208.921 240.306> 534 68<217.202 285.143> 575 20G<486.969 571.08>
VStem: 136 72<457.307 523.907>
DStem2: 333 268 504 448 0.453568 0.891222<0 237.98> 569 595 504 448 0.0933407 -0.995634<140.291 328.746> 546.035 0 664 0 0.207912 0.978148<273.987 903.763>
AnchorPoint: "AboveBase" 629 613 basechar 0
LayerCount: 2
Fore
SplineSet
136 469 m 0xd8
 136 527 183 602 274 602 c 0xe8
 355 602 380 558 380 508 c 0
 380 495 379 483 376 470 c 2
 333 268 l 1
 497 595 l 1
 569 595 l 1
 603 268 l 1
 734 884 l 1
 852 884 l 1
 664 0 l 1
 546 0 l 1
 504 448 l 1
 276 0 l 1
 158 0 l 1
 241 389 l 1
 241 389 235 388 226 388 c 0
 172 388 136 419 136 469 c 0xd8
239 456 m 0
 267 456 286 480 286 504 c 0
 286 520 278 534 256 534 c 0
 228 534 208 507 208 486 c 0
 208 470 218 456 239 456 c 0
EndSplineSet
EndChar

StartChar: uni0E20
Encoding: 192 3616 160
Width: 680
Flags: W
HStem: -5 68<135.865 194.321> 136 68<144.1 181> 524 78<375.314 550.612>
VStem: 63 72<63.7326 128.557> 570 118<379.728 501.807>
DStem2: 136.576 -5 255.272 -5 0.207912 0.978148<206.659 372.39> 476.937 -5 594.937 -5 0.207912 0.978148<29.6453 463.854>
LayerCount: 2
Fore
SplineSet
63 75 m 0
 63 145 125 204 181 204 c 1
 197 276 l 2
 217 368 281 389 297 397 c 1
 259 445 187 477 180 478 c 1
 206 506 317 602 487 602 c 0
 639 602 688 534 688 456 c 0
 688 441 686 426 683 411 c 2
 596 0 l 1
 478 0 l 1
 565 409 l 2
 568 424 570 438 570 450 c 0
 570 501 540 524 467 524 c 0
 390 524 341 483 341 483 c 1
 387 455 411 422 427 402 c 1
 405 392 333 361 315 276 c 2
 280 115 l 2
 266 51 221 -5 151 -5 c 0
 97 -5 63 28 63 75 c 0
161 63 m 0
 185 63 202 87 202 109 c 0
 202 124 194 136 177 136 c 0
 152 136 135 111 135 90 c 0
 135 75 143 63 161 63 c 0
EndSplineSet
EndChar

StartChar: uni0E21
Encoding: 193 3617 161
Width: 718
Flags: MW
HStem: -5 78<165.699 223.193> 236 78<199.833 256> 388 68<256.813 288.306> 534 68<265.055 333.106> 575 20G<636.782 759>
VStem: 87 72<76.8141 190.701> 184 72<457.274 525.41>
DStem2: 205.412 -5 322.981 -5 0.207912 0.978148<78.688 243.128 343.352 402.769> 513.466 -5 631.466 -5 0.207912 0.978148<128.746 613.404>
LayerCount: 2
Fore
SplineSet
184 469 m 0xee
 184 527 231 602 322 602 c 0xf6
 403 602 428 558 428 508 c 0
 428 495 427 483 424 470 c 2
 389 307 l 1
 389 307 429 305 468 236 c 0
 498 183 501 150 524 121 c 1
 526 121 542 125 548 154 c 2
 641 595 l 1
 759 595 l 1
 655 105 l 2
 636 17 576 -5 528 -5 c 0
 462 -5 438 50 425 95 c 0
 397 189 370 203 368 209 c 1
 347 108 l 2
 327 15 232 -5 188 -5 c 0
 108 -5 87 47 87 100 c 0
 87 118 90 136 93 152 c 0
 124 298 249 314 273 314 c 1
 289 389 l 1
 289 389 283 388 274 388 c 0
 220 388 184 419 184 469 c 0xee
239 236 m 0
 198 236 159 167 159 123 c 0
 159 97 171 73 193 73 c 0
 214 73 225 92 229 110 c 2
 256 233 l 2
 255 233 248 236 239 236 c 0
287 456 m 0
 315 456 334 480 334 504 c 0
 334 520 325 534 304 534 c 0
 275 534 256 508 256 485 c 0
 256 469 265 456 287 456 c 0
EndSplineSet
EndChar

StartChar: uni0E22
Encoding: 194 3618 162
Width: 657
Flags: W
HStem: 0 78<235 464.594> 227 78<298.842 396> 388 68<295.031 365.52> 534 68<303.513 372.007> 575 20G<578.771 701>
VStem: 170 113<321.374 391> 374 71<464.863 532.069>
DStem2: 457.03 0 575.218 0 0.207912 0.978148<87.9281 608.189>
LayerCount: 2
Fore
SplineSet
445 519 m 0xf6
 445 433 376 388 312 388 c 0
 297 388 288 391 288 391 c 1
 285 376 l 2
 284 371 283 366 283 362 c 0
 283 320 329 305 356 305 c 2
 413 305 l 1
 396 227 l 1
 335 227 l 2
 306 227 263 213 251 155 c 2
 235 78 l 1
 404 78 l 2
 446 78 478 97 487 141 c 2
 583 595 l 1
 701 595 l 1xee
 602 126 l 2
 590 71 549 0 446 0 c 2
 100 0 l 1
 132 149 l 2
 146 216 203 268 268 271 c 1
 209 274 170 315 170 375 c 0
 170 386 172 396 174 408 c 2
 186 466 l 2
 196 511 246 602 355 602 c 0
 406 602 445 574 445 519 c 0xf6
325 456 m 0
 354 456 374 481 374 503 c 0
 374 519 364 534 342 534 c 0xf6
 314 534 294 507 294 486 c 0
 294 470 304 456 325 456 c 0
EndSplineSet
EndChar

StartChar: uni0E23
Encoding: 195 3619 163
Width: 551
Flags: W
HStem: -5 68<312.956 380.161> 141 68<320.885 388.05> 429 58<265 298.847> 486 78<455.534 605.963> 524 78<282.891 459.622>
VStem: 239 73<64.7458 132.502> 410 122<232.312 369.447>
LayerCount: 2
Fore
SplineSet
239 73 m 0xee
 239 140 293 209 373 209 c 0
 382 209 387 208 387 208 c 1
 405 293 l 2
 408 306 410 317 410 328 c 0
 410 344 405 359 387 371 c 0
 348 398 248 429 154 429 c 0
 141 429 132 428 129 428 c 1
 145 487 226 602 370 602 c 0xee
 442 602 487 564 543 564 c 0
 598 564 611 594 619 598 c 1
 639 518 l 1
 632 515 599 486 551 486 c 0xd6
 477 486 425 524 345 524 c 0
 292 524 274 494 265 487 c 1
 268 487 353 481 421 449 c 0
 472 425 532 401 532 345 c 0
 532 339 531 333 530 326 c 2
 488 127 l 2
 475 66 427 -5 330 -5 c 0
 277 -5 239 21 239 73 c 0xee
341 63 m 0
 370 63 390 89 390 111 c 0
 390 127 380 141 358 141 c 0
 330 141 312 115 312 93 c 0
 312 77 320 63 341 63 c 0
EndSplineSet
EndChar

StartChar: uni0E24
Encoding: 196 3620 164
Width: 677
Flags: MW
HStem: -199 21G<426 548.229> -5 68<217.96 287.479> 141 68<272 294.317> 524 78<353.694 530.951>
VStem: 296 72<71.2147 139.059> 559 118<378.895 495.824>
DStem2: 426 -199 544 -199 0.207912 0.978148<24.5336 653.207>
LayerCount: 2
Fore
SplineSet
368 130 m 0
 368 48 305 -5 233 -5 c 0
 180 -5 134 17 134 89 c 0
 134 103 135 119 139 137 c 2
 169 276 l 2
 189 368 252 389 268 397 c 1
 231 447 153 478 153 478 c 1
 178 506 290 602 457 602 c 0
 616 602 677 529 677 448 c 0
 677 436 676 423 673 411 c 2
 544 -199 l 1
 426 -199 l 1
 555 409 l 2
 557 420 559 431 559 441 c 0
 559 497 519 524 444 524 c 0
 384 524 330 494 312 478 c 1
 358 450 384 422 400 402 c 1
 378 392 305 361 287 276 c 1
 272 209 l 1
 320 209 368 191 368 130 c 0
247 63 m 0
 276 63 296 87 296 111 c 0
 296 127 286 141 264 141 c 0
 235 141 217 115 217 92 c 0
 217 76 225 63 247 63 c 0
EndSplineSet
EndChar

StartChar: uni0E25
Encoding: 197 3621 165
Width: 660
Flags: W
HStem: -5 68<214.216 284.449> 143 66<254.391 292.052> 337 78<288.002 387.906> 524 78<301.383 506.397>
VStem: 122 91<64.5129 134.864> 294 71<71.9833 141.546> 539 122<330.336 493.966>
DStem2: 449.937 -5 567.937 -5 0.207912 0.978148<29.6453 77.6205 296.566 446.302>
LayerCount: 2
Fore
SplineSet
365 126 m 0
 365 54 304 -5 227 -5 c 0
 157 -5 122 34 122 109 c 0
 122 132 126 158 132 187 c 0
 158 308 216 415 354 415 c 0
 391 415 427 407 453 381 c 1
 484 352 513 288 512 285 c 2
 533 386 l 2
 537 403 539 419 539 433 c 0
 539 490 506 524 411 524 c 0
 282 524 230 454 220 440 c 1
 155 486 l 1
 179 525 269 602 439 602 c 0
 616 602 661 521 661 451 c 0
 661 438 659 426 657 414 c 2
 569 0 l 1
 451 0 l 1
 461 48 l 2
 462 54 463 63 463 72 c 0
 463 108 454 165 438 221 c 0
 416 298 384 337 331 337 c 0
 288 337 274 300 266 262 c 2
 254 209 l 1
 260 210 269 211 276 211 c 0
 333 211 365 175 365 126 c 0
244 63 m 0
 274 63 294 89 294 112 c 0
 294 128 284 143 261 143 c 0
 232 143 213 119 213 94 c 0
 213 78 222 63 244 63 c 0
EndSplineSet
EndChar

StartChar: uni0E26
Encoding: 198 3622 166
Width: 689
Flags: W
HStem: -199 21G<442 564.229> -5 68<141.865 200.321> 136 68<150.1 187> 524 78<381.314 556.612>
VStem: 69 72<63.7326 128.557> 576 118<379.134 501.807>
DStem2: 101.34 -199 220.036 -199 0.207912 0.978148<404.993 570.724> 442 -199 560 -199 0.207912 0.978148<24.5336 662.126>
LayerCount: 2
Fore
SplineSet
69 75 m 0
 69 145 131 204 187 204 c 1
 203 276 l 2
 223 368 287 389 303 397 c 1
 265 445 193 477 186 478 c 1
 212 506 323 602 493 602 c 0
 645 602 694 534 694 456 c 0
 694 441 692 426 689 411 c 2
 560 -199 l 1
 442 -199 l 1
 571 409 l 2
 574 424 576 438 576 450 c 0
 576 501 546 524 473 524 c 0
 396 524 347 483 347 483 c 1
 393 455 417 422 433 402 c 1
 411 392 339 361 321 276 c 2
 286 115 l 2
 272 51 227 -5 157 -5 c 0
 103 -5 69 28 69 75 c 0
167 63 m 0
 191 63 208 87 208 109 c 0
 208 124 200 136 183 136 c 0
 158 136 141 111 141 90 c 0
 141 75 149 63 167 63 c 0
EndSplineSet
EndChar

StartChar: uni0E27
Encoding: 199 3623 167
Width: 593
Flags: W
HStem: -5 68<365.691 432.554> 142 68<373.714 441.05> 524 78<283.502 456.608>
VStem: 292 72<64.3916 133.998> 484 121<323.305 497.941>
DStem2: 395.513 -5 513.943 -5 0.207912 0.978148<217.341 447.818>
LayerCount: 2
Fore
SplineSet
292 80 m 0
 292 152 359 210 429 210 c 0
 437 210 441 209 441 209 c 1
 476 372 l 2
 480 392 484 414 484 435 c 0
 484 483 464 524 383 524 c 0
 296 524 243 491 213 425 c 1
 122 464 l 1
 126 485 203 602 395 602 c 0
 535 602 605 562 605 456 c 0
 605 434 602 410 596 383 c 2
 542 127 l 2
 529 68 482 -5 394 -5 c 0
 314 -5 292 41 292 80 c 0
393 63 m 0
 422 63 442 90 442 112 c 0
 442 128 432 142 410 142 c 0
 382 142 364 115 364 93 c 0
 364 77 372 63 393 63 c 0
EndSplineSet
EndChar

StartChar: uni0E28
Encoding: 200 3624 168
Width: 700
Flags: W
HStem: 0 21G<143 270 502 624.265> 210 68<387.243 454.514> 352 68<395.426 445> 524 78<359.933 549.362>
VStem: 133 115<169.084 390.953> 463 72<286.634 350.642> 589 123<332.898 473.381>
DStem2: 445 420 514 399 0.780869 0.624695<39.6419 131.342> 502 0 620 0 0.207912 0.978148<24.5336 437.162>
LayerCount: 2
Fore
SplineSet
468 524 m 0
 270 524 248 375 248 206 c 0
 248 185 248 170 249 169 c 1
 250 173 284 296 328 354 c 0
 353 388 383 420 445 420 c 1
 550 504 l 1
 531 513 505 524 468 524 c 0
133 281 m 0
 133 470 265 602 477 602 c 0
 578 602 608 576 622 575 c 1
 650 582 701 649 702 656 c 1
 831 656 l 1
 813 613 751 545 695 517 c 1
 697 509 712 493 712 453 c 0
 712 441 711 426 707 408 c 2
 620 0 l 1
 502 0 l 1
 585 389 l 2
 588 403 589 417 589 429 c 0
 589 440 588 449 586 454 c 1
 514 399 l 1
 529 385 535 363 535 341 c 0
 535 263 466 210 404 210 c 0
 372 210 355 225 355 225 c 1
 329 182 273 28 267 0 c 1
 143 0 l 1
 147 21 l 2
 152 43 154 64 154 84 c 0
 154 152 133 209 133 281 c 0
417 278 m 0
 444 278 463 303 463 323 c 0
 463 338 453 352 433 352 c 0
 405 352 386 327 386 307 c 0
 386 292 396 278 417 278 c 0
EndSplineSet
EndChar

StartChar: uni0E29
Encoding: 201 3625 169
Width: 748
Flags: MW
HStem: 0 78<117 189 307 532.366> 365 58<448.971 513.093> 388 68<225.591 254> 534 68<230.507 301.818> 575 20G<637.776 760>
VStem: 150 73<457.461 525.736> 378 64<294.663 357.594> 514 58<300.823 364.516>
DStem2: 172.421 0 290.421 0 0.207912 0.978148<104.276 396.483> 516.005 0 633.744 0 0.207912 0.978148<81.8848 197.306 338.338 608.194>
AnchorPoint: "AboveBase" 761 613 basechar 0
LayerCount: 2
Fore
SplineSet
572 354 m 0xd7
 572 305 537 277 536 276 c 1
 536 276 547 271 564 271 c 0
 569 271 573 273 574 273 c 2
 642 595 l 1
 760 595 l 1
 699 307 l 1
 713 307 781 356 790 400 c 1
 858 351 l 1
 829 279 695 213 679 213 c 1
 655 100 l 2
 638 18 570 0 533 0 c 2
 100 0 l 1
 117 78 l 1
 189 78 l 1
 254 388 l 1
 243 388 l 2xaf
 188 388 150 417 150 467 c 0
 150 533 206 602 286 602 c 0
 374 602 393 550 393 505 c 0
 393 490 391 475 389 464 c 2
 307 78 l 1
 479 78 l 2
 512 78 534 85 543 127 c 2
 557 193 l 1
 549 193 l 2
 524 193 455 197 418 224 c 0
 392 243 378 274 378 307 c 0
 378 364 425 423 494 423 c 0
 547 423 572 392 572 354 c 0xd7
254 456 m 0
 279 456 303 476 303 503 c 0
 303 520 293 534 271 534 c 0xb7
 240 534 223 511 223 488 c 0
 223 471 233 456 254 456 c 0
470 294 m 0
 496 294 514 318 514 338 c 0
 514 352 506 365 486 365 c 0xc7
 460 365 442 342 442 322 c 0
 442 307 451 294 470 294 c 0
EndSplineSet
EndChar

StartChar: uni0E2A
Encoding: 202 3626 170
Width: 657
Flags: W
HStem: -2 68<215.891 286.878> 146 66<257.506 294.653> 524 78<306.729 508.94>
VStem: 125 89<67.5447 137.097> 296 71<74.7853 144.062> 541 120<327.258 476.5>
DStem2: 451.575 -2 569.575 -2 0.207912 0.978148<26.5783 77.0063 290.357 446.604>
LayerCount: 2
Fore
SplineSet
367 128 m 0
 367 57 308 -2 229 -2 c 0
 161 -2 125 32 125 110 c 0
 125 136 129 166 137 201 c 0
 158 301 189 380 295 412 c 0
 360 431 429 456 510 503 c 1
 486 514 470 524 429 524 c 0
 290 524 248 467 223 441 c 1
 156 490 l 1
 187 529 268 602 434 602 c 0
 554 602 590 567 590 567 c 1
 611 584 637 618 645 655 c 1
 758 655 l 1
 725 574 646 529 638 521 c 1
 644 508 661 499 661 454 c 0
 661 438 659 417 653 390 c 2
 570 0 l 1
 452 0 l 1
 460 37 l 2
 462 47 463 60 463 75 c 0
 463 170 421 346 337 346 c 0
 292 346 274 295 266 256 c 2
 257 212 l 1
 263 213 270 214 277 214 c 0
 333 214 367 177 367 128 c 0
512 282 m 1
 534 385 l 2
 540 412 541 427 541 436 c 0
 541 448 538 448 538 448 c 1
 506 422 486 414 432 392 c 1
 459 392 511 291 512 282 c 1
246 66 m 0
 276 66 296 92 296 115 c 0
 296 131 286 146 263 146 c 0
 233 146 214 120 214 97 c 0
 214 81 223 66 246 66 c 0
EndSplineSet
EndChar

StartChar: uni0E2B
Encoding: 203 3627 171
Width: 715
Flags: MW
HStem: 0 21G<155 290 512 634.232> 388 68<207.404 237> 534 68<213.534 285.331 586.547 662.077>
VStem: 134 72<457.642 525.751> 494 80<445.301 521.07> 578 118<269.97 335.192> 665 73<456.147 531.103>
DStem2: 154.528 0 273.175 0 0.207912 0.978148<24.6317 95.5583 254.695 396.668> 512 0 630 0 0.207912 0.978148<24.5336 323.566>
LayerCount: 2
Fore
SplineSet
494 461 m 0xfc
 494 520 539 602 643 602 c 0
 679 602 738 588 738 521 c 0xfa
 738 512 736 502 734 491 c 0
 718 416 666 396 663 394 c 1
 664 394 696 381 696 328 c 0
 696 318 695 306 692 293 c 2
 630 0 l 1
 512 0 l 1
 576 302 l 2
 577 308 578 312 578 317 c 0
 578 328 573 337 555 337 c 0
 535 337 493 294 410 192 c 0
 353 122 307 78 273 0 c 1
 155 0 l 1
 237 388 l 1
 226 388 l 2
 175 388 134 417 134 470 c 0
 134 537 188 602 269 602 c 0
 358 602 377 553 377 510 c 0
 377 495 375 481 373 469 c 2
 321 225 l 1
 321 225 369 286 409 324 c 0
 467 381 510 410 510 410 c 1
 508 410 494 428 494 461 c 0xfc
238 456 m 0
 268 456 286 481 286 508 c 0
 286 527 274 534 255 534 c 0
 216 534 206 502 206 488 c 0
 206 471 216 456 238 456 c 0
610 443 m 0
 643 443 665 472 665 499 c 0
 665 518 654 534 630 534 c 0
 595 534 574 504 574 478 c 0
 574 460 585 443 610 443 c 0
EndSplineSet
EndChar

StartChar: uni0E2C
Encoding: 204 3628 172
Width: 754
Flags: MW
HStem: 0 21G<156 287.517 540.759 666.261> 388 68<208.159 245.21> 457 62<529.694 644.522> 534 68<216.253 283.209> 602 62<539.17 659.726>
VStem: 136 71<457.536 524.695> 454 72<526.54 586.763>
DStem2: 156 0 273.614 0 0.207912 0.978148<218.698 397.756> 314 190 274 0 0.559963 0.828517<0 170.206> 530 418 470 290 0.253508 -0.967333<108.608 234.241> 543.614 0 662 0 0.207912 0.978148<194.245 484.721>
LayerCount: 2
Fore
SplineSet
454 535 m 0
 454 602 517 664 620 664 c 0
 714 664 741 610 742 610 c 0
 763 622 796 663 804 687 c 1
 896 656 l 1
 872 614 820 552 773 521 c 1
 662 0 l 1
 546 0 l 1
 470 290 l 1
 274 0 l 1
 156 0 l 1
 239 389 l 1
 239 389 233 388 224 388 c 0
 166 388 136 424 136 471 c 0
 136 529 183 602 272 602 c 0
 354 602 378 558 378 509 c 0
 378 496 377 483 374 470 c 2
 314 190 l 1
 458 418 l 1
 530 418 l 1
 584 190 l 1
 645 474 l 2
 644 474 613 457 569 457 c 0
 518 457 454 475 454 535 c 0
588 519 m 0
 633 519 664 543 664 567 c 0
 664 589 635 602 606 602 c 0
 563 602 526 583 526 554 c 0
 526 528 560 519 588 519 c 0
238 456 m 0
 266 456 284 482 284 504 c 0
 284 520 276 534 255 534 c 0
 227 534 207 507 207 486 c 0
 207 470 217 456 238 456 c 0
EndSplineSet
EndChar

StartChar: uni0E2D
Encoding: 205 3629 173
Width: 669
Flags: W
HStem: 0 78<248.16 473.562> 195 68<262.41 329.949> 341 68<269.353 336.978> 524 78<311.249 519.701>
VStem: 125 122<81.6522 195.234> 339 71<271.346 338.992> 553 121<338.789 495.232>
DStem2: 462.455 0 580.368 0 0.207912 0.978148<84.8382 450.708>
LayerCount: 2
Fore
SplineSet
410 325 m 0
 410 265 360 195 277 195 c 0
 268 195 264 196 264 196 c 1
 248 124 l 2
 247 119 247 114 247 109 c 0
 247 91 257 78 293 78 c 2
 418 78 l 2
 467 78 484 102 492 139 c 2
 549 411 l 2
 551 422 553 432 553 442 c 0
 553 497 512 524 419 524 c 0
 289 524 246 453 236 439 c 1
 170 488 l 1
 172 490 232 602 445 602 c 0
 635 602 674 517 674 456 c 0
 674 445 673 436 671 427 c 2
 608 130 l 2
 585 24 510 0 441 0 c 2
 235 0 l 2
 141 0 125 55 125 89 c 0
 125 98 126 105 127 110 c 2
 163 276 l 2
 176 339 223 409 320 409 c 0
 379 409 410 373 410 325 c 0
291 263 m 0
 320 263 339 289 339 311 c 0
 339 327 329 341 307 341 c 0
 279 341 260 317 260 293 c 0
 260 277 269 263 291 263 c 0
EndSplineSet
EndChar

StartChar: uni0E2E
Encoding: 206 3630 174
Width: 656
Flags: W
HStem: 0 78<234.51 463.618> 157 68<242.934 312.439> 302 68<250.105 319.157> 416 62<307.232 511.805> 540 62<314.329 516.274>
VStem: 111 122<81.7124 157.734> 320 71<232.132 300.531> 543 119<331.023 464>
DStem2: 451.517 0 570.368 0 0.207912 0.978148<84.1895 443.26>
LayerCount: 2
Fore
SplineSet
187 493 m 0
 187 559 305 602 439 602 c 0
 554 602 594 561 594 561 c 1
 603 561 633 593 641 630 c 1
 732 598 l 1
 723 579 683 518 649 497 c 1
 650 493 662 480 662 448 c 0
 662 439 661 428 658 415 c 2
 598 130 l 2
 585 67 542 0 429 0 c 2
 221 0 l 2
 127 0 111 55 111 89 c 0
 111 98 112 105 113 110 c 2
 141 238 l 2
 154 300 202 370 300 370 c 0
 353 370 391 337 391 286 c 0
 391 220 334 157 255 157 c 0
 246 157 242 158 242 158 c 1
 234 124 l 2
 233 119 233 114 233 110 c 0
 233 81 260 78 281 78 c 2
 413 78 l 2
 453 78 473 100 480 134 c 2
 539 409 l 2
 541 420 543 428 543 434 c 0
 543 439 541 442 539 443 c 1
 512 432 425 416 365 416 c 0
 296 416 187 436 187 493 c 0
527 512 m 1
 523 513 498 540 423 540 c 0
 322 540 306 518 306 503 c 0
 306 484 339 478 404 478 c 0
 494 478 515 501 527 512 c 1
274 225 m 0
 302 225 320 249 320 273 c 0
 320 288 311 302 290 302 c 0
 261 302 242 278 242 255 c 0
 242 239 252 225 274 225 c 0
EndSplineSet
EndChar

StartChar: uni0E2F
Encoding: 207 3631 175
Width: 623
Flags: W
HStem: -6 83<379 437.113> 330 78<307.685 450.418> 431 52<305.45 344.617> 549 53<291.42 349.737>
VStem: 198 87<444.34 535.565> 351 67<488.33 548.176> 573 97<542.382 585.387>
DStem2: 439.339 -6 556.677 -6 0.207912 0.978148<102.779 413.189>
LayerCount: 2
Fore
SplineSet
418 536 m 0
 418 475 363 431 305 431 c 1
 305 431 320 408 364 408 c 0
 514 408 566 569 573 602 c 1
 584 602 l 2
 640 602 670 581 670 540 c 0
 670 533 670 525 668 517 c 2
 596 179 l 2
 568 46 501 -6 379 -6 c 1
 344 77 l 1
 447 77 463 106 481 190 c 2
 526 398 l 1
 526 398 468 330 355 330 c 0
 261 330 198 382 198 458 c 0
 198 537 259 602 339 602 c 0
 392 602 418 572 418 536 c 0
311 483 m 0
 335 483 351 504 351 524 c 0
 351 537 343 549 325 549 c 0
 301 549 285 527 285 509 c 0
 285 496 293 483 311 483 c 0
EndSplineSet
EndChar

StartChar: uni0E30
Encoding: 208 3632 176
Width: 531
Flags: W
HStem: 14 76<154.671 234.568> 187 61<165.518 244.563> 340 76<225.209 304.154> 513 61<234.894 314.907>
VStem: 82 69<93.3741 173.27> 152 69<419.841 499.582> 248 67<106.392 183.827> 318 66<432.393 509.445>
LayerCount: 2
Fore
SplineSet
152 443 m 0
 152 502 207 574 294 574 c 0
 345 574 384 544 384 496 c 0
 384 461 366 436 365 432 c 1
 365 432 412 438 473 475 c 0
 552 523 596 587 596 587 c 1
 568 457 l 1
 568 457 518 403 432 372 c 0
 377 352 333 340 289 340 c 0
 184 340 152 396 152 443 c 0
82 116 m 0
 82 176 140 248 224 248 c 0
 272 248 315 217 315 168 c 0
 315 134 297 110 296 106 c 1
 296 106 342 113 404 149 c 0
 483 195 526 261 526 261 c 1
 498 129 l 1
 498 129 448 75 362 44 c 0
 308 25 266 14 224 14 c 0
 114 14 82 69 82 116 c 0
210 187 m 0
 178 187 151 160 151 128 c 0
 151 108 163 90 191 90 c 0
 226 90 248 120 248 149 c 0
 248 169 237 187 210 187 c 0
279 513 m 0
 243 513 221 481 221 454 c 0
 221 434 232 416 260 416 c 0
 295 416 318 446 318 475 c 0
 318 495 306 513 279 513 c 0
EndSplineSet
EndChar

StartChar: uni0E31
Encoding: 209 3633 177
Width: 0
Flags: W
HStem: 682 77<-100.291 44.8261> 873 57<-206.72 -128.849>
VStem: -284 64<784.127 859.25> -126 66<793.28 869.348>
AnchorPoint: "AboveMark" 40 988 basemark 0
AnchorPoint: "AboveBase" 43 613 mark 0
LayerCount: 2
Fore
SplineSet
-60 850 m 0
 -60 793 -103 760 -103 760 c 1
 -101 760 -91 759 -74 759 c 0
 113 759 226 913 229 914 c 1
 202 786 l 1
 185 775 91 682 -80 682 c 0
 -143 682 -196 695 -222 707 c 0
 -266 726 -284 762 -284 798 c 0
 -284 858 -233 930 -151 930 c 0
 -103 930 -60 902 -60 850 c 0
-163 873 m 0
 -189 873 -220 852 -220 815 c 0
 -220 788 -197 781 -183 781 c 0
 -145 781 -126 814 -126 837 c 0
 -126 858 -141 873 -163 873 c 0
EndSplineSet
EndChar

StartChar: uni0E32
Encoding: 210 3634 178
Width: 493
Flags: W
HStem: 0 21G<314 436.267> 524 78<235.92 379.48>
VStem: 402 118<314.305 502.175>
DStem2: 314 0 432 0 0.207912 0.978148<24.5336 445.807>
LayerCount: 2
Fore
SplineSet
197 453 m 1
 116 482 l 1
 116 484 154 602 349 602 c 0
 481 602 520 528 520 446 c 0
 520 422 517 399 512 375 c 2
 432 0 l 1
 314 0 l 1
 394 377 l 2
 398 397 402 418 402 438 c 0
 402 485 383 524 319 524 c 0
 224 524 202 468 197 453 c 1
EndSplineSet
EndChar

StartChar: uni0E34
Encoding: 212 3636 180
Width: 0
Flags: W
HStem: 718 59<-341.134 -53.5287> 848 66<-237.787 -73.0705>
AnchorPoint: "AboveMark" 63 988 basemark 0
AnchorPoint: "AboveBase" 43 613 mark 0
LayerCount: 2
Fore
SplineSet
61 638 m 1
 26 675 -75 718 -224 718 c 0
 -350 718 -425 682 -427 682 c 1
 -398 792 -296 914 -134 914 c 0
 23 914 65 773 65 684 c 0
 65 666 64 650 61 638 c 1
-22 748 m 1
 -27 787 -60 848 -152 848 c 0
 -262 848 -298 766 -298 766 c 1
 -298 766 -254 777 -189 777 c 0
 -94 777 -22 748 -22 748 c 1
EndSplineSet
EndChar

StartChar: uni0E35
Encoding: 213 3637 181
Width: 0
Flags: W
HStem: 701 59<-344.252 -58.0996> 831 65<-240.275 -73.0957>
AnchorPoint: "AboveMark" 63 988 basemark 0
AnchorPoint: "AboveBase" 43 613 mark 0
LayerCount: 2
Fore
SplineSet
58 621 m 1
 24 657 -77 701 -227 701 c 0
 -353 701 -429 665 -429 665 c 1
 -404 778 -292 896 -142 896 c 0
 -91 896 -49 882 -21 863 c 1
 -5 938 l 1
 110 938 l 1
 61 705 l 1
 62 697 62 687 62 677 c 0
 62 656 60 633 58 621 c 1
-24 731 m 1
 -29 769 -61 831 -154 831 c 0
 -264 831 -301 750 -301 750 c 1
 -301 750 -256 760 -192 760 c 0
 -96 760 -24 731 -24 731 c 1
EndSplineSet
EndChar

StartChar: uni0E36
Encoding: 214 3638 182
Width: 0
Flags: W
HStem: 700 59<-345.134 -48.6374> 829 66<-240.288 -74.1136> 907 52<-0.363552 77.3781>
VStem: 81 51<826.159 903.309>
AnchorPoint: "AboveMark" 54 988 basemark 0
AnchorPoint: "AboveBase" 43 613 mark 0
LayerCount: 2
Fore
SplineSet
132 887 m 0
 132 853 115 795 43 765 c 1
 58 727 62 702 62 683 c 0
 62 665 58 651 55 635 c 1
 18 666 -93 700 -228 700 c 0
 -354 700 -429 664 -431 664 c 1
 -418 724 -334 895 -142 895 c 0
 -112 895 -87 890 -70 884 c 1
 -68 894 -19 959 51 959 c 0
 100 959 132 931 132 887 c 0
-26 730 m 1
 -29 753 -50 829 -156 829 c 0
 -266 829 -302 748 -302 748 c 1
 -302 748 -258 759 -193 759 c 0
 -98 759 -26 730 -26 730 c 1
42 907 m 0
 7 907 -14 875 -14 849 c 0
 -14 827 1 814 27 814 c 0
 60 814 81 844 81 870 c 0
 81 889 69 907 42 907 c 0
EndSplineSet
EndChar

StartChar: uni0E37
Encoding: 215 3639 183
Width: 0
Flags: W
HStem: 712 59<-354.041 -70.1436> 842 65<-251.217 -144>
AnchorPoint: "AboveMark" -6 988 basemark 0
AnchorPoint: "AboveBase" 43 613 mark 0
LayerCount: 2
Fore
SplineSet
48 632 m 1
 13 667 -87 712 -239 712 c 0
 -365 712 -438 676 -440 676 c 1
 -423 758 -330 907 -144 907 c 1
 -134 953 l 1
 -42 953 l 1
 -55 894 l 1
 -21 886 -16 857 -13 857 c 1
 8 953 l 1
 108 953 l 1
 50 684 l 1
 48 632 l 1
-35 742 m 1
 -38 766 -60 842 -166 842 c 0
 -276 842 -310 760 -310 760 c 1
 -310 760 -267 771 -203 771 c 0
 -107 771 -35 742 -35 742 c 1
EndSplineSet
EndChar

StartChar: uni0E38
Encoding: 216 3640 184
Width: 0
Flags: W
HStem: -196 59<-249.761 -229.406> -81 53<-246.701 -175.5>
VStem: -308 58<-136.876 -85.0872> -193 80<-134.152 -81.0613>
AnchorPoint: "BelowBase" -93 -26 mark 0
LayerCount: 2
Fore
SplineSet
-308 -131 m 0
 -308 -98 -285 -28 -191 -28 c 0
 -160 -28 -113 -38 -113 -103 c 0
 -113 -115 -114 -128 -117 -143 c 2
 -152 -308 l 1
 -258 -308 l 1
 -234 -195 l 1
 -238 -196 -243 -196 -247 -196 c 0
 -274 -196 -308 -173 -308 -131 c 0
-227 -137 m 0
 -212 -137 -193 -123 -193 -104 c 0
 -193 -91 -202 -81 -215 -81 c 0
 -230 -81 -250 -95 -250 -114 c 0
 -250 -127 -240 -137 -227 -137 c 0
EndSplineSet
Substitution2: "Thai Sara U Nikhahit Reordering" uni0E4D
Substitution2: "Thai Sara U Thanthakhat Reordering" uni0E4C.low
Substitution2: "Thai Sara U Mai Chattawa Reordering" uni0E4B.low
Substitution2: "Thai Sara U Mai Tri Reordering" uni0E4A.low
Substitution2: "Thai Sara U Mai Tho Reordering" uni0E49.low
Substitution2: "Thai Sara U Mai Ek Reordering" uni0E48.low
EndChar

StartChar: uni0E39
Encoding: 217 3641 185
Width: 0
Flags: W
HStem: -296 71<-304 -243.35> -220 65<-423.134 -404> -84 58<-418.12 -362.323>
VStem: -490 65<-154.711 -89.4234> -361 78<-150.641 -84.6581>
DStem2: -260.327 -296 -144.327 -296 0.207912 0.978148<68.5007 270.92>
AnchorPoint: "BelowBase" -93 -26 mark 0
LayerCount: 2
Fore
SplineSet
-490 -153 m 0
 -490 -84 -435 -26 -366 -26 c 0
 -305 -26 -283 -64 -283 -110 c 0
 -283 -123 -285 -136 -288 -149 c 2
 -304 -225 l 1
 -270 -225 l 2
 -253 -225 -239 -201 -235 -181 c 2
 -204 -31 l 1
 -88 -31 l 1
 -129 -227 l 2
 -133 -245 -175 -296 -215 -296 c 2
 -420 -296 l 1
 -404 -219 l 1
 -409 -219 -414 -220 -418 -220 c 0
 -474 -220 -490 -188 -490 -153 c 0
-386 -84 m 0
 -410 -84 -425 -108 -425 -128 c 0
 -425 -143 -417 -155 -399 -155 c 0
 -375 -155 -361 -132 -361 -112 c 0
 -361 -97 -369 -84 -386 -84 c 0
EndSplineSet
Substitution2: "Thai Sara UU Nikhahit Reordering" uni0E4D
Substitution2: "Thai Sara UU Thanthakhat Reordering" uni0E4C.low
Substitution2: "Thai Sara UU Mai Chattawa Reordering" uni0E4B.low
Substitution2: "Thai Sara UU Mai Tri Reordering" uni0E4A.low
Substitution2: "Thai Sara UU Mai Tho Reordering" uni0E49.low
Substitution2: "Thai Sara UU Mai Ek Reordering" uni0E48.low
EndChar

StartChar: uni0E3A
Encoding: 218 3642 186
Width: 0
Flags: W
HStem: -261 175<-238.42 -149.441>
VStem: -283 178<-216.235 -130.98>
AnchorPoint: "BelowBase" -93 -26 mark 0
LayerCount: 2
Fore
SplineSet
-283 -194 m 0
 -283 -143 -241 -86 -176 -86 c 0
 -127 -86 -105 -118 -105 -154 c 0
 -105 -205 -148 -261 -213 -261 c 0
 -262 -261 -283 -229 -283 -194 c 0
EndSplineSet
Substitution2: "Thai Phinthu Nikhahit Reordering" uni0E4D
Substitution2: "Thai Phinthu Thanthakhat Reordering" uni0E4C.low
Substitution2: "Thai Phinthu Mai Chattawa Reordering" uni0E4B.low
Substitution2: "Thai Phinthu Mai Tri Reordering" uni0E4A.low
Substitution2: "Thai Phinthu Mai Tho Reordering" uni0E49.low
Substitution2: "Thai Phinthu Mai Ek Reordering" uni0E48.low
Substitution2: "Thai Phinthu Maitaikhu Reordering" uni0E47
EndChar

StartChar: uni0E4D.high
Encoding: 219 63262 187
Width: 0
Flags: W
HStem: 995 66<-12.663 77.4689> 1176 69<2.5311 92.41>
VStem: -88 69<1067.13 1153.51> 99 69<1083.11 1170.22>
AnchorPoint: "AboveMark" 13 988 mark 0
LayerCount: 2
Fore
SplineSet
-88 1091 m 0
 -88 1164 -27 1245 67 1245 c 0
 138 1245 168 1200 168 1149 c 0
 168 1076 107 995 13 995 c 0
 -58 995 -88 1040 -88 1091 c 0
52 1176 m 0
 10 1176 -19 1139 -19 1105 c 0
 -19 1082 -4 1061 28 1061 c 0
 70 1061 99 1097 99 1131 c 0
 99 1155 84 1176 52 1176 c 0
EndSplineSet
EndChar

StartChar: dottedcircle
Encoding: 221 9676 188
Width: 718
Flags: W
HStem: -14 75<346.227 407.042> 23 75<203.958 264.773> 34 75<485.227 546.042> 115 75<125.91 186.042> 127 74<587.301 647.358> 256 75<650.644 711.255> 264 75<120.25 181.042> 397 75<193.503 252.237 647.989 706.718> 481 75<567.411 629.644> 489 75<314.174 375.445> 523 75<458.797 520.152>
VStem: 118 76<123.127 182.203 276.01 334.254> 186 74<404.17 464.699> 196 77<31.1274 89.8727> 306 77<497.309 556.203> 338 77<-5.87265 52.8726> 451 77<531.127 590.09> 477 77<42.1274 100.873> 560 77<489.309 548.236> 580 75<134.625 193.404> 636 75<399.125 458.404> 643 76<264.309 323.358>
LayerCount: 2
Fore
SplineSet
186 427 m 0x0108
 186 451 208 472 230 472 c 0
 249 472 260 459 260 443 c 0
 260 422 242 397 214 397 c 0
 197 397 186 410 186 427 c 0x0108
306 519 m 0x0142
 306 541 328 564 351 564 c 0
 370 564 383 551 383 534 c 0
 383 507 356 489 335 489 c 0
 318 489 306 502 306 519 c 0x0142
196 53 m 0x4104
 196 79 222 98 243 98 c 0
 260 98 273 85 273 68 c 0
 273 46 251 23 227 23 c 0
 209 23 196 36 196 53 c 0x4104
118 145 m 0x1110
 118 167 139 190 163 190 c 0
 181 190 194 177 194 160 c 0
 194 134 168 115 147 115 c 0
 130 115 118 128 118 145 c 0x1110
477 64 m 0x210040
 477 86 499 109 523 109 c 0
 541 109 554 96 554 79 c 0
 554 53 528 34 507 34 c 0
 490 34 477 47 477 64 c 0x210040
580 155 m 0x090010
 580 179 601 201 625 201 c 0
 642 201 655 188 655 171 c 0
 655 152 636 127 609 127 c 0
 591 127 580 138 580 155 c 0x090010
636 420 m 0x010008
 636 444 657 466 681 466 c 0
 698 466 711 453 711 436 c 0
 711 414 689 391 665 391 c 0
 647 391 636 403 636 420 c 0x010008
560 511 m 0x018020
 560 536 584 556 605 556 c 0
 624 556 637 544 637 526 c 0
 637 499 611 481 589 481 c 0
 572 481 560 494 560 511 c 0x018020
643 286 m 0x050004
 643 312 668 331 688 331 c 0
 706 331 719 318 719 301 c 0
 719 274 692 256 672 256 c 0
 655 256 643 269 643 286 c 0x050004
112 293 m 0
 112 315 134 339 158 339 c 0
 176 339 189 327 189 309 c 0
 189 283 163 264 142 264 c 0x03
 124 264 112 277 112 293 c 0
338 16 m 0x8101
 338 38 360 61 384 61 c 0
 402 61 415 48 415 31 c 0
 415 5 389 -14 368 -14 c 0
 351 -14 338 -1 338 16 c 0x8101
451 553 m 0x012080
 451 577 474 598 496 598 c 0
 515 598 528 585 528 568 c 0
 528 547 508 523 480 523 c 0
 463 523 451 536 451 553 c 0x012080
EndSplineSet
EndChar

StartChar: uni0E3F
Encoding: 223 3647 189
Width: 646
Flags: W
HStem: 0 100<222 267 395 465.031> 311 100<288 333 462 504.276> 600 100<329 395 523 557.994>
VStem: 530 113<163.285 285.093> 575 125<481.737 581.635>
DStem2: 56.643 -124 174.387 -124 0.207912 0.978148<253.485 469.23 571.411 764.805> 241 -124 348 -124 0.207912 0.978148<22.2465 126.696 252.102 444.622 571.214 740.197 864.625 957.899>
LayerCount: 2
Fore
SplineSet
354 411 m 1xe0
 395 600 l 1
 329 600 l 1
 288 411 l 1
 354 411 l 1xe0
288 100 m 1
 333 311 l 1
 267 311 l 1
 222 100 l 1
 288 100 l 1
395 101 m 1
 511 110 530 199 530 231 c 0xf0
 530 264 514 306 440 309 c 1
 395 101 l 1
462 413 m 1
 540 417 575 484 575 531 c 0xe8
 575 569 551 600 502 600 c 1
 462 413 l 1
643 218 m 0xf0
 643 150 601 0 374 0 c 1
 348 -124 l 1
 241 -124 l 1
 267 0 l 1
 83 0 l 1
 232 700 l 1
 416 700 l 1
 440 813 l 1
 547 813 l 1
 523 700 l 1
 635 700 700 665 700 576 c 0xe8
 700 464 622 389 535 365 c 1
 531 357 l 1
 603 340 643 286 643 218 c 0xf0
EndSplineSet
EndChar

StartChar: uni0E40
Encoding: 224 3648 190
Width: 360
Flags: W
HStem: -5 68<208.631 276.702> 141 68<254 283.963> 575 20G<213.769 336>
VStem: 115 92<64.2239 130.232> 285 72<71.481 138.918>
DStem2: 90.9425 -5 208.725 -5 0.207912 0.978148<242.247 613.305>
LayerCount: 2
Fore
SplineSet
357 129 m 0
 357 70 311 -5 213 -5 c 0
 138 -5 115 41 115 89 c 0
 115 102 116 115 119 127 c 2
 218 595 l 1
 336 595 l 1
 254 208 l 2
 255 208 259 209 267 209 c 0
 295 209 357 194 357 129 c 0
237 63 m 0
 265 63 285 87 285 111 c 0
 285 127 276 141 254 141 c 0
 226 141 207 117 207 93 c 0
 207 77 215 63 237 63 c 0
EndSplineSet
EndChar

StartChar: uni0E41
Encoding: 225 3649 191
Width: 649
Flags: W
HStem: -5 68<204.108 270.03 498.645 564.856> 142 68<249 279.001 544 573.841> 575 20G<208.769 331 503.769 626>
VStem: 110 92<64.2239 130.362> 280 72<71.655 140.409> 405 92<64.8386 130.362> 575 72<72.9163 139.914>
DStem2: 85.9425 -5 203.513 -5 0.207912 0.978148<243.225 613.305> 380.943 -5 498.513 -5 0.207912 0.978148<243.225 613.305>
LayerCount: 2
Fore
SplineSet
647 129 m 0
 647 81 610 -5 503 -5 c 0
 427 -5 405 40 405 88 c 0
 405 101 406 115 409 127 c 2
 508 595 l 1
 626 595 l 1
 544 209 l 1
 544 209 550 210 557 210 c 0
 601 210 647 183 647 129 c 0
352 129 m 0
 352 69 306 -5 209 -5 c 0
 133 -5 110 41 110 89 c 0
 110 102 111 115 114 127 c 2
 213 595 l 1
 331 595 l 1
 249 209 l 2
 250 209 255 210 263 210 c 0
 299 210 352 189 352 129 c 0
527 63 m 0
 556 63 575 90 575 112 c 0
 575 128 566 142 544 142 c 0
 516 142 497 115 497 93 c 0
 497 77 506 63 527 63 c 0
232 63 m 0
 261 63 280 90 280 112 c 0
 280 128 271 142 249 142 c 0
 220 142 202 115 202 93 c 0
 202 77 210 63 232 63 c 0
EndSplineSet
EndChar

StartChar: uni0E42
Encoding: 226 3650 192
Width: 389
Flags: W
HStem: -5 68<202.367 305.873> 142 68<283 313.352> 941 78<501.972 661.475> 985 78<317.145 492.237>
VStem: 144 94<63.681 130.703> 288 121<704.031 840.673> 315 71<72.9422 140.507>
DStem2: 119.943 -5 237.513 -5 0.207912 0.978148<243.225 816.16>
LayerCount: 2
Fore
SplineSet
386 127 m 0xda
 386 70 340 -5 242 -5 c 0
 166 -5 144 40 144 88 c 0
 144 101 145 115 148 127 c 2
 285 773 l 2
 287 780 288 787 288 794 c 0
 288 840 250 869 145 869 c 1
 170 985 284 1063 393 1063 c 0xdc
 465 1063 533 1019 605 1019 c 0
 653 1019 671 1053 678 1056 c 1
 696 975 l 1
 696 975 664 941 595 941 c 0xec
 531 941 461 985 391 985 c 0
 307 985 282 924 282 924 c 1
 340 924 409 879 409 810 c 0xdc
 409 803 408 795 406 787 c 2
 283 209 l 1
 283 209 289 210 297 210 c 0
 338 210 386 185 386 127 c 0xda
267 63 m 0
 295 63 315 90 315 112 c 0xca
 315 128 305 142 284 142 c 0
 256 142 238 115 238 93 c 0
 238 77 246 63 267 63 c 0
EndSplineSet
EndChar

StartChar: uni0E43
Encoding: 227 3651 193
Width: 452
Flags: W
HStem: -5 68<303.335 369.805> 142 68<349 378.378> 722 51<212.815 276.024> 878 51<237.512 283.957> 1006 68<283.402 424.546>
VStem: 137 72<775.19 866.796> 210 91<64.3479 130.158> 288 55<782.798 875.26> 380 72<71.8765 140.574> 442 99<852.938 988.497>
DStem2: 185.943 -5 303.513 -5 0.207912 0.978148<243.225 794.056>
LayerCount: 2
Fore
SplineSet
452 129 m 0xfc80
 452 70 406 -5 308 -5 c 0
 233 -5 210 41 210 89 c 0xfe80
 210 102 211 115 214 127 c 2
 329 670 l 2
 354 787 414 783 438 898 c 0
 441 911 442 924 442 934 c 0
 442 991 403 1006 357 1006 c 0
 269 1006 238 932 237 929 c 1
 239 929 248 932 262 932 c 0
 301 932 343 917 343 859 c 0
 343 790 298 722 229 722 c 0
 171 722 137 771 137 835 c 0
 137 922 206 1074 387 1074 c 0
 480 1074 541 1024 541 944 c 0xfd40
 541 845 480 821 449 677 c 2
 349 209 l 2
 350 209 355 210 363 210 c 0
 397 210 452 191 452 129 c 0xfc80
256 878 m 0
 227 878 209 846 209 815 c 0
 209 793 219 773 241 773 c 0
 270 773 288 805 288 836 c 0xfd
 288 858 278 878 256 878 c 0
332 63 m 0
 361 63 380 90 380 112 c 0
 380 128 371 142 349 142 c 0
 320 142 301 116 301 94 c 0xfe80
 301 78 310 63 332 63 c 0
EndSplineSet
EndChar

StartChar: uni0E44
Encoding: 228 3652 194
Width: 458
Flags: W
HStem: -5 68<296.147 362.864> 141 68<341 370.732> 791 142<221 315.5> 943 118<413.435 488>
VStem: 202 92<64.3151 129.658> 373 72<71.9124 139.326> 434 118<901.063 1016>
DStem2: 177.943 -5 295.725 -5 0.207912 0.978148<242.247 825.147>
LayerCount: 2
Fore
SplineSet
445 128 m 0xfc
 445 71 400 -5 301 -5 c 0
 225 -5 202 41 202 89 c 0
 202 102 203 115 206 127 c 2
 330 710 l 2
 347 791 434 869 434 924 c 0
 434 940 424 943 416 943 c 0
 375 943 300 791 250 791 c 0
 192 791 225 951 165 951 c 0
 160 951 155 950 153 950 c 1
 204 1076 l 1
 213 1076 l 2
 305 1076 259 933 295 933 c 0
 331 933 389 1061 473 1061 c 0
 503 1061 552 1046 552 986 c 0xfa
 552 902 468 806 447 708 c 2
 341 208 l 2
 342 208 346 209 354 209 c 0
 392 209 445 187 445 128 c 0xfc
325 63 m 0
 353 63 373 90 373 111 c 0xfc
 373 127 363 141 342 141 c 0
 313 141 294 115 294 93 c 0
 294 77 303 63 325 63 c 0
EndSplineSet
EndChar

StartChar: uni0E45
Encoding: 229 3653 195
Width: 308
Flags: W
HStem: -199 21G<79 201.251> 524 78<43.5736 186.872>
VStem: 209 118<313.109 502.175>
DStem2: 79 -199 197 -199 0.207912 0.978148<24.5336 649.19>
LayerCount: 2
Fore
SplineSet
4 453 m 1
 -77 482 l 1
 -77 484 -39 602 157 602 c 0
 288 602 327 528 327 446 c 0
 327 422 324 399 319 375 c 2
 197 -199 l 1
 79 -199 l 1
 201 377 l 2
 205 397 209 418 209 438 c 0
 209 485 190 524 126 524 c 0
 33 524 9 468 4 453 c 1
EndSplineSet
EndChar

StartChar: uni0E46
Encoding: 230 3654 196
Width: 675
Flags: W
HStem: 267 57<299.41 354.33> 383 57<323.749 357.728> 582 20G<327.5 420.407 532.482 612>
VStem: 207 91<324.707 418.812> 358 64<327.275 382.16> 581 123<431.363 512.221>
DStem2: 433.412 -236 551.412 -236 0.207912 0.978148<142.976 714.136>
LayerCount: 2
Fore
SplineSet
422 376 m 0
 422 334 386 267 304 267 c 0
 235 267 207 318 207 377 c 0
 207 458 262 582 393 602 c 1
 467 548 l 1
 571 602 l 1
 653 599 704 556 704 492 c 0
 704 483 702 473 700 463 c 2
 602 2 l 2
 571 -142 483 -213 372 -236 c 1
 313 -155 l 1
 403 -131 460 -113 484 2 c 2
 579 446 l 2
 580 452 581 457 581 463 c 0
 581 494 562 515 548 519 c 1
 450 467 l 1
 378 519 l 1
 368 519 323 493 323 435 c 1
 325 435 340 440 356 440 c 0
 393 440 422 415 422 376 c 0
322 324 m 0
 344 324 358 344 358 360 c 0
 358 372 350 383 334 383 c 0
 313 383 298 363 298 347 c 0
 298 335 306 324 322 324 c 0
EndSplineSet
EndChar

StartChar: uni0E47
Encoding: 231 3655 197
Width: 0
Flags: W
HStem: 674 63<-43.639 10.8573> 759 94<-203.727 -132.786> 808 60<-37.6547 16.0519> 926 80<-133.593 80.6569> 942 70<-206.455 3.73126>
VStem: -350 96<786.812 893.342> 17 54<741.629 807.331> 108 99<1037.21 1093>
AnchorPoint: "AboveBase" 43 613 mark 0
LayerCount: 2
Fore
SplineSet
-350 795 m 0xc7
 -350 870 -307 1012 -132 1012 c 0xcf
 -88 1012 -44 1006 -3 1006 c 0
 98 1006 89 1043 108 1093 c 1
 207 1093 l 1
 181 995 138 926 15 926 c 0x97
 -41 926 -81 942 -140 942 c 0
 -240 942 -254 847 -254 828 c 0
 -254 798 -235 786 -233 786 c 1
 -231 796 -207 853 -161 853 c 0xcf
 -121 853 -90 805 -90 805 c 1
 -90 805 -64 868 4 868 c 0xa7
 46 868 71 841 71 799 c 0
 71 741 32 674 -39 674 c 0
 -113 674 -126 759 -167 759 c 0
 -219 759 -222 673 -222 673 c 1
 -299 674 -350 715 -350 795 c 0xc7
-21 737 m 0
 2 737 17 761 17 782 c 0
 17 796 10 808 -6 808 c 0xa7
 -29 808 -45 782 -45 762 c 0
 -45 748 -37 737 -21 737 c 0
EndSplineSet
Substitution2: "Thai Mark High Variant" uni0E47.high
Substitution2: "Thai Phinthu Maitaikhu Reordering" uni0E3A
EndChar

StartChar: uni0E48
Encoding: 232 3656 198
Width: 0
Flags: W
HStem: 992 202<53 121>
VStem: 10 154
DStem2: 10 992 121 992 0.207912 0.978148<23.0782 206.526>
AnchorPoint: "AboveMark" 65 988 mark 0
LayerCount: 2
Fore
SplineSet
10 992 m 1
 53 1194 l 1
 164 1194 l 1
 121 992 l 1
 10 992 l 1
EndSplineSet
Substitution2: "Thai Phinthu Mai Ek Reordering" uni0E3A
Substitution2: "Thai Sara UU Mai Ek Reordering" uni0E39
Substitution2: "Thai Sara U Mai Ek Reordering" uni0E38
Substitution2: "Thai Tone Low Variant" uni0E48.low
MultipleSubs2: "Thai Tone Nikhahit Attachment" uni0E4D uni0E48
EndChar

StartChar: uni0E49
Encoding: 233 3657 199
Width: 0
Flags: W
HStem: 1058 47<-95.3683 -82> 1185 49<-88.6948 -18.3684>
VStem: -151 54<1106.71 1177.16> -17 64<1112.7 1182.66>
AnchorPoint: "AboveMark" -45 988 mark 0
LayerCount: 2
Fore
SplineSet
-151 1121 m 0
 -151 1172 -106 1234 -42 1234 c 0
 11 1234 47 1209 47 1161 c 0
 47 1112 12 1060 -18 1042 c 1
 12 1045 89 1063 165 1124 c 1
 220 1166 258 1222 258 1222 c 1
 229 1088 l 1
 177 1044 58 977 -127 977 c 0
 -143 977 -158 978 -169 979 c 1
 -169 979 -138 995 -113 1021 c 0
 -87 1047 -82 1058 -82 1058 c 1
 -113 1058 -151 1075 -151 1121 c 0
-50 1185 m 0
 -78 1185 -97 1161 -97 1137 c 0
 -97 1120 -87 1105 -64 1105 c 0
 -36 1105 -17 1128 -17 1153 c 0
 -17 1170 -27 1185 -50 1185 c 0
EndSplineSet
Substitution2: "Thai Phinthu Mai Tho Reordering" uni0E3A
Substitution2: "Thai Sara UU Mai Tho Reordering" uni0E39
Substitution2: "Thai Sara U Mai Tho Reordering" uni0E38
Substitution2: "Thai Tone Low Variant" uni0E49.low
MultipleSubs2: "Thai Tone Nikhahit Attachment" uni0E4D uni0E49
EndChar

StartChar: uni0E4A
Encoding: 234 3658 200
Width: 0
Flags: W
HStem: 988 36<-125.645 -65.8054> 1090 34<-104.687 -59.6815> 1090 27<-104.431 -69.8884> 1177 29<24.0432 38.9604> 1179 62<-88.7126 -2.53697>
VStem: -176 49<1025.03 1084.49> -58 40<1029.59 1088.8> 97 75<1091.62 1175.22> 257 72<1174.56 1197.99>
AnchorPoint: "AboveMark" -13 988 mark 0
LayerCount: 2
Fore
SplineSet
135 1068 m 1x9780
 194 1091 242 1167 257 1235 c 1
 329 1194 l 1
 329 1194 283 1088 182 1036 c 1
 116 1004 29 992 4 992 c 1
 30 998 97 1071 97 1140 c 0
 97 1162 88 1177 66 1177 c 0x9780
 43 1177 4 1151 4 1151 c 2
 3 1151 -19 1179 -52 1179 c 0
 -86 1179 -105 1132 -105 1117 c 1xaf80
 -104 1117 -88 1124 -69 1124 c 0
 -37 1124 -18 1105 -18 1075 c 0
 -18 1022 -63 988 -104 988 c 0
 -135 988 -176 1006 -176 1068 c 0
 -176 1134 -129 1241 -46 1241 c 0xcf80
 0 1241 17 1206 18 1206 c 0
 20 1206 62 1242 105 1242 c 0
 141 1242 172 1219 172 1170 c 0
 172 1113 135 1069 135 1068 c 1x9780
-85 1090 m 0xc780
 -111 1090 -127 1068 -127 1049 c 0
 -127 1035 -118 1024 -99 1024 c 0
 -68 1024 -58 1052 -58 1065 c 0
 -58 1079 -66 1090 -85 1090 c 0xc780
EndSplineSet
Substitution2: "Thai Phinthu Mai Tri Reordering" uni0E3A
Substitution2: "Thai Sara UU Mai Tri Reordering" uni0E39
Substitution2: "Thai Sara U Mai Tri Reordering" uni0E38
Substitution2: "Thai Tone Low Variant" uni0E4A.low
MultipleSubs2: "Thai Tone Nikhahit Attachment" uni0E4D uni0E4A
EndChar

StartChar: uni0E4B
Encoding: 235 3659 201
Width: 0
Flags: W
HStem: 1064 69<-62 24 152 238>
VStem: -77 330
AnchorPoint: "AboveMark" 65 988 mark 0
LayerCount: 2
Fore
SplineSet
59 1226 m 1
 172 1226 l 1
 152 1133 l 1
 253 1133 l 1
 238 1064 l 1
 137 1064 l 1
 120 984 l 1
 7 984 l 1
 24 1064 l 1
 -77 1064 l 1
 -62 1133 l 1
 39 1133 l 1
 59 1226 l 1
EndSplineSet
Substitution2: "Thai Phinthu Mai Chattawa Reordering" uni0E3A
Substitution2: "Thai Sara UU Mai Chattawa Reordering" uni0E39
Substitution2: "Thai Sara U Mai Chattawa Reordering" uni0E38
Substitution2: "Thai Tone Low Variant" uni0E4B.low
MultipleSubs2: "Thai Tone Nikhahit Attachment" uni0E4D uni0E4B
EndChar

StartChar: uni0E4C
Encoding: 236 3660 202
Width: 0
Flags: W
HStem: 883 41<46.4297 116.974> 1009 39<97 125.005>
VStem: -12 56<926.041 998.656> 128 43<934.911 1006.68> 260 81<1165.05 1214>
AnchorPoint: "AboveMark" 76 919 mark 0
LayerCount: 2
Fore
SplineSet
171 982 m 0
 171 915 112 883 64 883 c 0
 16 883 -12 914 -12 960 c 0
 -12 1007 17 1062 63 1090 c 0
 150 1142 237 1108 260 1214 c 1
 341 1214 l 1
 340 1209 322 1151 291 1125 c 0
 261 1100 227 1082 157 1076 c 0
 105 1071 97 1048 97 1048 c 1
 100 1048 171 1048 171 982 c 0
94 1009 m 0
 65 1009 44 981 44 956 c 0
 44 939 54 924 76 924 c 0
 108 924 128 951 128 976 c 0
 128 994 118 1009 94 1009 c 0
EndSplineSet
Substitution2: "Thai Phinthu Thanthakhat Reordering" uni0E3A
Substitution2: "Thai Sara UU Thanthakhat Reordering" uni0E39
Substitution2: "Thai Sara U Thanthakhat Reordering" uni0E38
Substitution2: "Thai Tone Low Variant" uni0E4C.low
MultipleSubs2: "Thai Tone Nikhahit Attachment" uni0E4D uni0E4C
EndChar

StartChar: uni0E4D
Encoding: 237 3661 203
Width: 0
Flags: W
HStem: 696 68<-75.8211 13.0032> 878 68<-60.0032 28.8211>
VStem: -152 70<769.632 855.655> 35 70<786.345 872.368>
AnchorPoint: "AboveMark" 13 988 basemark 0
AnchorPoint: "AboveBase" 43 613 mark 0
LayerCount: 2
Fore
SplineSet
-152 791 m 0
 -152 861 -95 946 3 946 c 0
 74 946 105 903 105 851 c 0
 105 781 48 696 -50 696 c 0
 -121 696 -152 739 -152 791 c 0
-11 878 m 0
 -53 878 -82 841 -82 808 c 0
 -82 785 -68 764 -36 764 c 0
 6 764 35 801 35 834 c 0
 35 857 21 878 -11 878 c 0
EndSplineSet
Substitution2: "Thai Phinthu Nikhahit Reordering" uni0E3A
Substitution2: "Thai Sara UU Nikhahit Reordering" uni0E39
Substitution2: "Thai Sara U Nikhahit Reordering" uni0E38
Substitution2: "Thai Mark High Variant" uni0E4D.high
EndChar

StartChar: uni0E4E
Encoding: 238 3662 204
Width: 0
Flags: W
HStem: 717 69<-72.5 58.5356> 878 63<75.5869 106> 1018 61<90.6988 218.823>
VStem: -148 117<760.991 847.975> -31 104<946.745 1000.34>
AnchorPoint: "AboveBase" 43 613 mark 0
LayerCount: 2
Fore
SplineSet
-31 966 m 0
 -31 1056 110 1079 183 1079 c 0
 217 1079 236 1071 265 1056 c 1
 197 1010 l 1
 186 1013 175 1018 152 1018 c 0
 119 1018 73 997 73 969 c 0
 73 950 104 941 126 941 c 2
 148 941 l 1
 106 878 l 1
 97 878 l 2
 58 878 -31 863 -31 809 c 0
 -31 794 -16 786 0 786 c 0
 29 786 42 792 64 812 c 1
 111 766 l 1
 57 728 14 717 -46 717 c 0
 -99 717 -148 735 -148 787 c 0
 -148 845 -92 910 -13 926 c 1
 -24 937 -31 949 -31 966 c 0
EndSplineSet
EndChar

StartChar: uni0E4F
Encoding: 239 3663 205
Width: 596
Flags: W
HStem: -2 36<217.297 396.419> 109 36<269.753 394.047> 361 36<308.349 432.114> 472 36<304.583 482.367>
VStem: 89 37<120.142 293.316> 203 37<174.457 292.813> 461 37<212.793 333.316> 573 37<211.852 386.232>
LayerCount: 2
Fore
SplineSet
89 195 m 0
 89 344 215 508 404 508 c 0
 546 508 610 416 610 311 c 0
 610 162 485 -2 296 -2 c 0
 154 -2 89 90 89 195 c 0
396 472 m 0
 234 472 126 332 126 203 c 0
 126 113 181 34 303 34 c 0
 473 34 573 183 573 304 c 0
 573 394 519 472 396 472 c 0
319 109 m 0
 430 109 498 205 498 286 c 0
 498 346 461 397 380 397 c 0
 268 397 203 300 203 219 c 0
 203 160 238 109 319 109 c 0
240 228 m 0
 240 293 294 361 374 361 c 0
 435 361 461 322 461 278 c 0
 461 213 408 145 328 145 c 0
 267 145 240 184 240 228 c 0
EndSplineSet
EndChar

StartChar: uni0E50
Encoding: 240 3664 206
Width: 697
Flags: W
HStem: -5 78<273.081 447.585> 345 78<319.667 499.055>
VStem: 113 120<111.118 256.918> 536 119<160.801 309.696>
LayerCount: 2
Fore
SplineSet
113 160 m 0
 113 265 192 423 429 423 c 0
 576 423 655 357 655 257 c 0
 655 152 574 -5 338 -5 c 0
 189 -5 113 59 113 160 c 0
355 73 m 0
 500 73 536 185 536 246 c 0
 536 303 501 345 412 345 c 0
 268 345 233 232 233 175 c 0
 233 116 271 73 355 73 c 0
EndSplineSet
EndChar

StartChar: uni0E51
Encoding: 241 3665 207
Width: 697
Flags: W
HStem: -5 78<269.932 362.118> 201 53<372.168 430.988> 345 78<358.22 529.873>
VStem: 136 118<88.6636 236.404> 309 58<138.279 196.829> 432 61<144.515 200.237> 569 121<148.379 308.511>
LayerCount: 2
Fore
SplineSet
136 139 m 0
 136 239 201 423 459 423 c 0
 627 423 690 344 690 249 c 0
 690 136 598 -8 486 -55 c 1
 433 -6 l 1
 531 25 569 169 569 237 c 0
 569 299 539 345 442 345 c 0
 326 345 254 243 254 147 c 0
 254 103 274 73 319 73 c 0
 343 73 350 81 363 89 c 1
 330 94 309 121 309 153 c 0
 309 199 352 254 417 254 c 0
 476 254 493 219 493 183 c 0
 493 98 398 -5 288 -5 c 0
 217 -5 136 31 136 139 c 0
392 138 m 0
 416 138 432 160 432 177 c 0
 432 190 424 201 406 201 c 0
 382 201 367 179 367 162 c 0
 367 149 374 138 392 138 c 0
EndSplineSet
EndChar

StartChar: uni0E52
Encoding: 242 3666 208
Width: 697
Flags: W
HStem: 0 78<277.77 551.091> 122 50<415.774 466.651> 224 49<433.411 468.636> 345 78<447.966 510.052 567.905 675>
VStem: 150 120<87.339 171.103> 215 120<334.539 502.376> 339 76<172.704 258.191> 469 52<174.079 223.92> 613 120<270.486 346.37>
DStem2: 123.967 0 242.455 0 0.207912 0.978148<152.815 455.562> 546.754 0 665.392 0 0.207912 0.978148<90.7764 329.302>
LayerCount: 2
Fore
SplineSet
339 223 m 0xfb80
 339 296 383 423 491 423 c 0
 541 423 548 391 549 384 c 1
 556 392 582 423 644 423 c 0
 706 423 733 388 733 337 c 0
 733 325 732 313 729 300 c 2
 696 144 l 2
 676 52 620 0 540 0 c 2
 267 0 l 2
 185 0 150 43 150 104 c 0xfb80
 150 117 152 131 155 146 c 2
 210 403 l 2
 214 420 215 434 215 447 c 0
 215 511 171 524 116 524 c 1
 200 612 l 1
 236 610 335 593 335 469 c 0xf780
 335 450 333 429 328 405 c 2
 272 139 l 2
 271 134 270 129 270 125 c 0
 270 91 301 78 320 78 c 2
 485 78 l 2
 539 78 568 101 578 147 c 2
 610 296 l 2
 612 305 613 314 613 323 c 0
 613 336 610 347 597 347 c 0
 577 347 556 325 552 305 c 1
 511 305 l 1
 512 308 512 310 512 313 c 0
 512 330 499 345 481 345 c 0
 435 345 434 271 433 268 c 1
 443 271 451 273 460 273 c 0
 484 273 521 262 521 220 c 0
 521 187 497 122 421 122 c 0
 373 122 339 159 339 223 c 0xfb80
437 172 m 0
 457 172 469 189 469 204 c 0
 469 215 463 224 448 224 c 0
 429 224 415 207 415 192 c 0
 415 181 423 172 437 172 c 0
EndSplineSet
EndChar

StartChar: uni0E53
Encoding: 243 3667 209
Width: 697
Flags: W
HStem: -5 51<197.819 256.611> 345 78<303.11 372.498 511.201 627>
VStem: 123 74<46.5826 105.89> 262 54<50.5523 110.127> 585 119<153.951 337.867>
DStem2: 315.937 -5 433.937 -5 0.207912 0.978148<29.6453 310.48>
LayerCount: 2
Fore
SplineSet
316 103 m 0
 316 47 276 -5 213 -5 c 0
 148 -5 123 29 123 95 c 0
 123 126 129 164 138 208 c 0
 164 332 240 423 346 423 c 0
 421 423 437 390 449 340 c 1
 485 390 518 423 585 423 c 0
 669 423 704 369 704 287 c 0
 704 233 681 102 619 0 c 1
 503 0 l 1
 518 11 585 183 585 276 c 0
 585 313 576 344 546 344 c 0
 508 344 498 298 491 264 c 2
 435 0 l 1
 317 0 l 1
 373 264 l 2
 375 276 377 288 377 300 c 0
 377 324 369 345 345 345 c 0
 263 345 250 163 250 162 c 1
 279 162 316 150 316 103 c 0
223 46 m 0
 241 46 262 61 262 86 c 0
 262 100 255 111 237 111 c 0
 213 111 197 89 197 71 c 0
 197 58 205 46 223 46 c 0
EndSplineSet
EndChar

StartChar: uni0E54
Encoding: 244 3668 210
Width: 697
Flags: W
HStem: -5 78<237.377 387.304> 242 57<390.455 443.158> 335 78<394.051 619.9> 345 78<303.772 538.365> 575 20G<697 745.157>
VStem: 93 122<95.3708 247.98> 324 63<153.5 240.134> 444 56<188.766 241.551>
LayerCount: 2
Fore
SplineSet
93 139 m 0xdf
 93 233 149 423 382 423 c 0xdf
 437 423 485 413 530 413 c 0
 646 413 681 480 713 595 c 1
 795 544 l 1
 778 462 710 335 551 335 c 0xef
 505 335 455 345 401 345 c 0
 242 345 215 219 215 165 c 0
 215 119 234 73 291 73 c 0
 326 73 372 92 388 92 c 1
 385 94 324 122 324 185 c 0
 324 239 367 299 434 299 c 0
 480 299 500 272 500 238 c 0
 500 167 437 146 437 146 c 1
 438 143 439 116 474 104 c 0
 506 92 526 92 554 84 c 1
 591 75 600 54 601 54 c 2
 545 -6 l 1
 534 5 500 20 460 20 c 0
 395 20 322 -5 253 -5 c 0
 167 -5 93 36 93 139 c 0xdf
408 185 m 0
 429 185 444 204 444 220 c 0
 444 232 436 242 420 242 c 0
 396 242 387 219 387 207 c 0
 387 195 393 185 408 185 c 0
EndSplineSet
EndChar

StartChar: uni0E55
Encoding: 245 3669 211
Width: 697
Flags: W
HStem: -5 78<212.466 358.684> 244 55<363.536 417.423> 357 68<286.755 360> 380 78<552.181 647.168> 389 59<447.532 494.083> 546 55<424.263 505.517>
VStem: 69 122<93.4732 251.425> 295 64<156.5 240.374> 341 67<450.972 530.324> 418 56<190.366 243.551> 509 68<462.579 542.59> 509 43<462.767 494.422>
LayerCount: 2
Fore
SplineSet
803 553 m 1xd660
 757 415 642 380 558 380 c 0xd660
 516 380 487 389 485 389 c 2xce60
 485 389 463 360 387 357 c 0
 261 353 214 292 197 212 c 0
 193 192 191 175 191 160 c 0
 191 89 234 73 265 73 c 0
 300 73 355 91 360 91 c 1
 350 93 295 128 295 185 c 0xe760
 295 228 330 299 406 299 c 0
 439 299 474 284 474 239 c 0
 474 165 410 146 410 146 c 1
 416 98 482 95 527 86 c 0
 568 78 575 55 576 55 c 2
 517 -5 l 1
 517 -5 479 20 435 20 c 0
 369 20 294 -5 223 -5 c 0
 149 -5 69 23 69 136 c 0
 69 208 101 362 242 406 c 0
 302 424 346 425 360 425 c 1
 360 425 341 442 341 475 c 0
 341 520 382 601 484 601 c 0
 542 601 577 571 577 523 c 0xe6e0
 577 479 552 459 552 458 c 1xd650
 554 458 564 456 577 456 c 0
 695 456 715 595 718 601 c 1
 803 553 l 1xd660
469 546 m 0
 430 546 408 513 408 485 c 0
 408 465 420 448 448 448 c 0xcee0
 487 448 509 481 509 509 c 0
 509 529 497 546 469 546 c 0
383 187 m 0
 404 187 418 205 418 223 c 0
 418 234 411 244 395 244 c 0
 374 244 359 225 359 209 c 0xc740
 359 197 367 187 383 187 c 0
EndSplineSet
EndChar

StartChar: uni0E56
Encoding: 246 3670 212
Width: 697
Flags: W
HStem: -5 78<371.637 516.332> 198 55<302.657 364.28> 345 78<376.059 562.933>
VStem: 231 66<99 192.083> 252 89<381 482.973> 365 62<138.096 197.116> 602 120<159.52 307.316>
LayerCount: 2
Fore
SplineSet
441 73 m 0xf6
 538 73 602 158 602 246 c 0
 602 312 555 345 476 345 c 0
 412 345 349 326 301 277 c 1
 243 277 l 1
 243 277 252 330 252 384 c 0
 252 416 249 447 239 469 c 0
 201 548 153 554 153 554 c 1
 261 617 l 1
 267 617 341 564 341 434 c 0xee
 341 404 337 382 337 381 c 1
 341 384 390 423 512 423 c 0
 675 423 722 347 722 265 c 0
 722 168 662 -5 425 -5 c 0
 270 -5 231 70 231 128 c 0
 231 189 276 253 357 253 c 0
 406 253 427 223 427 184 c 0
 427 113 371 87 371 87 c 1
 373 86 401 73 441 73 c 0xf6
325 133 m 0
 349 133 365 153 365 173 c 0
 365 186 357 198 339 198 c 0
 314 198 297 176 297 158 c 0xf6
 297 145 306 133 325 133 c 0
EndSplineSet
EndChar

StartChar: uni0E57
Encoding: 247 3671 213
Width: 697
Flags: W
HStem: -5 56<158.624 215.764> 113 54<162.182 219.953> 345 78<204.144 276.033 375.03 476>
VStem: 34 120<52.2904 269.072> 220 62<54.4433 112.364> 448 122<191.175 341.004>
LayerCount: 2
Fore
SplineSet
34 150 m 0
 34 278 108 423 241 423 c 0
 326 423 332 359 333 354 c 1
 349 386 386 423 448 423 c 0
 504 423 570 405 570 306 c 0
 570 287 567 265 562 240 c 0
 540 136 497 104 497 104 c 1
 503 107 554 116 601 210 c 0
 650 310 651 372 684 481 c 0
 718 596 780 624 783 627 c 1
 860 570 l 1
 860 570 814 555 787 469 c 0
 747 343 741 253 664 150 c 0
 569 23 460 -3 320 -3 c 1
 342 15 448 162 448 283 c 0
 448 316 439 345 416 345 c 0
 367 345 340 263 339 260 c 1
 285 260 l 1
 285 262 287 269 287 279 c 0
 287 304 280 345 237 345 c 0
 204 345 154 265 154 178 c 0
 154 161 157 153 157 152 c 1
 158 152 182 167 214 167 c 0
 257 167 282 142 282 105 c 0
 282 64 250 -5 164 -5 c 0
 61 -5 34 75 34 150 c 0
183 51 m 0
 211 51 220 78 220 90 c 0
 220 103 213 113 196 113 c 0
 172 113 158 92 158 74 c 0
 158 61 165 51 183 51 c 0
EndSplineSet
EndChar

StartChar: uni0E58
Encoding: 248 3672 214
Width: 697
Flags: W
HStem: -5 78<464.621 548.816> 82 94<295.285 369.88> 224 54<558.924 621.363> 337 78<400.469 622.259> 345 78<316.523 527.323>
VStem: 112 117<90.592 243.721> 490 63<155.923 217.894> 622 64<161.125 223.002>
LayerCount: 2
Fore
SplineSet
112 139 m 0xef
 112 227 166 423 385 423 c 0xef
 427 423 466 415 512 415 c 0
 532 415 554 417 578 421 c 0
 703 440 738 622 738 624 c 1
 823 559 l 1
 823 559 775 398 645 356 c 0
 613 345 579 337 547 337 c 0xf7
 500 337 454 345 412 345 c 0
 335 345 263 323 236 196 c 0
 231 175 229 158 229 144 c 0
 229 100 247 90 247 90 c 1
 250 105 272 176 336 176 c 0
 396 176 407 125 483 82 c 0
 493 76 503 73 511 73 c 0
 536 73 551 98 553 98 c 1
 548 98 490 116 490 168 c 0
 490 217 540 278 604 278 c 0
 651 278 686 249 686 198 c 0
 686 117 594 -5 492 -5 c 0
 392 -5 376 82 332 82 c 0
 284 82 279 9 277 0 c 0
 276 0 260 -5 239 -5 c 0
 166 -5 112 46 112 139 c 0xef
580 155 m 0
 606 155 622 178 622 198 c 0
 622 212 614 224 595 224 c 0
 570 224 553 202 553 181 c 0
 553 167 562 155 580 155 c 0
EndSplineSet
EndChar

StartChar: uni0E59
Encoding: 249 3673 215
Width: 697
Flags: W
HStem: -5 78<198.116 251.696> 192 53<285.689 337.438> 318 78<608.435 701.765> 345 78<257.683 383.367 555.932 636.943>
VStem: 68 118<82.3618 257.925> 226 55<123.472 188.119> 338 56<126.927 191.892>
LayerCount: 2
Fore
SplineSet
482 317 m 1xde
 484 329 494 423 566 423 c 0xde
 602 423 632 396 664 396 c 0
 700 396 716 428 733 506 c 1
 740 541 l 2
 751 593 750 624 751 627 c 1
 844 587 l 1
 844 587 842 568 836 541 c 0
 814 438 765 318 672 318 c 0xee
 635 318 611 345 588 345 c 0
 556 345 530 290 530 233 c 0
 530 155 577 85 607 72 c 1
 534 -3 l 1
 534 -3 473 18 453 155 c 0
 439 252 412 345 317 345 c 0
 249 345 186 265 186 156 c 0
 186 111 199 73 229 73 c 0
 242 73 250 81 252 81 c 1
 234 94 226 113 226 135 c 0
 226 187 262 245 326 245 c 0
 375 245 394 216 394 178 c 0
 394 135 359 -5 221 -5 c 0
 122 -5 68 56 68 152 c 0
 68 298 172 423 328 423 c 0
 467 423 482 317 482 317 c 1xde
303 123 m 0
 331 123 338 157 338 168 c 0
 338 184 328 192 317 192 c 0
 301 192 281 177 281 149 c 0
 281 132 291 123 303 123 c 0
EndSplineSet
EndChar

StartChar: uni0E5A
Encoding: 250 3674 216
Width: 797
Flags: W
HStem: -5 86<321 380.66 555 598.525> 318 78<241.198 391.266> 524 78<647.58 762.689> 554 48<228.403 301.385>
VStem: 127 91<412.5 517.431> 303 53<482.573 552.677> 714 118<458 522>
DStem2: 383.503 -5 502.402 -5 0.207912 0.978148<107.72 397.859> 609.039 -5 722.89 -5 0.207912 0.978148<113.889 508.848>
LayerCount: 2
Fore
SplineSet
252 471 m 0xde
 278 471 303 495 303 523 c 0
 303 539 295 554 270 554 c 0
 248 554 218 537 218 502 c 0
 218 484 228 471 252 471 c 0xde
127 444 m 0
 127 495 176 602 276 602 c 0
 323 602 356 573 356 530 c 0
 356 524 354 517 353 510 c 0
 338 440 285 425 239 419 c 1
 250 405 269 396 300 396 c 0
 454 396 497 549 510 576 c 1
 521 594 542 602 562 602 c 0xde
 588 602 614 588 614 568 c 2
 614 563 l 1
 676 594 682 602 720 602 c 0
 813 602 832 560 832 522 c 0
 832 510 830 499 828 489 c 2
 762 179 l 2
 755 146 722 -5 555 -5 c 1
 526 77 l 1
 626 77 645 165 649 183 c 2
 713 485 l 2
 714 488 714 491 714 493 c 0
 714 513 695 524 669 524 c 0xee
 646 524 623 504 605 478 c 1
 543 186 l 2
 526 104 498 -1 321 -5 c 1
 285 81 l 1
 397 81 412 128 419 162 c 2
 467 384 l 1
 426 344 366 318 289 318 c 0
 193 318 127 381 127 444 c 0
EndSplineSet
EndChar

StartChar: uni0E5B
Encoding: 251 3675 217
Width: 1109
Flags: W
HStem: 38 74<197.421 331.585> 172 82<245.285 311.326> 230 64<934.252 1149> 340 49<252.341 286.795> 483 73<258.51 373.212> 501 20G<515.5 606.299>
VStem: 75 73<164.613 348.103> 187 57<254.888 335.683> 287 56<255.142 339.566> 392 73<317.185 463.296> 566 40<483.448 521>
LayerCount: 2
Fore
SplineSet
465 417 m 0xdbe0
 465 321 397 172 278 172 c 0
 214 172 187 229 187 276 c 0
 187 339 233 389 282 389 c 0
 315 389 343 367 343 324 c 0
 343 293 331 265 318 250 c 1
 367 282 392 359 392 404 c 0
 392 450 370 483 315 483 c 0xdbe0
 245 483 148 371 148 248 c 0
 148 163 200 112 259 112 c 0
 405 112 465 321 566 521 c 1
 606 521 l 1
 609 320 l 1
 678 498 l 1
 719 498 l 1
 720 313 l 1
 807 478 l 1
 826 325 l 1
 888 443 l 1
 893 423 929 296 952 296 c 0
 977 296 992 294 1007 294 c 2
 1161 294 l 1
 1149 235 l 1
 1149 235 964 230 947 230 c 0xb7e0
 896 230 880 244 869 271 c 1
 776 95 l 1
 763 258 l 1
 670 89 l 1
 652 254 l 1
 581 72 l 1
 539 72 l 1
 539 308 l 1
 475 182 403 38 243 38 c 0
 124 38 75 132 75 233 c 0
 75 389 192 556 330 556 c 0
 423 556 465 495 465 417 c 0xdbe0
274 340 m 0
 262 340 244 314 244 285 c 0
 244 269 250 254 261 254 c 0
 279 254 287 306 287 317 c 0
 287 331 282 340 274 340 c 0
EndSplineSet
EndChar

StartChar: DEL
Encoding: 255 63259 221
Width: 0
VWidth: 2048
Flags: W
HStem: 0 21G<-460 4.22976>
DStem2: -460 0 0 0 0.207912 0.978148<95.6394 783.151>
LayerCount: 2
Fore
SplineSet
-297 766 m 1
 162 766 l 1
 0 0 l 1
 -460 0 l 1
 -297 766 l 1
EndSplineSet
EndChar

StartChar: exclamdown
Encoding: 256 161 222
Width: 332
VWidth: 2048
Flags: W
HStem: -199 21G<69 191.167> 382 136<226 305>
VStem: 216 48<308.375 331>
DStem2: 69 -199 187 -199 0.207912 0.978148<24.5336 259.332 617.371 733.974>
LayerCount: 2
Fore
SplineSet
334 518 m 1
 305 382 l 1
 197 382 l 1
 226 518 l 1
 334 518 l 1
264 331 m 1
 222 -31 l 1
 187 -199 l 1
 69 -199 l 1
 104 -31 l 1
 216 331 l 1
 264 331 l 1
EndSplineSet
EndChar

StartChar: cent
Encoding: 257 162 223
Width: 556
VWidth: 2048
Flags: W
HStem: -196 21G<88 152.359> -5 100<293 390.091> 426 100<304.833 399> 691 20G<534.787 602>
VStem: 98 121<130.319 308.857>
DStem2: 88 -181 142 -196 0.459151 0.888358<11.4688 220.318 344.813 682.029 804.892 1002.25>
LayerCount: 2
Fore
SplineSet
449 401 m 1
 293 95 l 1
 323 95 l 2
 382 95 423 133 449 199 c 1
 556 176 l 1
 502 51 412 -5 290 -5 c 0
 276 -5 261 -4 243 -1 c 1
 142 -196 l 1
 88 -181 l 1
 185 15 l 1
 128 48 98 100 98 178 c 0
 98 203 101 231 107 261 c 0
 145 441 255 526 431 526 c 0
 440 526 444 525 449 523 c 1
 545 711 l 1
 602 694 l 1
 506 509 l 1
 553 485 586 440 591 365 c 1
 473 342 l 1
 473 349 l 2
 473 368 467 388 449 401 c 1
399 426 m 1
 375 426 l 2
 297 426 249 371 227 268 c 0
 222 245 219 223 219 203 c 0
 219 170 227 143 245 126 c 1
 399 426 l 1
EndSplineSet
EndChar

StartChar: sterling
Encoding: 258 163 224
Width: 556
VWidth: 2048
Flags: W
HStem: -5 100<341.542 501.759> 38 100<167 288.53> 308 100<93 177 300 437> 521 21G<501 621> 630 100<352.307 482.024>
VStem: 174 120<408 568.436> 501 121<541.375 608.143>
LayerCount: 2
Fore
SplineSet
421 630 m 0xbe
 370 630 294 602 294 468 c 0
 294 449 296 428 300 408 c 1
 459 408 l 1
 437 308 l 1
 300 308 l 1
 295 282 l 2
 286 238 253 185 189 126 c 1
 211 134 238 138 260 138 c 0x7e
 325 138 360 95 408 95 c 0
 434 95 470 105 519 123 c 1
 545 30 l 1
 493 7 446 -5 403 -5 c 0xbe
 330 -5 243 38 187 38 c 0x7e
 147 38 103 22 55 -5 c 1
 29 106 l 1
 180 193 174 270 179 308 c 1
 71 308 l 1
 93 408 l 1
 177 408 l 1
 175 422 174 436 174 450 c 0
 174 660 342 730 446 730 c 0
 562 730 622 675 622 565 c 0
 622 557 622 549 621 541 c 1
 501 521 l 1
 501 540 l 2
 501 603 477 630 421 630 c 0xbe
EndSplineSet
EndChar

StartChar: currency
Encoding: 259 164 225
Width: 556
VWidth: 2048
Flags: W
HStem: 139 118<274.938 397.045> 455 118<306.347 431.558>
VStem: 131 120<280.801 397.761> 454 120<313.212 432.301>
DStem2: 64 185 129 103 0.770674 0.63723<0 106.71 556.047 663.382>
LayerCount: 2
Fore
SplineSet
131 312 m 0
 131 356 147 415 185 460 c 1
 132 524 l 1
 233 610 l 1
 286 544 l 1
 321 563 358 573 398 573 c 0
 438 573 471 563 499 544 c 1
 578 610 l 1
 642 527 l 1
 564 463 l 1
 570 442 574 421 574 399 c 0
 574 339 547 286 519 250 c 1
 571 184 l 1
 470 101 l 1
 418 167 l 1
 377 149 341 139 307 139 c 0
 268 139 233 149 207 167 c 1
 129 103 l 1
 64 185 l 1
 142 250 l 1
 134 270 131 291 131 312 c 0
332 257 m 0
 386 257 454 308 454 376 c 0
 454 417 427 455 374 455 c 0
 304 455 251 392 251 334 c 0
 251 285 291 257 332 257 c 0
EndSplineSet
EndChar

StartChar: yen
Encoding: 260 165 226
Width: 556
VWidth: 2048
Flags: W
HStem: 0 21G<216 338.225> 142 100<76 246 385 557> 308 100<112 249 477 592> 696 20G<161 309.024 540.087 695>
DStem2: 304 716 161 716 0.274721 -0.961524<0 280.964> 216 0 334 0 0.207912 0.978148<24.5336 145.134 271.849 314.784> 410 509 477 408 0.577723 0.816233<-43.3893 252.152>
LayerCount: 2
Fore
SplineSet
246 142 m 1
 55 142 l 1
 76 242 l 1
 267 242 l 1
 281 308 l 1
 90 308 l 1
 112 408 l 1
 249 408 l 1
 161 716 l 1
 304 716 l 1
 356 509 l 2
 363 481 368 458 370 440 c 1
 379 458 391 482 410 509 c 2
 554 716 l 1
 695 716 l 1
 477 408 l 1
 614 408 l 1
 592 308 l 1
 399 308 l 1
 385 242 l 1
 578 242 l 1
 557 142 l 1
 364 142 l 1
 334 0 l 1
 216 0 l 1
 246 142 l 1
EndSplineSet
EndChar

StartChar: brokenbar
Encoding: 261 166 227
Width: 278
VWidth: 2048
Flags: W
VStem: 42 307
DStem2: 42 -210 149 -210 0.207912 0.978148<22.2465 394.614 587.696 961.041>
LayerCount: 2
Fore
SplineSet
160 343 m 1
 242 730 l 1
 349 730 l 1
 267 343 l 1
 160 343 l 1
42 -210 m 1
 124 176 l 1
 231 176 l 1
 149 -210 l 1
 42 -210 l 1
EndSplineSet
EndChar

StartChar: section
Encoding: 262 167 228
Width: 556
VWidth: 2048
Flags: W
HStem: -210 100<191.991 337.866> 630 100<329.075 474.632>
VStem: 49 117<-83.8295 -32> 91 125<274.485 359.629> 188 121<524.116 609.101> 365 122<-85.8237 3.25093> 449 125<185.602 336.564> 488 113<564 616.694>
LayerCount: 2
Fore
SplineSet
188 546 m 0xc8
 188 633 279 730 422 730 c 0
 541 730 601 678 601 577 c 2
 601 564 l 1
 485 550 l 1
 487 558 488 566 488 573 c 0xc9
 488 609 465 630 407 630 c 0
 326 630 309 593 309 569 c 0
 309 482 574 406 574 263 c 0xca
 574 230 557 150 452 84 c 1
 475 55 487 24 487 -9 c 0
 487 -96 407 -210 237 -210 c 0
 113 -210 49 -160 49 -56 c 0
 49 -48 49 -40 50 -32 c 1
 166 -17 l 1xe4
 165 -77 192 -110 264 -110 c 0
 352 -110 365 -58 365 -40 c 0
 365 43 91 127 91 278 c 0xd4
 91 312 110 408 218 461 c 1
 198 489 188 518 188 546 c 0xc8
280 399 m 1
 222 364 216 336 216 320 c 0
 216 291 237 264 270 239 c 1
 389 143 l 1
 438 180 449 206 449 222 c 0xd2
 449 244 429 270 392 302 c 2
 280 399 l 1
EndSplineSet
EndChar

StartChar: dieresis
Encoding: 263 168 229
Width: 332
VWidth: 2048
Flags: W
HStem: 610 120<157 250 368 461>
LayerCount: 2
Fore
SplineSet
132 610 m 1
 157 730 l 1
 275 730 l 1
 250 610 l 1
 132 610 l 1
343 610 m 1
 368 730 l 1
 486 730 l 1
 461 610 l 1
 343 610 l 1
EndSplineSet
EndChar

StartChar: copyright
Encoding: 264 169 230
Width: 735
VWidth: 2048
Flags: W
HStem: -18 74<273.852 493.393> 147 70<357.668 475.248> 494 70<414.604 531.9> 657 74<391.919 615.864>
VStem: 62 76<189.017 404.942> 255 86<233.453 402.545> 551 84<444.333 473.465> 754 76<310.135 521.673>
LayerCount: 2
Fore
SplineSet
62 277 m 0
 62 510 279 731 524 731 c 0
 707 731 830 608 830 438 c 0
 830 204 611 -18 365 -18 c 0
 179 -18 62 111 62 277 c 0
509 657 m 0
 313 657 138 483 138 291 c 0
 138 151 239 56 381 56 c 0
 581 56 754 237 754 422 c 0
 754 560 653 657 509 657 c 0
479 494 m 0
 365 494 341 350 341 296 c 0
 341 243 364 217 412 217 c 0
 458 217 497 245 525 300 c 1
 598 274 l 1
 553 190 489 147 407 147 c 0
 331 147 255 183 255 291 c 0
 255 373 303 564 497 564 c 0
 577 564 624 524 635 446 c 1
 551 426 l 1
 544 472 519 494 479 494 c 0
EndSplineSet
EndChar

StartChar: ordfeminine
Encoding: 265 170 231
Width: 369
VWidth: 2048
Flags: W
HStem: 363 78<180 296.487> 652 78<272.675 352.56>
VStem: 114 111<413 500.376> 328 93<372 406> 355 109<598.346 679.782>
LayerCount: 2
Fore
SplineSet
114 438 m 0xf0
 114 583 277 570 352 601 c 1
 354 609 355 615 355 622 c 0
 355 642 341 652 321 652 c 0
 296 652 274 639 259 612 c 1
 166 630 l 1
 194 696 250 730 334 730 c 0
 429 730 464 709 464 649 c 0xe8
 464 632 461 613 456 590 c 2
 432 474 l 2
 425 440 421 414 421 396 c 0
 421 385 422 377 425 372 c 1
 332 372 l 1
 329 380 328 392 328 406 c 1
 293 377 255 363 213 363 c 0
 147 363 114 388 114 438 c 0xf0
337 531 m 1
 297 514 225 513 225 467 c 0
 225 450 238 441 261 441 c 0
 297 441 323 463 333 511 c 2
 337 531 l 1
EndSplineSet
EndChar

StartChar: guillemotleft
Encoding: 266 171 232
Width: 556
VWidth: 2048
Flags: W
LayerCount: 2
Fore
SplineSet
412 480 m 1
 237 259 l 1
 317 34 l 1
 208 34 l 1
 103 259 l 1
 303 480 l 1
 412 480 l 1
603 480 m 1
 429 259 l 1
 508 34 l 1
 399 34 l 1
 294 259 l 1
 494 480 l 1
 603 480 l 1
EndSplineSet
EndChar

StartChar: logicalnot
Encoding: 267 172 233
Width: 583
VWidth: 2048
Flags: W
HStem: 424 100<152 515>
DStem2: 464 184 582 184 0.207912 0.978148<24.5336 245.359>
LayerCount: 2
Fore
SplineSet
464 184 m 1
 515 424 l 1
 131 424 l 1
 152 524 l 1
 654 524 l 1
 582 184 l 1
 464 184 l 1
EndSplineSet
EndChar

StartChar: minus
Encoding: 268 173 234
AltUni2: 002212.ffffffff.0
Width: 332
VWidth: 2048
Flags: W
HStem: 228 100<102 350>
VStem: 80 292
LayerCount: 2
Fore
SplineSet
80 228 m 1
 102 328 l 1
 372 328 l 1
 350 228 l 1
 80 228 l 1
EndSplineSet
EndChar

StartChar: registered
Encoding: 269 174 235
Width: 735
VWidth: 2048
Flags: W
HStem: -18 74<274.797 490.512> 316 70<369 425.903> 483 70<390 528.073> 657 74<395.474 618.18>
VStem: 62 76<193.485 402.751> 531 89<407.048 475.232> 754 76<310.356 524.718>
DStem2: 197.015 -18 283.015 -18 0.207912 0.978148<195.768 359.34 430.929 530.176>
LayerCount: 2
Fore
SplineSet
62 277 m 0
 62 499 267 731 524 731 c 0
 718 731 830 602 830 438 c 0
 830 208 615 -18 365 -18 c 0
 179 -18 62 111 62 277 c 0
383 56 m 0
 582 56 754 233 754 423 c 0
 754 562 653 657 511 657 c 0
 312 657 138 477 138 295 c 0
 138 164 229 56 383 56 c 0
620 468 m 0
 620 437 607 350 485 330 c 1
 503 325 521 313 532 285 c 2
 580 156 l 1
 481 156 l 1
 461 221 l 2
 446 272 431 316 369 316 c 2
 354 316 l 1
 320 156 l 1
 234 156 l 1
 319 553 l 1
 527 553 l 2
 586 553 620 519 620 468 c 0
396 386 m 2
 454 386 531 388 531 449 c 0
 531 478 499 483 417 483 c 2
 390 483 l 1
 369 386 l 1
 396 386 l 2
EndSplineSet
EndChar

StartChar: macron
Encoding: 270 175 236
AltUni2: 0002c9.ffffffff.0
Width: 551
VWidth: 2048
Flags: W
HStem: 759 89<171 722>
LayerCount: 2
Fore
SplineSet
152 759 m 1
 171 848 l 1
 741 848 l 1
 722 759 l 1
 152 759 l 1
EndSplineSet
EndChar

StartChar: degree
Encoding: 271 176 237
Width: 400
VWidth: 2048
Flags: W
HStem: 417 82<256.194 360.611> 648 82<280.673 381.459>
VStem: 159 84<511.876 611.995> 395 84<532.805 636.196>
LayerCount: 2
Fore
SplineSet
479 607 m 0
 479 515 397 417 287 417 c 0
 203 417 159 473 159 539 c 0
 159 642 258 730 353 730 c 0
 428 730 479 679 479 607 c 0
304 499 m 0
 359 499 395 547 395 587 c 0
 395 616 378 648 336 648 c 0
 285 648 243 600 243 556 c 0
 243 519 273 499 304 499 c 0
EndSplineSet
EndChar

StartChar: plusminus
Encoding: 272 177 238
Width: 548
VWidth: 2048
Flags: W
HStem: 0 100<46 526> 374 100<126 295 435 605>
DStem2: 216.228 0 334.228 0 0.207912 0.978148<201.398 382.205 509.127 688.956>
LayerCount: 2
Fore
SplineSet
253 173 m 1
 295 374 l 1
 104 374 l 1
 126 474 l 1
 317 474 l 1
 359 674 l 1
 477 674 l 1
 435 474 l 1
 627 474 l 1
 605 374 l 1
 413 374 l 1
 371 173 l 1
 253 173 l 1
25 0 m 1
 46 100 l 1
 547 100 l 1
 526 0 l 1
 25 0 l 1
EndSplineSet
EndChar

StartChar: twosuperior
Encoding: 273 178 239
Width: 332
VWidth: 2048
Flags: W
HStem: 356 76<248 386> 599 21G<150 248.5> 656 69<260.441 346.079>
VStem: 348 96<585.49 652.583>
LayerCount: 2
Fore
SplineSet
88 356 m 1
 121 478 348 554 348 626 c 0
 348 645 333 656 306 656 c 0
 275 656 255 638 242 599 c 1
 150 607 l 1
 175 685 232 725 323 725 c 0
 393 725 444 697 444 642 c 0
 444 565 366 517 295 466 c 2
 248 432 l 1
 402 432 l 1
 386 356 l 1
 88 356 l 1
EndSplineSet
EndChar

StartChar: threesuperior
Encoding: 274 179 240
Width: 332
VWidth: 2048
Flags: W
HStem: 349 69<215.547 303.31> 520 64<259 318.446> 656 69<256.256 334.245>
VStem: 118 91<423.15 463> 320 96<434.411 517.104> 335 94<595.997 654.632>
LayerCount: 2
Fore
SplineSet
416 488 m 0xf8
 416 405 316 349 238 349 c 0
 159 349 118 384 118 453 c 2
 118 463 l 1
 209 472 l 1
 208 437 222 418 253 418 c 0
 313 418 320 471 320 487 c 0xf8
 320 509 306 520 278 520 c 0
 269 520 253 518 233 513 c 1
 259 584 l 1
 322 584 335 613 335 632 c 0
 335 648 322 656 298 656 c 0
 271 656 252 639 241 607 c 1
 157 621 l 1
 187 690 240 725 316 725 c 0
 380 725 429 694 429 643 c 0xf4
 429 608 409 579 365 555 c 1
 398 541 416 519 416 488 c 0xf8
EndSplineSet
EndChar

StartChar: acute
Encoding: 275 180 241
Width: 332
VWidth: 2048
Flags: W
HStem: 582 148
VStem: 216 252
LayerCount: 2
Fore
SplineSet
216 582 m 1
 314 730 l 1
 468 730 l 1
 302 582 l 1
 216 582 l 1
EndSplineSet
EndChar

StartChar: mu
Encoding: 276 181 242
AltUni2: 0003bc.ffffffff.0
Width: 576
VWidth: 2048
Flags: W
HStem: -199 21G<12 134.238> -5 100<252.2 368.005> 501 20G<160.75 283 514.702 637>
DStem2: 12 -199 130 -199 0.207912 0.978148<24.5336 299.506 440.052 736.077> 365.701 -199 483.701 -199 0.207912 0.978148<227.979 275.035 355.284 736.139>
LayerCount: 2
Fore
SplineSet
165 521 m 1
 283 521 l 1
 232 281 l 2
 226 252 223 227 223 205 c 0
 223 131 256 95 313 95 c 0
 389 95 441 156 467 279 c 2
 519 521 l 1
 637 521 l 1
 526 0 l 1
 408 0 l 1
 423 70 l 1
 385 19 346 -5 293 -5 c 0
 240 -5 200 19 187 70 c 1
 130 -199 l 1
 12 -199 l 1
 165 521 l 1
EndSplineSet
EndChar

StartChar: paragraph
Encoding: 277 182 243
Width: 556
VWidth: 2048
Flags: W
HStem: -196 21G<150 272.261 339 461.261> 616 100<441 512 630 683>
DStem2: 150 -196 268 -196 0.207912 0.978148<24.5336 523.474> 339 -196 457 -196 0.207912 0.978148<24.5336 830.225>
LayerCount: 2
Fore
SplineSet
259 316 m 1
 156 316 103 376 103 462 c 0
 103 478 105 495 109 513 c 0
 141 664 244 716 411 716 c 2
 704 716 l 1
 683 616 l 1
 630 616 l 1
 457 -196 l 1
 339 -196 l 1
 512 616 l 1
 441 616 l 1
 268 -196 l 1
 150 -196 l 1
 259 316 l 1
EndSplineSet
EndChar

StartChar: periodcentered
Encoding: 278 183 244
AltUni2: 002219.ffffffff.0
Width: 277
VWidth: 2048
Flags: W
HStem: 281 136<161 268>
VStem: 132 165
LayerCount: 2
Fore
SplineSet
132 281 m 1
 161 417 l 1
 297 417 l 1
 268 281 l 1
 132 281 l 1
EndSplineSet
EndChar

StartChar: cedilla
Encoding: 279 184 245
Width: 332
VWidth: 2048
Flags: W
HStem: -205 61<-14.0722 156.553> -58 52<72.4679 169.016>
VStem: 172 95<-128.195 -62.6284>
LayerCount: 2
Fore
SplineSet
267 -75 m 0
 267 -127 236 -205 69 -205 c 0
 30 -205 -2 -202 -24 -196 c 1
 -12 -139 l 1
 18 -143 49 -144 79 -144 c 0
 157 -144 172 -112 172 -90 c 0
 172 -69 153 -58 117 -58 c 0
 97 -58 74 -61 52 -67 c 1
 74 -18 l 1
 101 -11 131 -6 158 -6 c 0
 231 -6 267 -29 267 -75 c 0
EndSplineSet
EndChar

StartChar: onesuperior
Encoding: 280 185 246
Width: 332
VWidth: 2048
Flags: W
HStem: 558 77<179 226.5>
VStem: 321 75<700.186 725>
DStem2: 225 356 318 356 0.207912 0.978148<19.3358 256.534>
LayerCount: 2
Fore
SplineSet
318 356 m 1
 225 356 l 1
 278 607 l 1
 245 586 208 570 163 558 c 1
 179 635 l 1
 248 655 294 685 321 725 c 1
 396 725 l 1
 318 356 l 1
EndSplineSet
EndChar

StartChar: ordmasculine
Encoding: 281 186 247
Width: 364
VWidth: 2048
Flags: W
HStem: 362 86<233.967 325.542> 644 86<268.392 359.675>
VStem: 122 105<455.132 592.656> 368 105<495.968 636.292>
LayerCount: 2
Fore
SplineSet
473 598 m 0
 473 524 430 362 259 362 c 0
 166 362 122 417 122 494 c 0
 122 593 190 730 337 730 c 0
 418 730 473 684 473 598 c 0
318 644 m 0
 245 644 227 539 227 503 c 0
 227 466 243 448 276 448 c 0
 353 448 368 553 368 586 c 0
 368 625 351 644 318 644 c 0
EndSplineSet
EndChar

StartChar: guillemotright
Encoding: 282 187 248
Width: 556
VWidth: 2048
Flags: W
LayerCount: 2
Fore
SplineSet
251 34 m 1
 425 256 l 1
 346 480 l 1
 453 480 l 1
 560 256 l 1
 358 34 l 1
 251 34 l 1
59 34 m 1
 233 256 l 1
 154 480 l 1
 261 480 l 1
 368 256 l 1
 166 34 l 1
 59 34 l 1
EndSplineSet
EndChar

StartChar: onequarter
Encoding: 283 188 249
Width: 833
VWidth: 2048
Flags: W
HStem: 51 72<622 696 799 836> 558 77<179 224.315>
VStem: 321 75<698.523 725>
DStem2: 144.803 -26 236.803 -26 0.207912 0.978148<409.662 647.068> 160 -26 238 -26 0.613868 0.789409<47.8817 951.345> 536 120 622 123 0.716191 0.697905<63.6861 219.273> 679.725 -26 767.725 -26 0.207912 0.978148<24.4303 78.7012 170.543 262.668>
LayerCount: 2
Fore
SplineSet
318 356 m 1
 226 356 l 1
 279 607 l 1
 245 586 205 569 163 558 c 1
 179 635 l 1
 249 655 295 685 321 725 c 1
 396 725 l 1
 318 356 l 1
238 -26 m 1
 160 -26 l 1
 744 725 l 1
 822 725 l 1
 238 -26 l 1
681 -20 m 1
 696 51 l 1
 521 51 l 1
 536 120 l 1
 771 349 l 1
 847 349 l 1
 799 123 l 1
 851 123 l 1
 836 51 l 1
 784 51 l 1
 769 -20 l 1
 681 -20 l 1
711 123 m 1
 734 231 l 1
 622 123 l 1
 711 123 l 1
EndSplineSet
EndChar

StartChar: onehalf
Encoding: 284 189 250
Width: 833
VWidth: 2048
Flags: W
HStem: -20 77<668 805> 281 68<682.238 766.571> 558 77<179 224.315>
VStem: 321 75<698.523 725> 768 95<209.19 278.058>
DStem2: 144.803 -26 236.803 -26 0.207912 0.978148<409.662 647.068> 160 -26 238 -26 0.613868 0.789409<47.8817 951.345>
LayerCount: 2
Fore
SplineSet
318 356 m 1
 226 356 l 1
 279 607 l 1
 245 586 205 569 163 558 c 1
 179 635 l 1
 249 655 295 685 321 725 c 1
 396 725 l 1
 318 356 l 1
238 -26 m 1
 160 -26 l 1
 744 725 l 1
 822 725 l 1
 238 -26 l 1
863 265 m 0
 863 165 728 106 668 57 c 1
 821 57 l 1
 805 -20 l 1
 508 -20 l 1
 541 102 768 177 768 252 c 0
 768 271 755 281 727 281 c 0
 696 281 675 261 663 224 c 1
 572 231 l 1
 598 310 655 349 744 349 c 0
 813 349 863 319 863 265 c 0
EndSplineSet
EndChar

StartChar: threequarters
Encoding: 285 190 251
Width: 833
VWidth: 2048
Flags: W
HStem: 51 72<622 696 799 836> 349 69<215.547 303.093> 520 64<259 318.446> 656 69<256.256 334.245>
VStem: 118 91<423.15 463> 320 96<433.866 517.104> 335 94<596.259 653.998>
DStem2: 172 -26 250 -26 0.613868 0.789409<47.8817 951.345> 535 120 622 123 0.716191 0.697905<64.4023 219.989> 679.725 -26 767.725 -26 0.207912 0.978148<24.4303 78.7012 170.543 262.668>
LayerCount: 2
Fore
SplineSet
416 488 m 0xfc
 416 410 324 349 238 349 c 0
 159 349 118 384 118 453 c 2
 118 463 l 1
 209 472 l 1
 208 437 222 418 253 418 c 0
 313 418 320 471 320 487 c 0xfc
 320 509 306 520 278 520 c 0
 269 520 253 518 233 513 c 1
 259 584 l 1
 322 584 335 613 335 632 c 0
 335 648 322 656 298 656 c 0
 271 656 252 639 241 607 c 1
 157 621 l 1
 187 690 240 725 316 725 c 0
 380 725 429 695 429 644 c 0xfa
 429 609 409 579 365 555 c 1
 398 541 416 519 416 488 c 0xfc
250 -26 m 1
 172 -26 l 1
 756 725 l 1
 833 725 l 1
 250 -26 l 1
681 -20 m 1
 696 51 l 1
 520 51 l 1
 535 120 l 1
 770 349 l 1
 847 349 l 1
 799 123 l 1
 851 123 l 1
 836 51 l 1
 784 51 l 1
 769 -20 l 1
 681 -20 l 1
711 123 m 1
 734 231 l 1
 622 123 l 1
 711 123 l 1
EndSplineSet
EndChar

StartChar: questiondown
Encoding: 286 191 252
Width: 610
VWidth: 2048
Flags: W
HStem: -205 100<204.054 363.776> 397 124<362 453>
VStem: 53 119<-75.4717 31.5938>
DStem2: 207.881 -205 325.21 -205 0.207912 0.978148<450.201 563.31 639.808 742.178>
LayerCount: 2
Fore
SplineSet
480 521 m 1
 453 397 l 1
 335 397 l 1
 362 521 l 1
 480 521 l 1
264 -205 m 0
 142 -205 53 -140 53 -39 c 0
 53 118 261 200 296 256 c 0
 305 270 314 296 325 346 c 1
 443 346 l 1
 430 288 l 1
 395 125 172 92 172 -24 c 0
 172 -73 216 -105 280 -105 c 0
 360 -105 415 -60 450 20 c 1
 557 5 l 1
 506 -135 405 -205 264 -205 c 0
EndSplineSet
EndChar

StartChar: AE
Encoding: 293 198 259
Width: 999
VWidth: 2048
Flags: W
HStem: 0 100<605 953> 181 100<326 503> 326 100<675 981> 600 100<534 594 712 1068>
DStem2: 12 0 143 0 0.54583 0.837896<71.5037 287.025 406.839 787.661> 464.527 0 583.744 0 0.207912 0.978148<127.021 185.044 287.64 358.062 460.451 613.807>
LayerCount: 2
Fore
SplineSet
12 0 m 1
 468 700 l 1
 1089 700 l 1
 1068 600 l 1
 712 600 l 1
 675 426 l 1
 1003 426 l 1
 981 326 l 1
 653 326 l 1
 605 100 l 1
 974 100 l 1
 953 0 l 1
 465 0 l 1
 503 181 l 1
 260 181 l 1
 143 0 l 1
 12 0 l 1
326 281 m 1
 526 281 l 1
 594 600 l 1
 534 600 l 1
 326 281 l 1
EndSplineSet
EndChar

StartChar: Eth
Encoding: 303 208 269
Width: 721
VWidth: 2048
Flags: W
HStem: 0 100<239 484.851> 313 90<112 167 304 438> 616 100<349 582.859>
VStem: 646 117<327.738 561.119>
DStem2: 100 0 217.744 0 0.207912 0.978148<126.714 320.09 436.607 654.309>
CounterMasks: 1 e0
LayerCount: 2
Fore
SplineSet
252 716 m 1
 489 716 l 2
 610 716 763 695 763 483 c 0
 763 445 758 400 747 349 c 0
 697 116 564 0 345 0 c 2
 100 0 l 1
 167 313 l 1
 93 313 l 1
 112 403 l 1
 186 403 l 1
 252 716 l 1
349 616 m 1
 304 403 l 1
 457 403 l 1
 438 313 l 1
 285 313 l 1
 239 100 l 1
 346 100 l 2
 535 100 589 163 630 354 c 0
 640 403 646 442 646 474 c 0
 646 610 558 616 413 616 c 2
 349 616 l 1
EndSplineSet
EndChar

StartChar: multiply
Encoding: 310 215 276
Width: 583
VWidth: 2048
Flags: W
DStem2: 100 202 166 118 0.771454 0.636285<0 234.723 369.391 604.115> 266 588 164 504 0.61872 -0.785612<2.88193 192.255 301.964 491.337>
LayerCount: 2
Fore
SplineSet
164 504 m 1
 266 588 l 1
 385 437 l 1
 568 588 l 1
 634 504 l 1
 451 353 l 1
 570 202 l 1
 468 118 l 1
 349 269 l 1
 166 118 l 1
 100 202 l 1
 283 353 l 1
 164 504 l 1
EndSplineSet
EndChar

StartChar: Oslash
Encoding: 311 216 277
Width: 777
VWidth: 2048
Flags: W
HStem: -5 100<315.879 507.818> 616 100<413.767 619.738>
VStem: 123 119<214.031 396.358> 691 118<318.149 498.501>
DStem2: 35 20 91 -40 0.741144 0.671346<1.2233 152.064 287.433 804.06 938.708 1088.86>
LayerCount: 2
Fore
SplineSet
521 616 m 0
 282 616 242 354 242 272 c 0
 242 251 244 231 248 213 c 1
 647 575 l 1
 619 602 578 616 521 616 c 0
123 258 m 0
 123 466 270 716 542 716 c 0
 622 716 688 693 733 652 c 1
 842 751 l 1
 898 691 l 1
 782 586 l 1
 800 549 809 506 809 456 c 0
 809 239 652 -5 389 -5 c 0
 310 -5 246 18 201 59 c 1
 91 -40 l 1
 35 20 l 1
 152 125 l 1
 133 162 123 207 123 258 c 0
410 95 m 0
 613 95 691 312 691 449 c 0
 691 467 689 484 686 499 c 1
 288 138 l 1
 315 111 355 95 410 95 c 0
EndSplineSet
EndChar

StartChar: Thorn
Encoding: 317 222 283
Width: 666
VWidth: 2048
Flags: W
HStem: 0 21G<86 208.247> 146 100<256 499.777> 470 100<325 543.912> 696 20G<233.754 356>
VStem: 569 120<317.644 444.591>
DStem2: 86 0 204 0 0.207912 0.978148<24.5336 173.788 275.969 505.054 607.235 731.956>
LayerCount: 2
Fore
SplineSet
86 0 m 1
 238 716 l 1
 356 716 l 1
 325 570 l 1
 426 570 l 2
 542 570 689 564 689 419 c 0
 689 401 688 382 683 360 c 0
 642 166 479 146 344 146 c 2
 235 146 l 1
 204 0 l 1
 86 0 l 1
304 470 m 1
 256 246 l 1
 364 246 l 2
 484 246 544 263 565 360 c 0
 568 374 569 385 569 396 c 0
 569 464 509 470 404 470 c 2
 304 470 l 1
EndSplineSet
EndChar

StartChar: germandbls
Encoding: 318 223 284
Width: 610
VWidth: 2048
Flags: W
HStem: -5 100<343.87 463.453> 616 100<348.443 468.575>
VStem: 473 122<528.538 646.996> 480 122<111.407 206.726>
DStem2: 75.9372 -5 193.937 -5 0.207912 0.978148<29.6453 636.822>
LayerCount: 2
Fore
SplineSet
366 367 m 0xd0
 366 426 473 522 473 579 c 0
 473 604 454 616 412 616 c 0
 326 616 311 546 294 466 c 2
 195 0 l 1
 77 0 l 1
 176 466 l 2
 212 635 277 716 434 716 c 0
 526 716 595 684 595 608 c 0xe0
 595 504 491 445 491 404 c 0
 491 354 602 281 602 183 c 0
 602 113 541 -5 402 -5 c 0
 330 -5 283 18 261 81 c 1
 369 136 l 1
 377 110 391 95 411 95 c 0
 477 95 480 151 480 156 c 0
 480 210 366 295 366 367 c 0xd0
EndSplineSet
EndChar

StartChar: ae
Encoding: 325 230 291
Width: 889
VWidth: 2048
Flags: W
HStem: -5 86<206.115 327.533 556.296 695.883> 219 86<550 790.457> 440 86<294.126 439.456 624.236 764.477>
VStem: 84 111<93.9906 183.332> 792 97<305.448 411.653>
LayerCount: 2
Fore
SplineSet
88 141 m 0
 122 299 297 291 450 337 c 1
 453 351 l 2
 455 359 455 368 455 375 c 0
 455 414 431 440 371 440 c 0
 306 440 267 405 243 360 c 1
 155 385 l 1
 204 481 294 526 406 526 c 0
 475 526 524 503 554 471 c 1
 599 503 652 526 707 526 c 0
 825 526 889 463 889 335 c 0
 889 301 885 262 876 219 c 1
 530 219 l 1
 529 208 528 199 528 189 c 0
 528 119 555 81 622 81 c 0
 685 81 724 116 752 166 c 1
 851 141 l 1
 794 40 706 -5 606 -5 c 0
 531 -5 477 27 438 75 c 1
 368 27 293 -5 218 -5 c 0
 139 -5 84 32 84 105 c 0
 84 116 85 128 88 141 c 0
787 305 m 1
 790 321 792 335 792 349 c 0
 792 404 763 440 695 440 c 0
 612 440 562 363 550 305 c 1
 787 305 l 1
430 251 m 1
 275 216 195 210 195 133 c 0
 195 100 218 81 273 81 c 0
 379 81 408 148 430 251 c 1
EndSplineSet
EndChar

StartChar: eth
Encoding: 335 240 301
Width: 610
VWidth: 2048
Flags: W
HStem: -5 86<256.488 397.915> 440 86<323.231 457.071> 696 20G<314 477.93 554.419 604.583>
VStem: 107 108<124.114 314.361> 510 117<239.473 391.292>
DStem2: 285 579 297 533 0.917024 0.398833<0 130.782 251.072 334.446>
LayerCount: 2
Fore
SplineSet
107 199 m 0
 107 366 247 526 380 526 c 0
 426 526 457 507 489 484 c 1
 470 528 485 500 436 595 c 1
 297 533 l 1
 285 579 l 1
 405 631 l 1
 379 660 347 688 314 716 c 1
 457 716 l 1
 502 673 l 1
 600 716 l 1
 611 668 l 1
 534 636 l 1
 599 551 627 466 627 378 c 0
 627 152 477 -5 304 -5 c 0
 187 -5 107 75 107 199 c 0
324 81 m 0
 430 81 510 205 510 307 c 0
 510 376 477 440 399 440 c 0
 286 440 215 318 215 208 c 0
 215 147 238 81 324 81 c 0
EndSplineSet
EndChar

StartChar: divide
Encoding: 342 247 308
Width: 548
VWidth: 2048
Flags: W
HStem: 99 120<262 354> 304 100<111 589> 488 120<344 437>
DStem2: 236 99 354 99 0.207912 0.978148<24.5336 122.783 422.29 520.332>
LayerCount: 2
Fore
SplineSet
319 488 m 1
 344 608 l 1
 462 608 l 1
 437 488 l 1
 319 488 l 1
90 304 m 1
 111 404 l 1
 610 404 l 1
 589 304 l 1
 90 304 l 1
236 99 m 1
 262 219 l 1
 380 219 l 1
 354 99 l 1
 236 99 l 1
EndSplineSet
EndChar

StartChar: oslash
Encoding: 343 248 309
Width: 610
VWidth: 2048
Flags: W
HStem: -5 86<255.171 405.023> 440 86<324.486 476.297>
VStem: 106 108<166.453 310.757> 518 109<218.942 352.112>
DStem2: 51 11 96 -35 0.733154 0.680063<1.70901 112.133 227.846 572.032 691.298 788.277>
LayerCount: 2
Fore
SplineSet
404 440 m 0
 282 440 214 314 214 208 c 0
 214 193 215 179 218 166 c 1
 484 412 l 1
 466 430 440 440 404 440 c 0
327 81 m 0
 457 81 518 225 518 314 c 0
 518 327 516 341 514 353 c 1
 249 108 l 1
 267 91 293 81 327 81 c 0
627 336 m 0
 627 175 504 -5 309 -5 c 0
 253 -5 208 10 174 37 c 1
 96 -35 l 1
 51 11 l 1
 132 86 l 1
 115 117 106 155 106 197 c 0
 106 355 221 526 422 526 c 0
 480 526 528 511 562 484 c 1
 629 547 l 1
 676 503 l 1
 604 436 l 1
 620 408 627 374 627 336 c 0
EndSplineSet
EndChar

StartChar: thorn
Encoding: 349 254 315
Width: 541
VWidth: 2048
Flags: W
HStem: -199 21G<21 132.259> -5 86<243.681 374.809> 440 86<338.284 438.891> 696 20G<210.76 322>
VStem: 464 106<216.875 414.578>
DStem2: 21 -199 128 -199 0.207912 0.978148<22.2465 291.142 419.212 627.079 693.789 935.34>
LayerCount: 2
Fore
SplineSet
570 342 m 0
 570 195 468 -5 321 -5 c 0
 264 -5 218 14 184 64 c 1
 128 -199 l 1
 21 -199 l 1
 215 716 l 1
 322 716 l 1
 267 458 l 1
 325 507 380 526 434 526 c 0
 524 526 570 444 570 342 c 0
227 271 m 0
 220 239 216 211 216 187 c 0
 216 115 247 81 307 81 c 0
 379 81 428 136 454 258 c 0
 461 289 464 316 464 339 c 0
 464 408 435 440 378 440 c 0
 301 440 252 388 227 271 c 0
EndSplineSet
EndChar

StartChar: dotlessi
Encoding: 351 305 317
Width: 254
VWidth: 2048
Flags: W
HStem: 0 21G<72 183.261> 501 20G<178.739 290>
VStem: 72 218
DStem2: 72 0 179 0 0.207912 0.978148<22.2465 532.693>
LayerCount: 2
Fore
SplineSet
72 0 m 1
 183 521 l 1
 290 521 l 1
 179 0 l 1
 72 0 l 1
EndSplineSet
EndChar

StartChar: OE
Encoding: 352 338 318
Width: 999
VWidth: 2048
Flags: W
HStem: -5 100<283.638 431.419 648 970> 326 100<718 998> 600 100<755 1084> 605 111<381.538 546.96>
VStem: 112 120<152.335 387.82>
LayerCount: 2
Fore
SplineSet
112 232 m 0xe8
 112 422 217 716 468 716 c 0xd8
 551 716 609 685 642 624 c 1
 658 700 l 1
 1105 700 l 1
 1084 600 l 1
 755 600 l 1
 718 426 l 1
 1020 426 l 1
 998 326 l 1
 696 326 l 1
 648 100 l 1
 991 100 l 1
 970 0 l 1
 509 0 l 1
 528 91 l 1
 477 27 408 -5 321 -5 c 0
 184 -5 112 83 112 232 c 0xe8
359 95 m 0
 550 95 598 382 598 459 c 0
 598 550 558 605 468 605 c 0
 258 605 232 324 232 252 c 0
 232 153 272 95 359 95 c 0
EndSplineSet
EndChar

StartChar: oe
Encoding: 353 339 319
Width: 944
VWidth: 2048
Flags: W
HStem: -5 86<260.045 396.928 623.526 755.451> 219 86<614 852.391> 440 86<323.802 466.698 687.812 821.258>
VStem: 107 109<130.103 305.061> 503 87<182 319> 853 99<305.76 406.839>
LayerCount: 2
Fore
SplineSet
107 187 m 0
 107 323 198 526 418 526 c 0
 490 526 547 502 584 448 c 1
 641 502 704 526 774 526 c 0
 894 526 952 466 952 343 c 0
 952 307 948 266 938 219 c 1
 595 219 l 1
 592 206 590 194 590 182 c 0
 590 121 627 81 687 81 c 0
 739 81 783 113 811 167 c 1
 916 146 l 1
 857 40 779 -5 670 -5 c 0
 597 -5 540 17 502 71 c 1
 441 17 374 -5 305 -5 c 0
 178 -5 107 71 107 187 c 0
849 305 m 1
 852 318 853 330 853 342 c 0
 853 401 818 440 758 440 c 0
 684 440 629 377 614 305 c 1
 849 305 l 1
323 81 m 0
 441 81 503 226 503 319 c 0
 503 381 479 440 400 440 c 0
 253 440 216 262 216 210 c 0
 216 142 252 81 323 81 c 0
EndSplineSet
EndChar

StartChar: florin
Encoding: 357 402 323
Width: 556
VWidth: 2048
Flags: W
HStem: -196 86<4.60608 136.745> 435 86<281 345 485 552> 628 86<527.991 655.847>
DStem2: 173 -11 259 -63 0.360721 0.932674<-111.754 478.017 608.727 723.332>
LayerCount: 2
Fore
SplineSet
247 435 m 1
 281 521 l 1
 379 521 l 1
 395 563 l 2
 435 668 468 714 580 714 c 0
 623 714 649 706 689 692 c 1
 647 614 l 1
 617 623 591 628 571 628 c 0
 540 628 517 606 494 546 c 1
 485 521 l 1
 586 521 l 1
 552 435 l 1
 452 435 l 1
 259 -63 l 2
 226 -150 179 -196 85 -196 c 0
 33 -196 4 -190 -31 -178 c 1
 13 -98 l 1
 48 -105 74 -110 93 -110 c 0
 132 -110 144 -87 173 -11 c 2
 345 435 l 1
 247 435 l 1
EndSplineSet
EndChar

StartChar: circumflex
Encoding: 358 710 324
Width: 332
VWidth: 2048
Flags: W
HStem: 584 146<219 259>
VStem: 126 331
LayerCount: 2
Fore
SplineSet
126 584 m 1
 259 730 l 1
 386 730 l 1
 457 584 l 1
 346 584 l 1
 306 658 l 1
 236 584 l 1
 126 584 l 1
EndSplineSet
EndChar

StartChar: caron
Encoding: 359 711 325
Width: 332
VWidth: 2048
Flags: W
HStem: 584 146<338 377>
VStem: 157 331
LayerCount: 2
Fore
SplineSet
157 730 m 1
 267 730 l 1
 305 656 l 1
 377 730 l 1
 488 730 l 1
 355 584 l 1
 228 584 l 1
 157 730 l 1
EndSplineSet
EndChar

StartChar: ring
Encoding: 361 730 326
Width: 332
VWidth: 2048
Flags: W
HStem: 559 53<263.213 339.502> 699 52<272.212 350.179>
VStem: 208 54<614.119 689.791> 351 53<621.93 697.714>
LayerCount: 2
Fore
SplineSet
208 633 m 0
 208 694 261 751 327 751 c 0
 375 751 404 719 404 677 c 0
 404 609 338 559 286 559 c 0
 240 559 208 588 208 633 c 0
297 612 m 0
 342 612 351 652 351 670 c 0
 351 689 340 699 316 699 c 0
 268 699 262 657 262 642 c 0
 262 622 273 612 297 612 c 0
EndSplineSet
EndChar

StartChar: tilde
Encoding: 362 732 327
Width: 332
VWidth: 2048
Flags: W
HStem: 590 81<303.626 409.932> 632 81<189.542 298.009>
VStem: 119 63<589 625.789> 420 63<681.15 713>
LayerCount: 2
Fore
SplineSet
235 713 m 0x70
 286 713 327 671 371 671 c 0xb0
 394 671 411 685 420 713 c 1
 483 713 l 1x70
 466 632 427 590 370 590 c 0xb0
 329 590 263 632 224 632 c 0
 201 632 188 618 182 589 c 1
 119 589 l 1
 123 607 l 2
 138 677 175 713 235 713 c 0x70
EndSplineSet
EndChar

StartChar: quotesinglbase
Encoding: 365 8218 328
Width: 277
VWidth: 2048
Flags: W
HStem: -159 56<48.125 79.1909>
VStem: 35 199
LayerCount: 2
Fore
SplineSet
96 136 m 1
 234 136 l 1
 213 38 l 2
 193 -57 161 -121 50 -159 c 1
 35 -103 l 1
 90 -87 124 -54 135 0 c 1
 67 0 l 1
 96 136 l 1
EndSplineSet
EndChar

StartChar: quotedblbase
Encoding: 366 8222 329
Width: 499
VWidth: 2048
Flags: W
HStem: -159 56<59 89.8616 289.25 319.928> 0 136<109 146 339 376>
LayerCount: 2
Fore
SplineSet
339 136 m 1
 477 136 l 1
 456 38 l 2
 432 -75 384 -129 291 -159 c 1
 277 -103 l 1
 330 -87 365 -52 376 0 c 1
 310 0 l 1
 339 136 l 1
109 136 m 1
 245 136 l 1
 224 38 l 2
 200 -75 154 -129 61 -159 c 1
 45 -103 l 1
 102 -86 135 -52 146 0 c 1
 80 0 l 1
 109 136 l 1
EndSplineSet
EndChar

StartChar: dagger
Encoding: 367 8224 330
Width: 556
VWidth: 2048
Flags: W
HStem: 435 86<154 314 440 600> 688 20G<367.829 479>
DStem2: 185 -172 292 -172 0.207912 0.978148<22.2465 620.556 730.874 899.649>
LayerCount: 2
Fore
SplineSet
185 -172 m 1
 314 435 l 1
 135 435 l 1
 154 521 l 1
 333 521 l 1
 372 708 l 1
 479 708 l 1
 440 521 l 1
 619 521 l 1
 600 435 l 1
 421 435 l 1
 292 -172 l 1
 185 -172 l 1
EndSplineSet
EndChar

StartChar: daggerdbl
Encoding: 368 8225 331
Width: 556
VWidth: 2048
Flags: W
HStem: 6 86<63 223 349 509> 435 86<154 314 440 600> 688 20G<367.829 479>
DStem2: 185 -172 292 -172 0.207912 0.978148<22.2465 182.011 292.328 620.556 730.874 899.649>
LayerCount: 2
Fore
SplineSet
185 -172 m 1
 223 6 l 1
 44 6 l 1
 63 92 l 1
 242 92 l 1
 314 435 l 1
 135 435 l 1
 154 521 l 1
 333 521 l 1
 372 708 l 1
 479 708 l 1
 440 521 l 1
 619 521 l 1
 600 435 l 1
 421 435 l 1
 349 92 l 1
 528 92 l 1
 509 6 l 1
 330 6 l 1
 292 -172 l 1
 185 -172 l 1
EndSplineSet
EndChar

StartChar: perthousand
Encoding: 369 8240 332
Width: 999
VWidth: 2048
Flags: W
HStem: -29 77<515.034 576.208 842.006 902.34> 271 77<553.658 614.254 883.186 941.875> 352 77<205.469 266.671> 653 77<247.117 306.254>
VStem: 107 95<430.184 585.133> 311 97<495.075 651.824> 415 96<50.2066 209.016> 619 97<113.237 268.802> 744 95<49.6043 205.472> 947 96<119.299 268.377>
DStem2: 130 -26 227 -26 0.52145 0.853282<50.5806 885.991>
LayerCount: 2
Fore
SplineSet
116 547 m 0
 142 668 203 730 298 730 c 0
 371 730 408 692 408 616 c 0
 408 595 406 572 400 546 c 0
 373 417 311 352 216 352 c 0
 144 352 107 392 107 470 c 0
 107 493 110 518 116 547 c 0
281 653 m 0
 218 653 202 491 202 474 c 0
 202 446 210 429 233 429 c 0
 295 429 311 587 311 605 c 0
 311 637 301 653 281 653 c 0
130 -26 m 1
 592 730 l 1
 687 730 l 1
 227 -26 l 1
 130 -26 l 1
424 166 m 0
 450 287 512 348 606 348 c 0
 679 348 716 311 716 235 c 0
 716 214 714 190 708 164 c 0
 681 35 619 -29 526 -29 c 0
 452 -29 415 10 415 88 c 0
 415 111 418 137 424 166 c 0
589 271 m 0
 527 271 511 114 511 97 c 0
 511 64 521 48 541 48 c 0
 603 48 619 204 619 223 c 0
 619 255 609 271 589 271 c 0
753 166 m 0
 779 287 839 348 934 348 c 0
 1006 348 1043 311 1043 236 c 0
 1043 215 1040 191 1034 164 c 0
 1007 35 947 -29 852 -29 c 0
 780 -29 744 9 744 87 c 0
 744 110 747 136 753 166 c 0
916 271 m 0
 855 271 839 108 839 94 c 0
 839 63 849 48 868 48 c 0
 931 48 947 220 947 236 c 1
 942 259 933 271 916 271 c 0
EndSplineSet
EndChar

StartChar: guilsinglleft
Encoding: 370 8249 333
Width: 332
VWidth: 2048
Flags: W
VStem: 92 309
LayerCount: 2
Fore
SplineSet
401 480 m 1
 227 259 l 1
 306 34 l 1
 199 34 l 1
 92 259 l 1
 294 480 l 1
 401 480 l 1
EndSplineSet
EndChar

StartChar: guilsinglright
Encoding: 371 8250 334
Width: 332
VWidth: 2048
Flags: W
VStem: 44 309
LayerCount: 2
Fore
SplineSet
44 34 m 1
 218 256 l 1
 139 480 l 1
 246 480 l 1
 353 256 l 1
 151 34 l 1
 44 34 l 1
EndSplineSet
EndChar

StartChar: trademark
Encoding: 372 8482 335
Width: 999
VWidth: 2048
Flags: W
HStem: 648 68<258 367 445 569>
DStem2: 296 316 374 316 0.207912 0.978148<16.2171 339.507> 544 316 622 316 0.207912 0.978148<16.2171 343.362> 757 716 690 636 0.0561612 -0.998422<76.1109 275.352> 771 441 781 316 0.433646 0.901083<0 246.829> 867 316 945 316 0.207912 0.978148<16.2171 327.145>
LayerCount: 2
Fore
SplineSet
296 316 m 1
 367 648 l 1
 244 648 l 1
 258 716 l 1
 583 716 l 1
 569 648 l 1
 445 648 l 1
 374 316 l 1
 296 316 l 1
544 316 m 1
 629 716 l 1
 757 716 l 1
 771 441 l 1
 903 716 l 1
 1030 716 l 1
 945 316 l 1
 867 316 l 1
 935 636 l 1
 781 316 l 1
 708 316 l 1
 690 636 l 1
 622 316 l 1
 544 316 l 1
EndSplineSet
EndChar

StartChar: uniF71C
Encoding: 375 63260 336
Width: 338
VWidth: 2048
Flags: W
HStem: 0 2
VStem: 0 2
LayerCount: 2
Fore
SplineSet
0 0 m 1
 0 2 l 1
 2 0 l 1
 0 0 l 1
EndSplineSet
EndChar

StartChar: uniF71D
Encoding: 376 63261 337
Width: 338
VWidth: 2048
Flags: W
HStem: -162 159<28 56 226 278> -118 115<65 226>
VStem: -5 316
LayerCount: 2
Fore
SplineSet
217 -162 m 1xa0
 226 -118 l 1
 65 -118 l 1x60
 56 -162 l 1
 -5 -162 l 1
 28 -3 l 1xa0
 311 -3 l 1x60
 278 -162 l 1
 217 -162 l 1xa0
EndSplineSet
EndChar

StartChar: dotlessj
Encoding: 388 567 351
Width: 254
Flags: W
HStem: -231 86<-55.1424 25.4029> 501 20G<178.754 290>
DStem2: 23.3003 -231 130.3 -231 0.207912 0.978148<100.725 768.77>
LayerCount: 2
Fore
SplineSet
-55 -231 m 0
 -61 -231 -72 -229 -72 -229 c 1
 -53 -143 l 1
 -53 -143 -36 -145 -27 -145 c 0
 21 -145 46 -124 69 -16 c 2
 183 521 l 1
 290 521 l 1
 176 -16 l 2
 139 -189 107 -231 -55 -231 c 0
EndSplineSet
EndChar
